SplineFontDB: 3.2
FontName: SovngardeBold
FullName: Sovngarde Bold
FamilyName: Sovngarde
Weight: Bold
Copyright: (c) All Rights Reserved. Designed and developed by K.
Version: 8.9
ItalicAngle: 0
UnderlinePosition: -100
UnderlineWidth: 50
Ascent: 800
Descent: 200
InvalidEm: 0
LayerCount: 2
Layer: 0 0 "Back" 1
Layer: 1 0 "Fore" 0
XUID: [1021 726 -1732314294 23016]
FSType: 0
OS2Version: 0
OS2_WeightWidthSlopeOnly: 0
OS2_UseTypoMetrics: 1
CreationTime: 1464055314
ModificationTime: 1599533147
PfmFamily: 17
TTFWeight: 700
TTFWidth: 5
LineGap: 90
VLineGap: 0
OS2TypoAscent: 0
OS2TypoAOffset: 1
OS2TypoDescent: 0
OS2TypoDOffset: 1
OS2TypoLinegap: 90
OS2WinAscent: 0
OS2WinAOffset: 1
OS2WinDescent: 0
OS2WinDOffset: 1
HheadAscent: 0
HheadAOffset: 1
HheadDescent: 0
HheadDOffset: 1
OS2Vendor: 'PfEd'
Lookup: 258 0 0 "Default" { "Default-1" [150,0,2] } ['kern' ('DFLT' <'dflt' > 'latn' <'dflt' > ) ]
MarkAttachClasses: 1
DEI: 91125
KernClass2: 11 25 "Default-1"
 1 T
 1 Y
 1 f
 1 A
 9 parenleft
 11 bracketleft
 1 V
 1 L
 1 O
 7 uni1E6A
 1 A
 1 G
 1 J
 1 o
 1 a
 1 b
 1 c
 1 d
 1 e
 1 f
 1 g
 1 h
 1 i
 1 j
 1 k
 1 l
 1 V
 1 T
 1 Y
 10 parenright
 12 bracketright
 1 O
 6 Yacute
 0 

StartChar: A
Encoding: 65 65 0
Width: 577
VWidth: 0
Flags: W
HStem: 0.643555 21G<31.4668 166.791 411.21 545.533> 534.052 20G<274.234 293.553>
LayerCount: 2
Fore
SplineSet
518.640625 79.716796875 m 2
 527.319335938 62.0419921875 538.900390625 39.21875 545.533203125 33.60546875 c 1
 545.533203125 0.6435546875 l 1
 433.645507812 0.6435546875 l 1
 411.209960938 0.6435546875 l 1
 411.209960938 32.8427734375 l 1
 411.209960938 32.8427734375 424.739336973 50.4440910677 394.12109375 87.322265625 c 2
 363.799804688 123.842773438 l 1
 333.95703125 115.456054688 302.049804688 117.119140625 302.049804688 117.119140625 c 1
 198.415039062 113.376953125 l 1
 164.461914062 56.2001953125 l 1
 158.747070312 34.783203125 166.791015625 32.8427734375 166.791015625 32.8427734375 c 1
 166.791015625 0.6435546875 l 1
 148.447265625 0.6435546875 l 1
 31.466796875 0.6435546875 l 1
 31.466796875 33.60546875 l 1
 36.1240234375 37.5556640625 42.826171875 48.5771484375 49.3876953125 60.9130859375 c 2
 283.73828125 554.051757812 l 1
 502.390625 108.491210938 l 1
 518.640625 79.716796875 l 2
375.216796875 211.41015625 m 1
 381.424804688 215.4296875 l 1
 371.971679688 219.727539062 378.938476562 223.469726562 378.938476562 223.469726562 c 1
 362.940429688 198.479492188 l 1
 348.0546875 220.974609375 l 1
 348.0546875 226.51953125 l 1
 336.625976562 227.767578125 l 1
 286.373046875 354.354492188 l 1
 270.640625 319.55859375 l 2
 269.653320312 320.807617188 268.030273438 322.748046875 266.1953125 324.133789062 c 0
 263.303710938 326.3515625 260.05859375 339.243164062 256.459960938 325.174804688 c 1
 258.928710938 322.470703125 l 1
 258.15234375 319.55859375 l 1
 262.173828125 316.716796875 l 1
 264.99609375 307.22265625 l 1
 218.796875 184.03125 l 1
 268.677734375 190.893554688 279.06640625 217.85546875 279.06640625 217.85546875 c 1
 322.102539062 215.637695312 302.921875 214.875 326.5546875 215.013671875 c 1
 342.905273438 201.844726562 l 1
 342.905273438 211.41015625 l 1
 375.216796875 211.41015625 l 1
EndSplineSet
Validated: 37
EndChar

StartChar: B
Encoding: 66 66 1
Width: 432
VWidth: 0
Flags: W
HStem: 1.55371 37.3633<17.6016 33.3489> 229.658 102.443<145.018 234.408> 473.373 80.4766<144.529 217.859>
VStem: 42.8213 102.196<110.188 229.52 332.102 332.938 343.318 381.699 430.388 469.91 472.906 473.373>
LayerCount: 2
Fore
SplineSet
202.043945312 332.1015625 m 2
 306 332.1015625 300.89453125 402.272460938 300.89453125 402.272460938 c 1
 300.89453125 481 217.859375 473.373046875 217.859375 473.373046875 c 1
 144.529296875 473.373046875 l 1
 144.529296875 435.333984375 l 1
 144.041992188 430.387695312 l 1
 141.534179688 434.846679688 l 1
 139.026367188 428.4375 l 1
 138.05078125 418.651367188 l 1
 142.021484375 410.221679688 l 1
 144.529296875 404.788085938 l 1
 144.529296875 343.318359375 l 1
 140.55859375 342.830078125 l 1
 138.607421875 338.859375 l 1
 145.017578125 332.9375 l 1
 145.017578125 332.1015625 l 1
 202.043945312 332.1015625 l 2
324.108398438 287.828125 m 1
 384.927734375 268.390625 423.119140625 202.717773438 410.508789062 113.750976562 c 0
 392.326171875 -14.3681640625 268.165039062 1.3447265625 268.165039062 1.3447265625 c 1
 142.579101562 1.5537109375 l 1
 17.6015625 1.5537109375 l 1
 17.6015625 38.9169921875 l 1
 41.21875 45.2568359375 42.8212890625 110.1875 42.8212890625 110.1875 c 1
 42.8212890625 378.854492188 l 1
 44.771484375 388.259765625 l 1
 47.9765625 396.201171875 l 1
 74.4501953125 396.201171875 l 1
 78.4208984375 401.635742188 l 1
 61.630859375 404.143554688 l 1
 45.81640625 408.114257812 l 1
 45.81640625 418.982421875 l 1
 40.3828125 418.982421875 l 1
 40.3828125 469.91015625 l 1
 36.4111328125 472.90625 l 1
 36.4111328125 487.745117188 l 1
 17.6015625 507.04296875 l 1
 17.6015625 549.390625 l 1
 17.6015625 553.849609375 l 1
 237.162109375 553.849609375 l 1
 237.162109375 553.849609375 412.58984375 552.849609375 386.743164062 389.6171875 c 0
 378.3828125 336.80859375 356.991210938 305.036132812 324.108398438 287.828125 c 1
146.036132812 92.9443359375 m 5
 327 64 314.193359375 160.889648438 314.193359375 160.889648438 c 1
 314.193359375 232 234.408203125 229.658203125 234.408203125 229.658203125 c 1
 151.078125 229.658203125 l 1
 145.017578125 229.51953125 l 1
 145.017578125 108.315429688 l 2
 145.017578125 101.443359375 145.388671875 98.984375 146.036132812 92.9443359375 c 5
EndSplineSet
Validated: 33
EndChar

StartChar: C
Encoding: 67 67 2
Width: 540
VWidth: 0
Flags: W
HStem: 0.387695 21G<281.005 358.841> 333.114 21G<417.239 441.7>
VStem: 31.1846 125.781<167.259 284.521>
LayerCount: 2
Fore
SplineSet
305 104 m 1
 305 104 426 116 481.208007812 210.043945312 c 1
 509.817382812 216.075195312 l 1
 508.817382812 136.723632812 l 1
 508.817382812 136.723632812 436.676757812 4.8173828125 281.004882812 0.3876953125 c 1
 281.004882812 0.3876953125 35.6142578125 -11.0029296875 31.1845703125 284.520507812 c 1
 31.1845703125 284.520507812 27.6689453125 562.465820312 288.809570312 552.833007812 c 1
 389.075195312 552.833007812 455.942382812 503.543945312 455.942382812 503.543945312 c 1
 492.012695312 454.254882812 508.747070312 472.747070312 508.747070312 472.747070312 c 1
 488.567382812 420.786132812 441.700195312 333.114257812 441.700195312 333.114257812 c 1
 417.239257812 340.059570312 l 1
 414 448 315 456 315 456 c 1
 315 456 156.965820312 489 156.965820312 265.731445312 c 0
 156.965820312 79 305 104 305 104 c 1
EndSplineSet
Validated: 33
EndChar

StartChar: D
Encoding: 68 68 3
Width: 494
VWidth: 0
Flags: W
HStem: 0.0195312 98.7812<166.805 232.008> 453.332 98.9922<166.805 232.008>
VStem: 54.2578 112.547<112.426 372.738 393.129 453.332> 363.719 113.375<168.031 379.054>
LayerCount: 2
Fore
SplineSet
235.875 552.32421875 m 1
 235.875 552.32421875 477.0234375 548.80859375 477.09375 276.20703125 c 4
 477.09375 3.60546875 240.5859375 0.01953125 240.5859375 0.01953125 c 1
 151.5703125 0.01953125 l 1
 110.859375 0.01953125 l 1
 27.046875 0.01953125 l 1
 27.046875 38.73828125 l 1
 56.48046875 54 54.2578125 112.42578125 54.2578125 112.42578125 c 1
 54.2578125 363.03515625 l 1
 56.3671875 372.73828125 l 1
 59.8125 380.89453125 l 1
 88.359375 380.89453125 l 1
 92.6484375 386.51953125 l 1
 74.5078125 389.05078125 l 1
 57.421875 393.12890625 l 1
 57.421875 404.37890625 l 1
 51.515625 404.37890625 l 1
 51.515625 457.11328125 l 1
 47.2265625 460.20703125 l 1
 47.2265625 475.53515625 l 1
 26.90625 505.50390625 l 1
 26.90625 547.68359375 l 1
 26.90625 552.32421875 l 1
 235.875 552.32421875 l 1
232.0078125 98.80078125 m 1
 232.0078125 98.80078125 363.71875 89 363.71875 274.87109375 c 0
 363.71875 463 232.0078125 453.33203125 232.0078125 453.33203125 c 1
 198.3046875 453.33203125 l 1
 166.8046875 453.33203125 l 1
 166.8046875 98.80078125 l 1
 198.3046875 98.80078125 l 1
 232.0078125 98.80078125 l 1
EndSplineSet
Validated: 33
EndChar

StartChar: E
Encoding: 69 69 4
Width: 399
VWidth: 0
Flags: W
HStem: 0.300781 85.9453<177.047 281.73 281.775 334.13> 246.285 59.3281<155.285 204.286> 472.652 79.6719<216.246 254.191>
VStem: 51.1055 104.391<109.427 246.285 305.613 375.699 396.793 466.479> 348.566 25.0625<422.73 444.061>
LayerCount: 2
Fore
SplineSet
373.62890625 422.73046875 m 5
 348.56640625 422.30859375 l 5
 334.08203125 472.65234375 254.19140625 472.65234375 254.19140625 472.65234375 c 5
 216.24609375 472.65234375 l 5
 216.24609375 472.65234375 162.87890625 476.23828125 156.12890625 443.61328125 c 5
 156.12890625 396.79296875 l 5
 149.23828125 392.29296875 l 5
 148.53515625 388.14453125 l 5
 140.87109375 388.14453125 l 5
 139.04296875 385.12109375 l 5
 138.69140625 381.74609375 l 5
 135.80859375 383.64453125 l 5
 136.16015625 378.01953125 l 5
 141.22265625 378.01953125 l 5
 144.80859375 375.69921875 l 5
 146.56640625 376.96484375 l 5
 149.66015625 380.62109375 l 5
 155.14453125 383.22265625 l 5
 155.21484375 305.61328125 l 5
 195.5 305.61328125 204.29296875 321.35546875 204.29296875 321.35546875 c 5
 316.5 315 329.10546875 326.34765625 329.10546875 326.34765625 c 5
 321.5 302 l 5
 313.00390625 271.91015625 l 6
 301.119140625 246.606445312 226.88671875 246.16796875 226.88671875 246.16796875 c 5
 155.28515625 246.28515625 l 5
 155.49609375 162.39453125 l 6
 157.25390625 142.35546875 167.764648438 86.24609375 230.80078125 86.24609375 c 4
 332.5 86.24609375 342.73046875 117.88671875 342.73046875 117.88671875 c 5
 373.62890625 117.88671875 l 5
 373.62890625 0.37109375 l 5
 342.41015625 0.44140625 281.73046875 0.30078125 281.73046875 0.30078125 c 5
 150.38671875 0.51171875 l 5
 150.24609375 0.37109375 l 5
 25.37109375 0.37109375 l 5
 25.37109375 59.82421875 l 5
 25.37109375 59.82421875 48.99609375 59.33203125 51.10546875 126.62109375 c 6
 51.24609375 416.17578125 l 5
 51.24609375 441.69921875 l 6
 50.33203125 453.86328125 48.01171875 468.27734375 42.38671875 479.73828125 c 4
 38.58984375 486.48828125 33.17578125 492.81640625 25.37109375 497.17578125 c 5
 25.37109375 497.59765625 l 5
 25.37109375 551.90234375 l 5
 25.37109375 552.32421875 l 5
 63.48046875 552.32421875 l 5
 181.39453125 552.32421875 l 5
 373.62890625 552.32421875 l 5
 373.62890625 422.73046875 l 5
EndSplineSet
Validated: 33
EndChar

StartChar: F
Encoding: 70 70 5
Width: 379
VWidth: 0
Flags: W
HStem: -0.0507812 45.2578<171.061 192.52> 255.387 59.7891<163.762 205.239> 473.652 78.6719<196.949 260.816> 499.527 52.7969<22.6133 46.8668>
VStem: 59.1055 104.656<112.637 255.387 315.176 350.527 370.988 448.551> 331.676 24.7109<423.59 446.611>
LayerCount: 2
Fore
SplineSet
326.44921875 318.94140625 m 2xec
 312.709960938 261.2734375 238.05078125 258.12890625 238.05078125 258.05859375 c 2
 163.76171875 255.38671875 l 1
 163.76171875 112.63671875 l 1
 163.76171875 112.63671875 164.39453125 45.20703125 192.51953125 45.20703125 c 1
 192.51953125 -0.05078125 l 1
 29.50390625 -0.05078125 l 1
 29.50390625 45.69921875 l 1
 29.50390625 45.69921875 57.62890625 45.20703125 59.10546875 113.69140625 c 2
 59.10546875 448.55078125 l 1
 59.10546875 448.55078125 53.12890625 485.25390625 22.61328125 499.52734375 c 1
 22.61328125 552.32421875 l 1
 59.10546875 552.32421875 l 1
 172.09765625 552.32421875 l 1
 356.38671875 552.32421875 l 1xdc
 356.38671875 423.58984375 l 1
 331.67578125 423.23828125 l 1
 317.82421875 473.65234375 260.81640625 473.65234375 260.81640625 473.65234375 c 1
 196.94921875 473.65234375 l 1
 196.94921875 473.65234375 164.74609375 474.77734375 165.09765625 434.13671875 c 2
 165.09765625 370.98828125 l 1
 157.15234375 366.69921875 l 1
 156.30859375 362.76171875 l 1
 147.51953125 362.76171875 l 1
 145.41015625 359.87890625 l 1
 144.98828125 356.64453125 l 1
 141.68359375 358.47265625 l 1
 142.10546875 353.05859375 l 1
 147.94140625 353.05859375 l 1
 152.51171875 350.52734375 l 1
 157.50390625 355.58984375 l 1
 163.76171875 358.12109375 l 1
 163.76171875 315.17578125 l 1
 195.21484375 316 205.24609375 332.45703125 205.24609375 332.45703125 c 1
 319.21484375 316 291.62109375 337.44921875 291.62109375 337.44921875 c 1
 329.45703125 331.56640625 l 1
 326.44921875 318.94140625 l 2xec
EndSplineSet
Validated: 33
EndChar

StartChar: G
Encoding: 71 71 6
Width: 564
VWidth: 0
Flags: W
HStem: -0.0507812 112.789<214.398 392.544> 211.496 47.4688<379.828 430.842> 449.676 102.789<233.505 386.784>
VStem: 28.4062 115.391<181.132 358.446>
LayerCount: 2
Fore
SplineSet
579.09375 284.03515625 m 1
 593.59375 281.57421875 l 1
 574.5390625 226.61328125 l 2
 568.703125 219.93359375 556.75 216.20703125 543.8828125 214.16796875 c 1
 530.200195312 208 525.953125 168.28515625 525.953125 168.28515625 c 1
 430.5078125 188.28515625 l 1
 433.200195312 200 429.200195312 211.84765625 412.4375 211.84765625 c 1
 359.1015625 211.49609375 l 1
 379.828125 258.96484375 l 1
 427.078125 260.58203125 457.5390625 283.12109375 457.5390625 283.12109375 c 1
 572.200195312 268 579.09375 284.03515625 579.09375 284.03515625 c 1
304.3828125 112.73828125 m 0
 356.203125 112.73828125 413.200195312 126 430.3671875 188.35546875 c 1
 526.1640625 168.35546875 l 1
 495.200195312 26 387.3515625 -0.05078125 296.296875 -0.05078125 c 0
 148.2890625 -0.05078125 28.40625 123.76953125 28.40625 276.27734375 c 0
 28.40625 428.78515625 148.359375 552.46484375 296.3671875 552.46484375 c 0
 394.03125 552.46484375 496.200195312 494 526.2890625 398.09765625 c 1
 442.515625 378.09765625 l 1
 403.9140625 421.97265625 367.3828125 449.67578125 304.3828125 449.67578125 c 0
 223.200195312 449.67578125 143.796875 369 143.796875 279.08984375 c 0
 143.796875 183 188.0859375 112.73828125 304.3828125 112.73828125 c 0
75.0234375 390.95703125 m 1
 75.0234375 390.95703125 81.84375 415.21484375 107.0859375 419.99609375 c 1
 90.703125 419.99609375 l 1
 80.71875 410.43359375 l 1
 73.6171875 411.13671875 l 1
 69.328125 403.05078125 l 1
 57.9375 402.34765625 l 1
 75.0234375 390.95703125 l 1
EndSplineSet
Validated: 37
EndChar

StartChar: S
Encoding: 83 83 7
Width: 424
VWidth: 0
Flags: W
HStem: 419.277 96.4844<323.367 359.273>
LayerCount: 2
Fore
SplineSet
359.2734375 515.76171875 m 1
 359.2734375 419.27734375 l 1
 323.3671875 419.27734375 l 1
 323.3671875 419.27734375 200 503 151.4921875 423.01953125 c 1
 151.4921875 423.01953125 124 370 200.6796875 342.08984375 c 1
 200.6796875 342.08984375 198.296875 342.80859375 272.125 306.66796875 c 1
 272.125 306.66796875 378 265 393.234375 191.12890625 c 1
 393.234375 191.12890625 415.3828125 114.41796875 357.796875 50.92578125 c 1
 357.796875 50.92578125 306.7890625 -4.62109375 195.4140625 0.30078125 c 1
 195.4140625 0.30078125 64.0546875 3.67578125 26.578125 78.20703125 c 1
 26.578125 185.58984375 l 1
 68.3046875 185.58984375 l 1
 68.3046875 185.58984375 85.546875 113.09765625 186.65625 105.01171875 c 1
 186.65625 105.01171875 282.4296875 100 282.4296875 164.97265625 c 1
 282.4296875 164.97265625 291 203 169.609375 237.85546875 c 1
 169.609375 237.85546875 176.21875 253.74609375 202.796875 267.03515625 c 1
 185.8515625 267.03515625 l 1
 175.515625 257.47265625 l 1
 168.1328125 258.17578125 l 1
 163.703125 250.08984375 l 1
 151.890625 249.38671875 l 1
 151.890625 249.38671875 38.7421875 288.91796875 32.6953125 411.40234375 c 1
 32.6953125 411.40234375 29 494 137.125 541.70703125 c 1
 137.0546875 541.56640625 237.4921875 578.48046875 359.2734375 515.76171875 c 1
EndSplineSet
Validated: 33
EndChar

StartChar: T
Encoding: 84 84 8
Width: 506
VWidth: 0
Flags: W
HStem: -0.0507812 35.2578<309.721 326.746> 441.238 111.086<20.7695 45.0586 438.896 485.16> 471.652 80.6719<51.5365 198.605 326.746 391.402>
VStem: 199.012 102.984<102.637 350.527 370.988 446.371> 461.082 24.1484<441.238 457.289>
LayerCount: 2
Fore
SplineSet
485.16015625 552.32421875 m 5xd8
 485.23046875 441.23828125 l 5
 461.08203125 441.23828125 l 5xd8
 454 472 391.40234375 471.65234375 391.40234375 471.65234375 c 5
 326.74609375 471.65234375 l 5
 326.74609375 471.65234375 303.05078125 470 303.05078125 452.13671875 c 6
 303.05078125 370.98828125 l 5
 296.23046875 366.69921875 l 5
 295.52734375 362.76171875 l 5
 288.00390625 362.76171875 l 5
 286.17578125 359.87890625 l 5
 285.82421875 356.64453125 l 5
 282.94140625 358.47265625 l 5
 283.29296875 353.05859375 l 5
 288.35546875 353.05859375 l 5
 292.29296875 350.52734375 l 5
 296.58203125 355.58984375 l 5
 301.99609375 358.12109375 l 5
 301.99609375 102.63671875 l 5
 301.99609375 102.63671875 302.48828125 35.20703125 326.74609375 35.20703125 c 5
 326.74609375 -0.05078125 l 5
 173.48828125 -0.05078125 l 5
 173.48828125 35.69921875 l 5
 173.48828125 35.69921875 197.74609375 35.20703125 199.01171875 103.69140625 c 6
 199.01171875 446.37109375 l 5
 199.01171875 446.37109375 199 471.58203125 167.56640625 471.58203125 c 5
 136.20703125 471.58203125 135.55078125 471.58203125 115.44140625 471.65234375 c 4xb8
 57.99609375 471.79296875 45.05859375 441.23828125 45.05859375 441.23828125 c 5
 20.76953125 441.23828125 l 5
 20.76953125 552.32421875 l 5
 485.16015625 552.32421875 l 5xd8
EndSplineSet
Validated: 33
EndChar

StartChar: U
Encoding: 85 85 9
Width: 482
VWidth: 0
Flags: W
HStem: -0.0507812 95.3203<236.313 301.006> 523.152 29.1719<138.49 154.181>
VStem: 24.9932 108.797<183.795 490.105> 349.696 107.078<188.105 194.855 195.037 498.91>
LayerCount: 2
Fore
SplineSet
329.305664062 552.12890625 m 5
 477.657226562 552.32421875 l 5
 477.657226562 521.39453125 l 5
 477.657226562 521.39453125 456.633789062 512.46484375 457.266601562 478.92578125 c 4
 457.899414062 445.38671875 456.774414062 194.85546875 456.774414062 194.85546875 c 5
 456.774414062 188.10546875 l 5
 451.641601562 178.61328125 l 5
 456.774414062 176.99609375 l 5
 456.774414062 176.99609375 442.750976562 -0.05078125 230.266601562 -0.05078125 c 4
 42.1103515625 -0.05078125 24.9931640625 183.60546875 24.9931640625 183.60546875 c 5
 24.9931640625 183.60546875 24.5009765625 445.38671875 25.1337890625 478.92578125 c 4
 25.7666015625 512.46484375 4.7431640625 521.39453125 4.7431640625 521.39453125 c 5
 4.7431640625 552.32421875 l 5
 154.180664062 552.32421875 l 5
 154.180664062 523.15234375 l 5
 133.157226562 514.99609375 133.790039062 490.10546875 133.790039062 490.10546875 c 5
 133.790039062 228.86328125 l 5
 138.641601562 88.94140625 236.313476562 95.26953125 236.313476562 95.26953125 c 5
 322 95.26953125 343.579101562 162.34765625 348.571289062 202.14453125 c 4
 348.852539062 210.37109375 349.204101562 218.87890625 349.696289062 227.73828125 c 6
 349.344726562 240.04296875 l 5
 349.696289062 498.91015625 l 5
 349.696289062 498.91015625 350.329101562 513.73046875 329.305664062 521.95703125 c 5
 329.305664062 552.12890625 l 5
EndSplineSet
Validated: 33
EndChar

StartChar: V
Encoding: 86 86 10
Width: 518
VWidth: 0
Flags: W
HStem: -0.0673828 21G<212.109 320.463> 518.894 33.0078<329.445 346.799>
LayerCount: 2
Fore
SplineSet
329.4453125 551.901367188 m 1
 492.8046875 551.901367188 l 1
 492.8046875 517.909179688 l 1
 492.8046875 517.909179688 465.8046875 505.838867188 437.1171875 424.979492188 c 2
 314.703125 -0.0673828125 l 1
 218.8359375 -0.0673828125 l 1
 76.9453125 421.815429688 l 1
 76.9453125 421.815429688 42.9140625 505.674804688 25.1953125 519.948242188 c 1
 25.1953125 551.901367188 l 1
 201.359375 551.901367188 l 1
 201.2890625 520.018554688 l 1
 201.2890625 520.018554688 155.9375 513.166992188 200.0234375 391.385742188 c 2
 265.3203125 169.893554688 l 1
 268.5390625 169.893554688 l 1
 344.6328125 428.987304688 l 1
 344.6328125 428.987304688 370.3671875 503.143554688 329.234375 518.893554688 c 1
 329.4453125 551.901367188 l 1
EndSplineSet
Validated: 33
EndChar

StartChar: W
Encoding: 87 87 11
Width: 666
VWidth: 0
Flags: W
HStem: -0.200195 23.0078<144.906 149.008 509.77 513.781> 519.628 32.9531<25.7109 46.8358 619.111 640.289>
VStem: 564.844 1.47656<305.729 320.636>
LayerCount: 2
Fore
SplineSet
307.296875 130.104492188 m 5
 307.578125 131.088867188 l 5
 307.4375 131.088867188 l 5
 307.296875 130.104492188 l 5
475.203125 552.581054688 m 5
 640.2890625 552.581054688 l 5
 640.2890625 519.627929688 l 5
 607.875 517.096679688 592.265625 424.635742188 592.265625 424.635742188 c 5
 566.3203125 305.729492188 l 5
 564.84375 320.635742188 l 5
 556.96875 318.315429688 l 5
 556.6171875 312.620117188 l 5
 547.8984375 311.635742188 l 5
 550.359375 307.627929688 l 5
 550.359375 307.627929688 543.328125 306.081054688 540.796875 302.073242188 c 4
 538.265625 298.065429688 535.3125 291.596679688 535.3125 291.596679688 c 5
 542.625 294.620117188 l 5
 546 290.612304688 l 5
 549.234375 295.112304688 l 5
 553.8046875 291.666992188 l 5
 563.6484375 290.963867188 l 5
 518.3515625 107.815429688 l 5
 518.421875 107.815429688 l 5
 518.421875 107.815429688 502.1796875 25.1279296875 513.921875 22.1748046875 c 5
 513.78125 -0.1298828125 l 5
 511.0390625 -0.1298828125 l 5
 418.578125 -0.1298828125 l 5
 418.2265625 -0.1298828125 l 5
 411.515625 23.4404296875 l 5
 361.46875 121.174804688 l 5
 362.171875 135.237304688 l 5
 361.46875 121.174804688 l 5
 351.5078125 141.846679688 l 5
 345.640625 153.166992188 l 5
 333.171875 183.049804688 l 5
 314.21875 144.940429688 l 5
 313.1640625 146.627929688 l 5
 311.4765625 146.206054688 l 5
 313.375 156.612304688 l 5
 312.671875 153.729492188 l 5
 311.96875 150.987304688 l 5
 311.96875 150.987304688 310 150.213867188 308.59375 150.213867188 c 4
 307.2578125 150.213867188 311.96875 153.377929688 311.96875 153.377929688 c 5
 309.5078125 153.377929688 l 5
 309.5078125 174.260742188 l 5
 307.3984375 176.510742188 l 5
 310.28125 160.831054688 308.3828125 150.284179688 306.765625 145.010742188 c 5
 300.4375 143.534179688 l 5
 300.4375 141.002929688 l 5
 294.109375 138.471679688 l 5
 295.484375 127.924804688 l 5
 306.875 130.877929688 l 5
 307.3671875 130.104492188 l 5
 247.5234375 22.2451171875 l 5
 237.0234375 -0.2001953125 l 5
 147.6484375 -0.2001953125 l 5
 144.90625 -0.2001953125 l 5
 144.765625 22.8076171875 l 5
 154.75 27.7998046875 145.9609375 86.7919921875 142.9375 105.354492188 c 6
 73.734375 424.635742188 l 5
 73.734375 424.635742188 63.75 510.416992188 25.7109375 519.627929688 c 5
 25.7109375 552.581054688 l 5
 200.8671875 552.581054688 l 5
 200.796875 519.698242188 l 5
 200.796875 519.698242188 180.3359375 512.526367188 191.796875 429.627929688 c 5
 190.6015625 430.190429688 187.71875 431.174804688 184.203125 431.315429688 c 6
 184.203125 431.315429688 168.6640625 440.174804688 175.6953125 426.604492188 c 5
 179.28125 425.760742188 l 5
 180.3359375 422.877929688 l 5
 185.2578125 422.807617188 l 5
 193.765625 416.057617188 l 5
 195.3125 406.424804688 197.28125 394.807617188 199.7421875 383.276367188 c 6
 237.6015625 221.135742188 l 5
 240.34375 221.135742188 l 5
 280.6171875 310.229492188 l 5
 335.1875 434.127929688 l 5
 391.3515625 305.229492188 l 5
 431.625 223.135742188 l 5
 434.3671875 223.135742188 l 5
 466.2578125 383.276367188 l 6
 491.8515625 506.745117188 475.2734375 519.698242188 475.2734375 519.698242188 c 5
 475.203125 552.581054688 l 5
EndSplineSet
Validated: 37
EndChar

StartChar: X
Encoding: 88 88 12
Width: 551
VWidth: 0
Flags: W
HStem: 0.0195312 30.9609<195.923 210.73> 520.941 30.9609<350.309 365.116>
LayerCount: 2
Fore
SplineSet
478.98828125 81.46484375 m 1
 478.98828125 81.46484375 503.61328125 47.78515625 532.44140625 30.62890625 c 1
 532.44140625 -0.05078125 l 1
 345.80859375 -0.05078125 l 1
 345.87890625 30.34765625 l 1
 345.87890625 30.34765625 376.67578125 52.84765625 347.00390625 103.05078125 c 2
 279.11328125 199.62109375 l 1
 277.44140625 199.62109375 l 1
 197.37109375 77.59765625 l 1
 197.37109375 77.59765625 184.15234375 39.48828125 210.94140625 30.98046875 c 1
 210.73046875 0.01953125 l 1
 18.55859375 0.01953125 l 1
 18.55859375 31.54296875 l 1
 18.55859375 31.54296875 42.39453125 36.39453125 67.70703125 79.77734375 c 2
 204.83203125 278.76171875 l 1
 91.98046875 440.59765625 l 1
 91.98046875 440.59765625 55.42578125 504.27734375 26.66796875 521.29296875 c 1
 26.66796875 551.97265625 l 1
 204.30078125 551.97265625 l 1
 204.23046875 521.57421875 l 1
 204.23046875 521.57421875 168.512695312 510.911132812 193.10546875 468.87109375 c 2
 272.99609375 352.30078125 l 1
 284.66796875 352.30078125 l 1
 363.66796875 474.32421875 l 1
 363.66796875 474.32421875 376.88671875 512.43359375 350.09765625 520.94140625 c 1
 350.30859375 551.90234375 l 1
 525.48046875 551.90234375 l 1
 525.48046875 520.44921875 l 1
 525.48046875 520.44921875 501.64453125 515.59765625 476.33203125 472.21484375 c 2
 356.13671875 279.23046875 l 1
 478.98828125 81.46484375 l 1
EndSplineSet
Validated: 33
EndChar

StartChar: Y
Encoding: 89 89 13
Width: 506
VWidth: 0
Flags: W
HStem: -0.191406 35.6094<316.216 332.039> 521.379 30.9453<23.2812 37.2741 325.469 335.871>
VStem: 197.195 112.133<92.3711 104.957 124.223 218.746>
LayerCount: 2
Fore
SplineSet
325.46875 552.32421875 m 1
 482.71875 552.32421875 l 1
 482.71875 520.46484375 l 1
 482.71875 520.46484375 468.0390625 514.69921875 441.8125 463.30078125 c 2
 309.328125 218.74609375 l 1
 309.328125 92.37109375 l 1
 309.328125 92.37109375 309.328125 41.95703125 332.0390625 35.41796875 c 1
 332.0390625 -0.19140625 l 1
 166.46875 -0.19140625 l 1
 166.46875 32.39453125 l 1
 166.46875 32.39453125 194.9453125 39.91796875 197.4765625 104.95703125 c 1
 207.3203125 112.55078125 l 1
 252.671875 109.03515625 l 1
 254.7109375 114.58984375 l 1
 237.0625 116.13671875 l 1
 232 121.19921875 l 1
 202.75 121.19921875 l 1
 197.1953125 124.22265625 l 1
 197.1953125 220.16796875 l 1
 65.140625 461.26171875 l 1
 65.140625 461.26171875 31 521.37890625 23.28125 521.37890625 c 1
 23.28125 552.32421875 l 1
 196.625 552.32421875 l 1
 196.5546875 521.80078125 l 1
 196.5546875 521.80078125 164.6328125 495.08203125 195.359375 435.59765625 c 2
 249.9921875 313.83984375 l 1
 257.0859375 313.83984375 l 1
 321.3203125 435.83203125 l 1
 321.3203125 435.83203125 352.9609375 510.97265625 325.2578125 521.02734375 c 1
 325.46875 552.32421875 l 1
EndSplineSet
Validated: 33
EndChar

StartChar: H
Encoding: 72 72 14
Width: 508
VWidth: 0
Flags: W
HStem: 0.0195312 35.9609<32.0078 49.7851 317.32 335.098> 222.402 97.625<190.891 317.391> 532.324 20G<32.0078 190.75 317.25 475.992>
VStem: 56.7578 107.344<106.434 221.731 322.121 469.605> 343.195 106.148<106.434 221.585 320.92 376.559 397.934 469.605>
LayerCount: 2
Fore
SplineSet
475.9921875 519.59765625 m 1
 449.765625 505.32421875 449.34375 469.60546875 449.34375 469.60546875 c 1
 449.34375 107.55859375 l 2
 450.6796875 35.98046875 475.9921875 36.47265625 475.9921875 36.47265625 c 1
 475.9921875 0.01953125 l 1
 317.3203125 0.01953125 l 1
 317.3203125 35.98046875 l 1
 342.6328125 35.98046875 343.1953125 106.43359375 343.1953125 106.43359375 c 1
 343.1953125 178.80859375 l 2
 341.015625 221.27734375 317.390625 222.61328125 317.390625 222.61328125 c 1
 190.9609375 222.40234375 l 2
 171.203125 222.40234375 165.578125 195.96484375 164.171875 174.58984375 c 2
 164.171875 149.48828125 l 2
 164.2421875 148.57421875 164.3125 148.01171875 164.3125 148.01171875 c 1
 164.171875 148.43359375 l 1
 164.171875 107.55859375 l 2
 165.5078125 35.98046875 190.8203125 36.47265625 190.8203125 36.47265625 c 1
 190.8203125 0.01953125 l 1
 32.0078125 0.01953125 l 1
 32.0078125 35.98046875 l 1
 57.3203125 35.98046875 57.8828125 106.43359375 57.8828125 106.43359375 c 1
 56.7578125 475.65234375 l 2
 56.7578125 508.69921875 32.0078125 516.92578125 32.0078125 516.92578125 c 1
 32.0078125 552.32421875 l 1
 190.75 552.32421875 l 1
 190.75 519.52734375 l 1
 164.453125 505.25390625 164.1015625 469.60546875 164.1015625 469.60546875 c 1
 164.1015625 396.45703125 l 1
 164.2421875 396.87890625 l 1
 164.734375 322.27734375 190.890625 320.02734375 190.890625 320.02734375 c 1
 317.3203125 319.95703125 l 2
 339.046875 321.29296875 342.5625 359.75390625 343.125 372.05859375 c 2
 343.125 384.43359375 l 1
 348.75 381.83203125 l 1
 353.25 376.55859375 l 1
 357.3984375 379.16015625 l 1
 362.671875 379.16015625 l 1
 363.0234375 384.78515625 l 1
 360 382.88671875 l 1
 359.6484375 386.26171875 l 1
 357.75 389.28515625 l 1
 349.875 389.28515625 l 1
 349.1015625 393.43359375 l 1
 342 397.93359375 l 1
 342 475.72265625 l 2
 342 508.76953125 317.25 516.99609375 317.25 516.99609375 c 1
 317.25 552.39453125 l 1
 475.9921875 552.39453125 l 1
 475.9921875 519.59765625 l 1
EndSplineSet
Validated: 33
EndChar

StartChar: I
Encoding: 73 73 15
Width: 198
VWidth: 0
Flags: W
HStem: -0.0507812 35.9609<155.629 173.406> 532.324 20G<24.5938 173.406>
VStem: 24.5938 148.812<-0.0507812 35.9102 516.926 552.324> 51.2422 96.2891<106.363 366.488 387.863 469.605>
LayerCount: 2
Fore
SplineSet
24.59375 552.32421875 m 5xe0
 173.40625 552.32421875 l 5
 173.40625 516.92578125 l 5xe0
 173.40625 516.92578125 148.65625 508.69921875 148.65625 475.65234375 c 6
 148.65625 387.86328125 l 5
 141.5546875 383.36328125 l 5
 140.78125 379.21484375 l 5
 132.90625 379.21484375 l 5
 131.0078125 376.19140625 l 5
 130.65625 372.81640625 l 5
 127.6328125 374.71484375 l 5
 127.984375 369.08984375 l 5
 133.2578125 369.08984375 l 5
 137.40625 366.48828125 l 5
 141.90625 371.76171875 l 5
 147.53125 374.36328125 l 5
 147.53125 106.36328125 l 5xd0
 147.53125 106.36328125 148.09375 35.91015625 173.40625 35.91015625 c 5
 173.40625 -0.05078125 l 5
 24.59375 -0.05078125 l 5
 24.59375 36.40234375 l 5xe0
 24.59375 36.40234375 49.90625 35.91015625 51.2421875 107.48828125 c 6
 51.2421875 469.60546875 l 5xd0
 51.2421875 469.60546875 50.890625 505.25390625 24.59375 519.52734375 c 5
 24.59375 552.32421875 l 5xe0
173.3359375 35.91015625 m 1028
EndSplineSet
Validated: 33
EndChar

StartChar: J
Encoding: 74 74 16
Width: 343
VWidth: 0
Flags: W
HStem: -20.957 20G<33.016 54.0273> 522.285 30.1094<312.457 325.716>
VStem: 203.301 95.9375<-35.8602 478.973 519.543 522.215 524.113 525.905>
LayerCount: 2
Fore
SplineSet
190.50390625 68.65234375 m 1024
177.49609375 552.32421875 m 1
 177.49609375 552.39453125 l 1
 325.88671875 552.39453125 l 1
 325.88671875 529.45703125 l 1
 322.23046875 527.41796875 319.13671875 524.95703125 316.39453125 522.28515625 c 2
 312.45703125 522.28515625 l 1
 310.06640625 528.40234375 l 1
 300.08203125 526.50390625 l 1
 300.08203125 524.11328125 l 1
 295.08984375 522.21484375 l 1
 295.08984375 519.54296875 l 1
 297.69140625 516.09765625 l 1
 305.07421875 513.98828125 l 1
 306.55078125 518.27734375 l 1
 310.34765625 517.50390625 l 1
 314.00390625 519.82421875 l 1
 299.51953125 503.16015625 299.23828125 478.97265625 299.23828125 478.97265625 c 1
 299.23828125 -17.07421875 l 1
 299.23828125 -122 221.68359375 -150.16796875 221.68359375 -150.16796875 c 1
 221.68359375 -150.16796875 36.7001953125 -215 17.11328125 -66.26953125 c 1
 40.03515625 -0.95703125 l 1
 54.02734375 -0.95703125 l 1
 54.02734375 -0.95703125 73.78515625 -31.96484375 101.62890625 -48.55859375 c 2
 101.34765625 -48.41796875 l 1
 97.41015625 -52.14453125 l 1
 99.37890625 -54.60546875 l 1
 101.34765625 -52.70703125 l 1
 101.34765625 -54.60546875 l 1
 99.37890625 -56.50390625 l 1
 101.34765625 -58.05078125 l 1
 102.33203125 -59.73828125 l 1
 105.70703125 -60.86328125 l 1
 103.80859375 -58.75390625 l 1
 104.37109375 -56.50390625 l 1
 101.55859375 -56.29296875 l 1
 103.80859375 -54.60546875 l 1
 103.03515625 -52.49609375 l 1
 107.74609375 -52.00390625 l 1
 107.25390625 -51.72265625 l 2
 118.78515625 -57.48828125 131.44140625 -60.51171875 144.51953125 -57.83984375 c 1
 144.51953125 -57.83984375 203.30078125 -53.62109375 203.30078125 35.46484375 c 2
 203.30078125 372.39453125 l 1
 202.17578125 485.01953125 l 2
 202.17578125 518.41796875 177.49609375 527.91015625 177.49609375 527.91015625 c 1
 177.49609375 552.32421875 l 1
EndSplineSet
Validated: 33
EndChar

StartChar: K
Encoding: 75 75 17
Width: 536
VWidth: 0
Flags: W
HStem: 0.0195312 20.9297G<20.918 171.801 344.301 515.082> 524.941 27.3828<20.918 38.3104 494.683 510.512>
VStem: 44.6836 107.922<83.477 188.176 200.902 490.91>
LayerCount: 2
Fore
SplineSet
20.91796875 524.94140625 m 1
 20.91796875 552.32421875 l 1
 176.37109375 552.32421875 l 1
 176.37109375 523.11328125 l 1
 176.37109375 523.11328125 151.83203125 513.90234375 152.60546875 479.30859375 c 0
 153.37890625 444.71484375 152.60546875 83.21484375 152.60546875 83.21484375 c 1
 152.60546875 83.21484375 152.46484375 48.05859375 171.80078125 34.83984375 c 1
 171.80078125 -0.05078125 l 1
 20.91796875 -0.05078125 l 1
 20.91796875 36.06640625 l 1
 20.91796875 36.06640625 44.68359375 46 44.68359375 85.56640625 c 2
 44.68359375 188.17578125 l 1
 61.55859375 185.50390625 l 1
 72.66796875 178.61328125 l 1
 78.22265625 179.73828125 l 1
 80.33203125 173.62109375 l 1
 91.08984375 176.71484375 l 1
 94.95703125 181.70703125 l 1
 94.95703125 185.57421875 l 1
 87.64453125 188.24609375 l 1
 87.64453125 191.69140625 l 1
 73.08984375 194.36328125 l 1
 69.64453125 185.50390625 l 1
 61.55859375 185.50390625 l 1
 44.33203125 200.90234375 l 1
 44.68359375 490.91015625 l 1
 44.68359375 490.91015625 45.45703125 516.50390625 20.91796875 524.94140625 c 1
437.38671875 118.12109375 m 2
 488.50390625 40.63671875 515.08203125 35.76953125 515.08203125 35.83984375 c 2
 515.08203125 0.01953125 l 1
 344.30078125 0.01953125 l 1
 344.30078125 32.35546875 l 1
 359 44 341.20703125 76.35546875 341.20703125 76.35546875 c 1
 280.87890625 142.78515625 l 1
 280.87890625 152.48828125 l 1
 313.08203125 152.48828125 l 1
 319.19921875 156.56640625 l 1
 307.45703125 161.62890625 l 1
 304.92578125 163.66796875 l 1
 300.84765625 159.58984375 l 1
 300.84765625 159.58984375 287.55859375 162.12109375 286.01171875 162.12109375 c 0
 284.46484375 162.12109375 286.01171875 167.74609375 286.01171875 167.74609375 c 1
 268.08203125 169.78515625 l 1
 177.50390625 289.42578125 l 1
 342.29296875 473.68359375 l 2
 370.06640625 506.30859375 342.29296875 522.12890625 342.29296875 522.12890625 c 1
 342.29296875 552.32421875 l 1
 510.51171875 552.32421875 l 1
 511.00390625 522.12890625 l 1
 489.27734375 515.94140625 437.05859375 450.59765625 437.05859375 450.59765625 c 1
 302.36328125 289.42578125 l 1
 344.83203125 224.73828125 392.29296875 197.76171875 392.29296875 197.76171875 c 1
 437.38671875 118.12109375 l 2
328.69140625 152.20703125 m 1
 332.98046875 154.24609375 l 1
 330.44921875 156.28515625 l 1
 328.69140625 161.34765625 l 1
 322.29296875 156.28515625 l 1
 328.69140625 152.20703125 l 1
EndSplineSet
Validated: 37
EndChar

StartChar: L
Encoding: 76 76 18
Width: 382
VWidth: 0
Flags: W
HStem: -0.0507812 80.9453<161.219 162.785 162.926 298.348 298.375 333.236> 532.324 20G<13.9727 162.785>
VStem: 40.6211 96.2891<174.848 366.488 387.863 469.605>
LayerCount: 2
Fore
SplineSet
336.77734375 104.43359375 m 1
 368.02734375 104.43359375 l 1
 368.02734375 -0.05078125 l 1
 335.82421875 0.01953125 298.34765625 -0.12109375 298.34765625 -0.12109375 c 1
 162.92578125 0.08984375 l 1
 162.78515625 -0.05078125 l 1
 13.97265625 -0.05078125 l 1
 15.97265625 63.40234375 l 1
 15.97265625 63.40234375 40.62109375 84 40.62109375 177.48828125 c 2
 40.62109375 469.60546875 l 1
 40.62109375 469.60546875 40.26953125 505.25390625 13.97265625 519.52734375 c 1
 13.97265625 552.32421875 l 1
 162.78515625 552.32421875 l 1
 162.78515625 516.92578125 l 1
 162.78515625 516.92578125 138.03515625 508.69921875 138.03515625 475.65234375 c 2
 138.03515625 387.86328125 l 1
 130.93359375 383.36328125 l 1
 130.16015625 379.21484375 l 1
 122.28515625 379.21484375 l 1
 120.38671875 376.19140625 l 1
 120.03515625 372.81640625 l 1
 117.01171875 374.71484375 l 1
 117.36328125 369.08984375 l 1
 122.63671875 369.08984375 l 1
 126.78515625 366.48828125 l 1
 131.28515625 371.76171875 l 1
 136.91015625 374.36328125 l 1
 136.91015625 174.84765625 l 1
 136.91015625 174.84765625 134.534179688 80.89453125 214.95703125 80.89453125 c 0
 287 80.89453125 336.77734375 104.43359375 336.77734375 104.43359375 c 1
EndSplineSet
Validated: 33
EndChar

StartChar: M
Encoding: 77 77 19
Width: 672
VWidth: 0
Flags: W
HStem: 0.0195312 26.875<168.75 184.035 635.138 646.371> 504.816 47.5078<33.3633 49.8496 604.746 620.285 623.168 646.23>
VStem: 52.7695 106.094<91.3008 114.785 135.809 370.238> 505.191 119.594<84.832 310.082 340.105 369.746>
LayerCount: 2
Fore
SplineSet
604.74609375 504.81640625 m 1
 604.32421875 500.24609375 l 1
 595.60546875 495.25390625 l 1
 610.65234375 493.28515625 l 1
 613.53515625 497.29296875 l 1
 624.85546875 496.30859375 l 1
 629.70703125 500.80859375 l 1
 627.73828125 491.31640625 l 1
 627.73828125 340.10546875 l 1
 613.67578125 339.12109375 l 1
 609.31640625 335.60546875 l 1
 605.94140625 340.10546875 l 1
 602.56640625 336.09765625 l 1
 595.25390625 339.12109375 l 1
 599.61328125 329.62890625 l 1
 604.46484375 325.62109375 l 1
 610.30078125 323.08984375 l 1
 607.83984375 319.08203125 l 1
 616.55859375 318.09765625 l 1
 617.05078125 310.57421875 l 1
 624.78515625 310.08203125 l 1
 624.78515625 84.83203125 l 1
 624.78515625 84.83203125 627.73828125 35.40234375 646.37109375 26.89453125 c 1
 646.37109375 0.01953125 l 1
 484.30859375 0.01953125 l 1
 484.30859375 26.75390625 l 1
 484.30859375 26.75390625 506.17578125 33.01171875 505.19140625 86.30859375 c 2
 505.19140625 369.74609375 l 1
 500.83203125 369.74609375 l 1
 336.03515625 170.91796875 l 1
 164.20703125 370.23828125 l 1
 158.86328125 370.23828125 l 1
 158.86328125 135.80859375 l 1
 151.55078125 127.30078125 l 1
 146.69921875 126.31640625 l 1
 146.20703125 123.29296875 l 1
 142.83203125 121.81640625 l 1
 142.83203125 121.81640625 138.96484375 112.25390625 146.69921875 114.78515625 c 2
 146.69921875 114.78515625 150.63671875 118.79296875 152.04296875 118.79296875 c 0
 153.44921875 118.79296875 159.77734375 122.30859375 159.77734375 122.30859375 c 1
 159.77734375 91.30078125 l 1
 159.77734375 91.30078125 158.30078125 30.48046875 184.03515625 25.98046875 c 1
 184.03515625 0.01953125 l 1
 25.62890625 0.01953125 l 1
 25.62890625 25.98046875 l 1
 25.62890625 25.98046875 52.76953125 35.68359375 52.76953125 88.27734375 c 0
 52.76953125 140.87109375 52.76953125 466.28515625 52.76953125 466.28515625 c 1
 52.76953125 466.28515625 50.80078125 499.82421875 33.36328125 504.81640625 c 1
 33.36328125 552.32421875 l 1
 179.30859375 552.32421875 l 1
 338.90234375 350.57421875 l 1
 505.83984375 552.32421875 l 1
 646.23046875 552.32421875 l 1
 646.23046875 509.31640625 l 1
 623.16796875 508.82421875 l 1
 620.28515625 504.81640625 l 1
 604.74609375 504.81640625 l 1
421.95703125 316.04296875 m 1
 426.31640625 323.14453125 l 1
 421.46484375 325.39453125 l 1
 419.98828125 331.16015625 l 1
 406.41796875 334.67578125 l 1
 403.04296875 324.12890625 l 1
 409.37109375 321.59765625 l 1
 409.37109375 319.06640625 l 1
 421.95703125 316.04296875 l 1
EndSplineSet
Validated: 33
EndChar

StartChar: N
Encoding: 78 78 20
Width: 578
VWidth: 0
Flags: W
HStem: -0.191406 35.9609<171.566 189.344 532.691 550.469> 506.699 20G<188.875 202.566> 527.965 24.2188<175.445 178.68>
VStem: 54.1797 109.289<106.223 266.488 287.863 365.402> 418.656 105.938<182.715 466.863>
LayerCount: 2
Fore
SplineSet
189.2734375 35.91015625 m 1024
525.6484375 475.65234375 m 2
 524.59375 374.36328125 l 1
 524.59375 106.36328125 l 1
 524.59375 106.36328125 525.15625 35.91015625 550.46875 35.91015625 c 1
 550.46875 -0.05078125 l 1
 417.953125 -0.05078125 l 1
 164.59375 365.40234375 l 1
 164.59375 287.86328125 l 1
 157.4921875 283.36328125 l 1
 156.71875 279.21484375 l 1
 148.84375 279.21484375 l 1
 146.9453125 276.19140625 l 1
 146.59375 272.81640625 l 1
 143.5703125 274.71484375 l 1
 143.921875 269.08984375 l 1
 149.1953125 269.08984375 l 1
 153.34375 266.48828125 l 1
 157.84375 271.76171875 l 1
 163.46875 274.36328125 l 1
 163.46875 106.22265625 l 1
 163.46875 106.22265625 164.03125 35.76953125 189.34375 35.76953125 c 1
 189.34375 -0.19140625 l 1
 27.53125 -0.19140625 l 1
 27.53125 36.26171875 l 1
 27.53125 36.26171875 52.84375 35.76953125 54.1796875 107.34765625 c 2
 54.1796875 469.46484375 l 1
 54.1796875 469.46484375 53.828125 505.11328125 27.53125 519.38671875 c 1
 27.53125 552.18359375 l 1
 161.453125 552.18359375 l 1
 186.203125 552.18359375 l 1
 186.90625 550.91796875 l 1
 178.6796875 528.17578125 l 1
 175.4453125 527.96484375 l 1
 175.1640625 522.26953125 l 1
 162.6484375 514.39453125 l 1
 158.921875 518.54296875 l 1
 144.5078125 508.27734375 l 1
 171.71875 496.88671875 l 1
 165.3203125 503.98828125 l 1
 188.875 525.22265625 l 1
 189.2265625 526.69921875 l 1
 418.65625 182.71484375 l 1
 420.9765625 466.86328125 l 1
 420.9765625 466.86328125 419.203125 501.66796875 394.5234375 519.52734375 c 1
 394.5234375 552.32421875 l 1
 550.3984375 552.32421875 l 1
 550.3984375 516.92578125 l 1
 550.3984375 516.92578125 525.6484375 508.69921875 525.6484375 475.65234375 c 2
EndSplineSet
Validated: 33
EndChar

StartChar: O
Encoding: 79 79 21
Width: 595
VWidth: 0
Flags: W
HStem: 0.419922 108.925<222.934 367.522> 445.892 106.231<228.299 367.004>
VStem: 25.1484 128.558<184.389 346.628> 437.342 132.51<181.988 368.564>
LayerCount: 2
Fore
SplineSet
297.5 552.123046875 m 0
 447.889648438 552.123046875 569.8515625 425.161132812 569.8515625 274.771484375 c 0
 569.8515625 124.381835938 447.958984375 0.419921875 297.5 0.419921875 c 0
 147.041015625 0.419921875 25.1484375 124.381835938 25.1484375 274.771484375 c 0
 25.1484375 425.161132812 147.110351562 552.123046875 297.5 552.123046875 c 0
299.025390625 109.344726562 m 0
 372.525390625 109.344726562 437.341796875 169 437.341796875 276.504882812 c 0
 437.341796875 363 384.525390625 445.891601562 297.361328125 445.891601562 c 0
 228.525390625 445.891601562 162.442382812 382 162.442382812 340.155273438 c 1
 160.778320312 341.75 158.490234375 343.69140625 156.1328125 345.008789062 c 2
 156.1328125 345.008789062 143.444335938 368.65234375 141.918945312 343.899414062 c 1
 146.287109375 339.947265625 l 1
 145.524414062 335.09375 l 1
 152.388671875 331.141601562 l 1
 157.588867188 318.591796875 l 1
 155.0234375 304.5859375 153.706054688 289.956054688 153.706054688 274.702148438 c 0
 153.706054688 159 230.525390625 109.344726562 299.025390625 109.344726562 c 0
EndSplineSet
Validated: 1
EndChar

StartChar: P
Encoding: 80 80 22
Width: 472
VWidth: 0
Flags: W
HStem: -0.121094 21G<30.0732 184.597> 460.926 91.3984<160.901 233.472>
VStem: 55.8076 105.094<111.02 309.832 320.379 383.738 416.309 418.051 420.02 460.926>
LayerCount: 2
Fore
SplineSet
255.666992188 226.51171875 m 1
 212.581054688 250.72265625 l 1
 212.581054688 308.77734375 l 1
 216.174804688 308.77734375 l 1
 347.643554688 293 335.018554688 387.40234375 335.018554688 387.40234375 c 5
 335.018554688 465 244.315429688 460.92578125 244.315429688 460.92578125 c 1
 160.901367188 460.92578125 l 1
 160.901367188 425.08203125 l 1
 160.409179688 420.01953125 l 1
 157.877929688 424.58984375 l 1
 155.346679688 418.05078125 l 1
 154.362304688 397.87109375 l 1
 158.370117188 389.29296875 l 1
 160.901367188 383.73828125 l 1
 160.901367188 320.37890625 l 1
 156.893554688 319.88671875 l 1
 154.854492188 315.87890625 l 1
 161.393554688 309.83203125 l 1
 161.393554688 102.93359375 l 1
 157.877929688 48.01953125 184.596679688 39.44140625 184.596679688 39.44140625 c 1
 184.596679688 -0.12109375 l 1
 30.0732421875 -0.12109375 l 1
 30.0732421875 38.45703125 l 1
 56.6435546875 55 55.8076171875 111.01953125 55.8076171875 111.01953125 c 1
 55.8076171875 386.63671875 l 1
 57.8466796875 396.19921875 l 1
 61.1513671875 404.28515625 l 1
 88.0810546875 404.28515625 l 1
 92.0888671875 409.83984375 l 1
 74.9326171875 412.37109375 l 1
 58.7607421875 416.30859375 l 1
 58.7607421875 427.41796875 l 1
 53.2060546875 427.41796875 l 1
 53.2060546875 479.30859375 l 1
 49.1982421875 482.33203125 l 1
 49.1982421875 497.44921875 l 1
 30.0732421875 517.13671875 l 1
 30.0732421875 547.75390625 l 1
 30.0732421875 552.32421875 l 1
 233.471679688 552.32421875 l 1
 233.471679688 552.32421875 451.643554688 563 441.588867188 376.03515625 c 0
 432.7265625 211.2265625 255.666992188 226.51171875 255.666992188 226.51171875 c 1
EndSplineSet
Validated: 33
EndChar

StartChar: Q
Encoding: 81 81 23
Width: 570
VWidth: 0
Flags: W
HStem: 7.54688 104.708<219.988 298.906> 437.678 114.945<219.835 354.115>
VStem: 32.2559 119.923<186.993 364.381> 414.268 123.477<162.438 367.925>
LayerCount: 2
Fore
SplineSet
438.075195312 65.18359375 m 1
 491 -10 522.655273438 -28.0322265625 522.655273438 -28.0322265625 c 2
 524.430664062 -35.501953125 l 1
 470.081054688 -49.16015625 l 2
 435.750976562 -49.6181640625 371.733398438 14.2392578125 371.733398438 14.2392578125 c 1
 369.31640625 17.0595703125 l 1
 339 8 318.333984375 7.546875 285 7.546875 c 0
 145.408203125 7.546875 32.255859375 128.888671875 32.255859375 278.584960938 c 0
 32.255859375 428.28125 145.408203125 552.623046875 285 552.623046875 c 0
 424.592773438 552.623046875 537.744140625 428.28125 537.744140625 278.584960938 c 0
 537.744140625 185.90234375 504.317382812 114.041015625 438.075195312 65.18359375 c 1
76.39453125 391.23828125 m 1
 76.39453125 391.23828125 82.791015625 415.018554688 106.671875 419.744140625 c 1
 91.177734375 419.744140625 l 1
 81.7958984375 410.370117188 l 1
 75.04296875 411.055664062 l 1
 70.9921875 403.12890625 l 1
 60.259765625 402.442382812 l 1
 76.39453125 391.23828125 l 1
286.421875 112.254882812 m 0
 293 112.254882812 299.443359375 114.467773438 299.443359375 114.467773438 c 1
 251.026367188 174.880859375 l 1
 346.301757812 168.596679688 l 1
 365 136 388 155 388 155 c 2
 392.263671875 159.6328125 l 1
 412.630859375 180 414.267578125 228 414.267578125 280.337890625 c 0
 414.267578125 364 367 437.677734375 284.928710938 437.677734375 c 0
 203 437.677734375 152.178710938 356 152.178710938 278.508789062 c 0
 152.178710938 186 209 112.254882812 286.421875 112.254882812 c 0
EndSplineSet
Validated: 33
EndChar

StartChar: R
Encoding: 82 82 24
Width: 495
VWidth: 0
Flags: W
HStem: -0.0507812 38.5078<20.5781 38.9867> 461.277 91.1172<150.633 233.273>
VStem: 46.1016 104.531<102.371 301.52 311.996 374.652 417.152 461.277> 317.414 102.008<378.621 444.541>
LayerCount: 2
Fore
SplineSet
367.84375 195.41796875 m 1
 433.5 36 474.4921875 35.94921875 474.4921875 35.94921875 c 1
 474.4921875 -0.05078125 l 1
 385.9921875 -0.05078125 l 1
 341.4140625 2.76171875 273.8828125 104.80078125 273.8828125 104.80078125 c 1
 195.9609375 210.55078125 l 1
 195.9609375 310.53515625 l 1
 229.2734375 310.53515625 l 1
 299.5 310.53515625 317.4140625 378.62109375 317.4140625 378.62109375 c 1
 317.4140625 399.17578125 l 1
 317.4140625 466 233.2734375 461.27734375 233.2734375 461.27734375 c 1
 150.6328125 461.27734375 l 1
 150.6328125 415.71484375 l 1
 150.140625 410.72265625 l 1
 147.609375 415.22265625 l 1
 145.078125 408.68359375 l 1
 144.09375 388.64453125 l 1
 148.1015625 380.13671875 l 1
 150.6328125 374.65234375 l 1
 150.6328125 311.99609375 l 1
 146.625 311.50390625 l 1
 144.65625 307.49609375 l 1
 151.1953125 301.51953125 l 1
 151.1953125 100.51171875 l 2
 151.1953125 32.58984375 174.2578125 37.44140625 174.2578125 37.44140625 c 1
 174.2578125 -0.05078125 l 1
 20.578125 -0.05078125 l 1
 20.578125 38.45703125 l 1
 45.1875 38.45703125 46.1015625 102.37109375 46.1015625 102.37109375 c 1
 46.1015625 387.62109375 l 1
 48.0703125 397.11328125 l 1
 51.3046875 405.12890625 l 1
 78.09375 405.12890625 l 1
 82.1015625 410.61328125 l 1
 65.0859375 413.14453125 l 1
 49.0546875 417.15234375 l 1
 49.0546875 428.19140625 l 1
 43.5703125 428.19140625 l 1
 43.5703125 479.73046875 l 1
 39.5625 482.75390625 l 1
 39.5625 497.80078125 l 1
 20.5078125 517.34765625 l 1
 20.5078125 547.89453125 l 1
 20.5078125 552.39453125 l 1
 262.5 552.39453125 l 1
 262.5 552.39453125 419.421875 553.30859375 419.421875 391.16015625 c 0
 419.421875 250 294.6953125 235.48046875 294.6953125 235.48046875 c 1
 313.5 192 367.84375 195.41796875 367.84375 195.41796875 c 1
EndSplineSet
Validated: 33
EndChar

StartChar: Z
Encoding: 90 90 25
Width: 512
VWidth: 0
Flags: W
HStem: 0.0195312 106.219<198.711 267.758 284.703 360.766> 446.176 106.148<104.641 331.531>
VStem: 426.383 47.5859<105.971 120.27>
LayerCount: 2
Fore
SplineSet
473.96875 552.32421875 m 1
 473.96875 456.83203125 l 1
 198.7109375 106.23828125 l 1
 267.7578125 106.23828125 l 1
 271.34375 96.39453125 l 1
 274.578125 95.33984375 l 1
 274.578125 84.51171875 l 1
 276.96875 81.91015625 l 1
 279.640625 81.41796875 l 1
 278.1640625 77.26953125 l 1
 282.59375 77.76171875 l 1
 282.59375 85.00390625 l 1
 284.703125 90.69921875 l 1
 280.5546875 96.88671875 l 1
 278.4453125 104.62109375 l 1
 360.765625 104.62109375 l 1
 360.765625 104.62109375 426.3828125 99 426.3828125 120.26953125 c 1
 473.96875 140.26953125 l 1
 473.96875 0.01953125 l 1
 48.0859375 0.01953125 l 1
 48.0859375 0.01953125 48.0859375 0.01953125 38.03125 0.01953125 c 1
 38.03125 78.16796875 l 1
 38.03125 84.26953125 l 1
 42.390625 88.41796875 l 1
 331.53125 447.30078125 l 1
 104.640625 446.17578125 l 1
 104.640625 446.17578125 69 446 63.0859375 431.08984375 c 1
 38.03125 411.08984375 l 1
 38.03125 552.32421875 l 1
 473.96875 552.32421875 l 1
EndSplineSet
Validated: 33
EndChar

StartChar: backslash
Encoding: 92 92 26
Width: 396
VWidth: 0
Flags: W
HStem: 533.536 20G<61.2764 106.698>
VStem: 61.2764 272.32
LayerCount: 2
Fore
SplineSet
238.666992188 52.1376953125 m 5
 238.666992188 52.1376953125 152.120117188 461.567382812 61.2763671875 553.536132812 c 5
 61.2763671875 553.536132812 177.635742188 518.098632812 225.307617188 483.083007812 c 5
 225.307617188 483.083007812 349.838867188 3.6923828125 333.596679688 0.2470703125 c 4
 331.276367188 -0.1748046875 238.666992188 52.1376953125 238.666992188 52.1376953125 c 5
EndSplineSet
Validated: 33
EndChar

StartChar: bracketright
Encoding: 93 93 27
Width: 338
VWidth: 0
Flags: W
HStem: -136.617 80.125<37.8281 201.375>
VStem: 201.375 98.7969<-56.4922 -11.9608>
LayerCount: 2
Fore
SplineSet
300.171875 -136.6171875 m 1
 37.828125 -136.6171875 l 1
 37.828125 -56.4921875 l 1
 201.375 -56.4921875 l 1
 201.375 7.2109375 104.6953125 21.2265625 104.6953125 21.2265625 c 1
 242.7890625 62.640625 216.828125 487.5703125 216.828125 487.5703125 c 1
 300.171875 576 l 1
 300.171875 -136.6171875 l 1
EndSplineSet
Validated: 33
EndChar

StartChar: bracketleft
Encoding: 91 91 28
Width: 338
VWidth: 0
Flags: W
HStem: 495.875 80.125<136.625 300.172>
VStem: 37.8281 98.7969<451.344 495.875>
LayerCount: 2
Fore
SplineSet
37.828125 576 m 1
 300.171875 576 l 1
 300.171875 495.875 l 1
 136.625 495.875 l 1
 136.625 432.171875 233.3046875 418.15625 233.3046875 418.15625 c 1
 95.2109375 376.7421875 121.171875 -48.1875 121.171875 -48.1875 c 1
 37.828125 -136.6171875 l 1
 37.828125 576 l 1
EndSplineSet
Validated: 33
EndChar

StartChar: parenright
Encoding: 41 41 29
Width: 320
VWidth: 0
Flags: W
HStem: -133.875 75.875<29.8906 68.4916>
LayerCount: 2
Fore
SplineSet
29.890625 -58 m 5
 29.890625 -133.875 l 5
 290.109375 -133.875 l 5
 290.109375 -133.875 222.890625 -76.3671875 222.890625 -47.9609375 c 6
 222.890625 -46.1640625 l 5
 222.890625 -46.1640625 284.7109375 29.125 284.7109375 218.109375 c 5
 284.7109375 218.109375 288.668945312 442.125 70.3203125 576 c 5
 70.3203125 576 155.03125 430.4921875 163.1171875 308.21875 c 4
 163.1875 308.1484375 212.0703125 15.96875 29.890625 -58 c 5
EndSplineSet
Validated: 41
EndChar

StartChar: parenleft
Encoding: 40 40 30
Width: 320
VWidth: 0
Flags: W
HStem: 497.2 78.9688<196.352 291.906> 576.169 0<28.0938 107.592>
LayerCount: 2
Fore
SplineSet
28.09375 576.168945312 m 1x40
 291.90625 576.168945312 l 1
 291.90625 497.200195312 l 1
 196.3515625 497.200195312 l 1x80
 195.15625 483.911132812 l 1
 237.34375 450.989257812 l 1
 237.34375 450.989257812 46.591796875 128 246.9765625 -136.588867188 c 1
 246.9765625 -136.588867188 -79.408203125 118 93.765625 476.668945312 c 0
 93.80859375 476.758789062 107.591796875 562 28.09375 576.168945312 c 1x40
EndSplineSet
Validated: 33
EndChar

StartChar: dollar
Encoding: 36 36 31
Width: 324
VWidth: 0
Flags: W
HStem: -0.224609 21G<161.227 170.14> 313.057 20G<209.848 219.938> 531.025 20G<198.595 208.331>
VStem: 126.773 0.140625<224.494 249.385>
LayerCount: 2
Fore
SplineSet
96.6796875 255.220703125 m 2
 89.4375 223.259765625 l 1
 117.5625 191.548828125 l 1
 121.921875 195.908203125 l 1
 121.921875 90.197265625 l 1
 15.890625 308.009765625 l 1
 123.609375 549.478515625 l 1
 123.046875 525.431640625 l 1
 130.2890625 513.900390625 132.8203125 507.009765625 132.8203125 507.009765625 c 2
 126.3515625 516.361328125 119.5859375 508.837890625 119.5859375 508.837890625 c 1
 88.90625 396.259765625 l 1
 101.84375 388.947265625 107.71875 369.478515625 108.140625 368.494140625 c 1
 100.8984375 380.728515625 84.6015625 378.025390625 84.6015625 378.025390625 c 1
 74.3203125 327.501953125 l 2
 73.0546875 320.189453125 76.4296875 312.173828125 83.8828125 312.103515625 c 2
 103.0078125 311.892578125 l 1
 132.609375 315.900390625 101.390625 332.494140625 101.390625 332.494140625 c 1
 124.5234375 327.150390625 129.796875 304.298828125 129.796875 304.298828125 c 1
 131.90625 308.587890625 126.3515625 326.166015625 126.2109375 326.658203125 c 1
 135.984375 321.033203125 143.0859375 309.150390625 143.5078125 308.376953125 c 1
 123.328125 344.869140625 130.5703125 364.908203125 130.5703125 364.908203125 c 1
 132 380 161.4375 391.564453125 161.4375 391.564453125 c 1
 183 401 182.59375 415.103515625 182.59375 415.103515625 c 1
 181 432 161.4375 430.462890625 161.4375 430.462890625 c 1
 133.5234375 432.291015625 130.5703125 404.517578125 130.5703125 404.517578125 c 1
 130.5703125 404.517578125 124.984375 417.751953125 124.984375 418.525390625 c 0
 124.984375 419.298828125 129.34375 432.236328125 129.34375 432.236328125 c 1
 128.640625 444.587890625 l 1
 138.5859375 458.001953125 l 1
 133.5234375 481.837890625 144.3515625 491.189453125 144.3515625 491.189453125 c 2
 142.171875 472.416015625 154.296875 462.001953125 154.296875 462.001953125 c 1
 175.953125 454.759765625 189.84375 471.126953125 189.84375 471.126953125 c 1
 190.546875 466.064453125 187.6640625 458.001953125 183.375 455.892578125 c 0
 167.4140625 447.876953125 168.3046875 442.884765625 168.3046875 442.884765625 c 1
 200 436 198.4921875 410.400390625 198.4921875 410.400390625 c 1
 199.1953125 387.337890625 168.1875 375.736328125 161.5078125 372.853515625 c 0
 133.1015625 360.548828125 161.5078125 338.962890625 161.5078125 338.962890625 c 1
 172.8984375 325.251953125 179.71875 303.595703125 179.71875 303.595703125 c 1
 180.421875 317.306640625 196.3125 326.658203125 196.3125 326.658203125 c 2
 184.78125 307.884765625 191.953125 301.416015625 191.953125 301.416015625 c 1
 205.453125 330.244140625 219.9375 333.056640625 219.9375 333.056640625 c 1
 199.7578125 316.462890625 216.4921875 312.244140625 216.4921875 312.244140625 c 1
 235.6171875 312.244140625 l 2
 245.6015625 312.244140625 252.9140625 321.736328125 250.2421875 331.439453125 c 2
 239.1484375 372.736328125 l 2
 233.453125 385.533203125 212.6953125 370.173828125 212.203125 369.611328125 c 1
 222.6796875 390.916015625 231.1953125 399.142578125 231.1953125 399.142578125 c 1
 202.375 509.072265625 l 6
 198.015625 515.541015625 189.84375 505.603515625 189.84375 505.603515625 c 1
 189.84375 515.728515625 198.4921875 526.556640625 198.4921875 526.556640625 c 1
 199.0546875 551.025390625 l 1
 308.109375 305.900390625 l 1
 214.9453125 116.634765625 l 1
 210.5859375 128.869140625 l 1
 206.2265625 125.986328125 l 1
 200.4609375 133.931640625 l 1
 200.4609375 197.947265625 l 1
 208.40625 191.478515625 l 1
 214.171875 196.541015625 l 1
 214.875 202.306640625 l 1
 229.9921875 221.080078125 l 1
 226.40625 232.791015625 l 1
 234.3515625 236.376953125 l 1
 226.40625 247.205078125 l 1
 226.40625 255.150390625 l 1
 202.5703125 250.791015625 196.59375 223.861328125 196.59375 223.861328125 c 1
 196.8046875 247.978515625 l 1
 185.2734375 245.095703125 177.328125 226.322265625 177.328125 226.322265625 c 1
 183.796875 176.541015625 l 1
 163.3125 127.462890625 l 1
 173.2265625 98.634765625 l 1
 151.0078125 63.970703125 l 1
 161.71875 38.603515625 l 1
 183.7265625 50.259765625 l 1
 161.2265625 -0.224609375 l 1
 161.2265625 -0.224609375 132.046875 61.158203125 129.796875 63.970703125 c 0
 131.484375 65.376953125 148.4296875 98.634765625 148.4296875 98.634765625 c 1
 136.1953125 124.580078125 l 1
 151.296875 172.181640625 l 1
 151.2265625 183.009765625 l 2
 152.4921875 229.205078125 126.7734375 249.384765625 126.7734375 249.384765625 c 1
 126.9140625 224.494140625 l 1
 120.65625 254.236328125 97.453125 255.220703125 96.6796875 255.220703125 c 2
EndSplineSet
Validated: 33
EndChar

StartChar: exclam
Encoding: 33 33 32
Width: 160
VWidth: 0
Flags: W
HStem: 0.0332031 102.871<50.5 104.359>
VStem: 28.1484 112.281<427.429 547.609>
LayerCount: 2
Fore
SplineSet
50.5 102.904296875 m 1
 104.359375 102.904296875 l 1
 134.287109375 51.4677734375 l 1
 104.359375 0.033203125 l 1
 50.5 0.033203125 l 1
 19.5703125 52.4677734375 l 1
 50.5 102.904296875 l 1
45.4296875 547 m 6
 140.4296875 560 l 6
 140.4296875 560 132.4296875 531.59765625 131.830078125 525.25 c 6
 131.4296875 521 l 5
 105.546875 174.856445312 l 6
 104.653320312 162.905273438 96.064453125 153.469726562 84.505859375 150.563476562 c 6
 54.4296875 143 l 6
 54.4296875 143 55.5546875 148.158203125 54.4296875 163.342773438 c 6
 28.1484375 523.3046875 l 6
 26.31640625 548.033203125 45.4296875 547 45.4296875 547 c 6
EndSplineSet
Validated: 1
EndChar

StartChar: period
Encoding: 46 46 33
Width: 150
VWidth: 0
Flags: W
HStem: 0.0332031 102.871<51.0703 104.931>
VStem: 20.1416 114.717
LayerCount: 2
Fore
SplineSet
51.0703125 102.904296875 m 5
 104.930664062 102.904296875 l 5
 134.858398438 51.4677734375 l 5
 104.930664062 0.033203125 l 5
 51.0703125 0.033203125 l 5
 20.1416015625 52.4677734375 l 5
 51.0703125 102.904296875 l 5
EndSplineSet
Validated: 1
EndChar

StartChar: comma
Encoding: 44 44 34
Width: 150
VWidth: 0
Flags: W
HStem: -135 238.82
VStem: 20.8613 108.277
LayerCount: 2
Fore
SplineSet
81.0537109375 103.8203125 m 1
 81.0537109375 103.8203125 129.138671875 70 129.138671875 18.9736328125 c 0
 129.138671875 -14.2197265625 83.29296875 -76.8525390625 83.29296875 -76.8525390625 c 2
 70.6689453125 -103.239257812 31.0927734375 -135 31.0927734375 -135 c 1
 95.0927734375 -16 26.9833984375 4.87890625 26.9833984375 4.87890625 c 1
 20.861328125 73.9814453125 l 1
 81.0537109375 103.8203125 l 1
EndSplineSet
Validated: 33
EndChar

StartChar: slash
Encoding: 47 47 35
Width: 322
VWidth: 0
Flags: W
HStem: 533.536 20G<247.469 292.891>
VStem: 30.5703 262.32
LayerCount: 2
Fore
SplineSet
125.5 52.1376953125 m 1
 125.5 52.1376953125 32.890625 -0.1748046875 30.5703125 0.2470703125 c 0
 14.328125 3.6923828125 138.859375 483.083007812 138.859375 483.083007812 c 1
 186.53125 518.098632812 292.890625 553.536132812 292.890625 553.536132812 c 1
 202.046875 461.567382812 125.5 52.1376953125 125.5 52.1376953125 c 1
EndSplineSet
Validated: 33
EndChar

StartChar: question
Encoding: 63 63 36
Width: 302
VWidth: 0
Flags: W
HStem: 0.0332031 102.871<66.4785 120.339> 487.504 67.5312<102.599 139.278>
VStem: 18.7471 264.008
LayerCount: 2
Fore
SplineSet
66.478515625 102.904296875 m 1
 120.338867188 102.904296875 l 1
 150.266601562 51.4677734375 l 1
 120.338867188 0.033203125 l 1
 66.478515625 0.033203125 l 1
 35.5498046875 52.4677734375 l 1
 66.478515625 102.904296875 l 1
151.372070312 555.32421875 m 1
 270.408203125 554 282.754882812 431.04296875 282.754882812 431.04296875 c 1
 289.408203125 348 228.408203125 305 159.208007812 283.48046875 c 0
 114.3046875 269.516601562 119.408203125 148 119.408203125 148 c 1
 71.408203125 135 68.1376953125 161.15234375 68.1376953125 161.15234375 c 1
 12.408203125 341 119.278320312 349.05078125 119.278320312 349.05078125 c 1
 216.408203125 363 203.090820312 423.71484375 203.090820312 423.71484375 c 1
 198.408203125 489 139.278320312 487.50390625 139.278320312 487.50390625 c 1
 69.408203125 487.50390625 40.3486328125 404.63671875 40.3486328125 404.63671875 c 1
 40.3486328125 404.63671875 18.7470703125 511.93359375 18.7470703125 514.53515625 c 0
 18.7470703125 517.13671875 102.598632812 555.03515625 102.598632812 555.03515625 c 1
 151.372070312 555.32421875 l 1
EndSplineSet
Validated: 33
EndChar

StartChar: asterisk
Encoding: 42 42 37
Width: 185
VWidth: 0
Flags: W
HStem: 410.534 162.712
VStem: 13.1797 156.393
LayerCount: 2
Fore
SplineSet
32.9296875 544.060546875 m 5
 32.9296875 544.060546875 57.09765625 544.5703125 64.943359375 538.873046875 c 4
 80.6796875 527.4453125 97.70703125 491.401367188 97.70703125 491.401367188 c 6
 102.60546875 484.307617188 95.154296875 471.489257812 95.154296875 471.489257812 c 5
 76.904296875 519.350585938 38.875 506.837890625 38.875 506.837890625 c 5
 28.8828125 521.693359375 l 5
 32.9296875 544.060546875 l 5
85.3125 488.229492188 m 1030
13.1796875 474.030273438 m 5
 13.1796875 474.030273438 28.7109375 492.552734375 38.1640625 494.70703125 c 4
 57.126953125 499.024414062 95.466796875 488.102539062 95.466796875 488.102539062 c 6
 104.03125 487.118164062 108.771484375 473.0703125 108.771484375 473.0703125 c 5
 60.732421875 490.8515625 45.107421875 453.994140625 45.107421875 453.994140625 c 5
 27.34765625 456.255859375 l 5
 13.1796875 474.030273438 l 5
89.69140625 476.686523438 m 1030
78.73046875 410.534179688 m 5
 78.73046875 410.534179688 66.095703125 431.141601562 67.056640625 440.790039062 c 4
 68.984375 460.142578125 90.087890625 497.309570312 90.087890625 497.309570312 c 6
 93.7421875 505.116210938 108.568359375 505.153320312 108.568359375 505.153320312 c 5
 76.451171875 465.24609375 107.869140625 434.447265625 107.869140625 434.447265625 c 5
 100.083984375 418.32421875 l 5
 78.73046875 410.534179688 l 5
99.080078125 488.208007812 m 1030
169.572265625 449.313476562 m 5
 169.572265625 449.313476562 148.96484375 436.6796875 139.31640625 437.641601562 c 4
 119.96484375 439.568359375 98.490234375 472.084960938 98.490234375 472.084960938 c 6
 90.68359375 475.73828125 90.646484375 490.564453125 90.646484375 490.564453125 c 5
 130.552734375 458.44921875 145.66015625 478.452148438 145.66015625 478.452148438 c 5
 161.783203125 470.666992188 l 5
 169.572265625 449.313476562 l 5
107.591796875 481.077148438 m 1030
171.8203125 528.669921875 m 5
 171.8203125 528.669921875 165.08203125 505.388671875 157.2734375 499.624023438 c 4
 141.6171875 488.060546875 103.41015625 482.788085938 103.41015625 482.788085938 c 6
 95.146484375 480.270507812 85.091796875 491.317382812 85.091796875 491.317382812 c 5
 136.4140625 494.149414062 135.80078125 534.362304688 135.80078125 534.362304688 c 5
 153.025390625 539.3828125 l 5
 171.8203125 528.669921875 l 5
110.193359375 573.24609375 m 5
 110.193359375 573.24609375 124.560546875 553.727539062 124.380859375 544.024414062 c 4
 124.021484375 524.563476562 104.07421875 495.6171875 104.07421875 495.6171875 c 6
 101.041015625 487.530273438 82.681640625 481.751953125 82.681640625 481.751953125 c 5
 111.681640625 524.190429688 82.880859375 547.006835938 82.880859375 547.006835938 c 5
 89.384765625 563.727539062 l 5
 110.193359375 573.24609375 l 5
EndSplineSet
Validated: 37
EndChar

StartChar: bar
Encoding: 124 124 38
Width: 180
VWidth: 0
Flags: W
VStem: 41 98<251.504 532.617> 55.4141 83.5859<-68.1328 233.653>
LayerCount: 2
Fore
SplineSet
55.4140625 -68.1328125 m 5x40
 41 553.2890625 l 5
 60.546875 572.484375 l 5
 139 532.6171875 l 5x80
 139 -140.484375 l 5
 71.3046875 -111.796875 l 5
 55.4140625 -68.1328125 l 5x40
EndSplineSet
Validated: 1
EndChar

StartChar: percent
Encoding: 37 37 39
Width: 720
VWidth: 0
HStem: 61.8779 68.8359<454.564 534.805> 233.651 67.2891<455.191 534.645> 276.331 68.9062<204.804 288.912> 450.175 65.2188<205.369 287.175> 531.604 20G<555.059 607.547>
VStem: 124.594 68.375<357.272 437.477> 297.391 66.2656<353.892 439.459> 373.992 71.3047<140.042 223.32> 543.719 69.3359<139.938 223.606>
LayerCount: 2
Fore
SplineSet
607.546875 551.604492188 m 1xbf80
 502.5703125 463.151367188 241.40625 10.4169921875 241.40625 10.4169921875 c 1
 241.40625 10.4169921875 150.7109375 -0.5595703125 148.4609375 0.1435546875 c 0
 132.921875 4.8544921875 431.0390625 447.760742188 431.0390625 447.760742188 c 2
 433.7109375 449.448242188 436.5234375 451.065429688 439.3359375 452.752929688 c 1
 430.7578125 450.081054688 425.90625 448.815429688 425.90625 448.815429688 c 2
 375.7734375 434.893554688 361.671875 464.823242188 340.4375 468.057617188 c 1
 354.8515625 452.659179688 356.90625 443.463867188 360.703125 422.229492188 c 0
 362.671875 413.791992188 363.65625 404.932617188 363.65625 395.862304688 c 0
 363.65625 329.838867188 310.1484375 276.331054688 244.125 276.331054688 c 0
 178.1015625 276.331054688 124.59375 329.838867188 124.59375 395.862304688 c 0
 124.59375 461.885742188 178.1015625 515.393554688 244.125 515.393554688 c 0
 249.890625 515.393554688 255.65625 514.971679688 261.2109375 514.198242188 c 0
 270.984375 512.932617188 280.3359375 510.541992188 289.125 507.166992188 c 0
 339.609375 492.260742188 527.8828125 528.190429688 581.8828125 541.268554688 c 0
 597.3515625 547.737304688 607.546875 551.604492188 607.546875 551.604492188 c 1xbf80
244.125 450.174804688 m 0
 225 450.174804688 192.96875 429 192.96875 395.862304688 c 0
 192.96875 364 227 345.237304688 244.828125 345.237304688 c 0
 268 345.237304688 297.390625 356 297.390625 396.706054688 c 0
 297.390625 434 265 450.174804688 244.125 450.174804688 c 0
493.5234375 300.940429688 m 0xdf80
 559.546875 300.940429688 613.0546875 247.432617188 613.0546875 181.409179688 c 0
 613.0546875 115.385742188 559.546875 61.8779296875 493.5234375 61.8779296875 c 0
 427.5 61.8779296875 373.9921875 115.385742188 373.9921875 181.409179688 c 0
 373.9921875 247.432617188 427.5 300.940429688 493.5234375 300.940429688 c 0xdf80
494.15625 130.713867188 m 0
 523 130.713867188 543.71875 154 543.71875 182.182617188 c 0
 543.71875 210 522 233.651367188 493.453125 233.651367188 c 0
 468 233.651367188 445.296875 208 445.296875 181.338867188 c 0
 445.296875 150 471 130.713867188 494.15625 130.713867188 c 0
EndSplineSet
Validated: 33
EndChar

StartChar: hyphen
Encoding: 45 45 40
Width: 440
VWidth: 0
Flags: W
HStem: 199.398 87.2812
LayerCount: 2
Fore
SplineSet
68.4560546875 205.8203125 m 5
 68.4560546875 205.8203125 49.0107421875 277.9765625 48.7998046875 279.8046875 c 4
 47.4638671875 292.6015625 381.760742188 286.6796875 381.760742188 286.6796875 c 5
 397.711914062 261 388.627929688 199.3984375 388.627929688 199.3984375 c 5
 301 223 68.4560546875 205.8203125 68.4560546875 205.8203125 c 5
EndSplineSet
Validated: 33
EndChar

StartChar: quotedbl
Encoding: 34 34 41
Width: 230
VWidth: 0
Flags: W
HStem: 366.4 191.056
VStem: 11.6895 206.621
LayerCount: 2
Fore
SplineSet
59.8427734375 557.456054688 m 1
 59.8427734375 557.456054688 98.310546875 530.400390625 98.310546875 489.579101562 c 0
 98.310546875 463.024414062 61.634765625 412.91796875 61.634765625 412.91796875 c 2
 51.53515625 391.80859375 19.8740234375 366.400390625 19.8740234375 366.400390625 c 1
 71.07421875 461.599609375 16.5869140625 478.302734375 16.5869140625 478.302734375 c 1
 11.689453125 533.584960938 l 1
 59.8427734375 557.456054688 l 1
179.842773438 557.456054688 m 1
 179.842773438 557.456054688 218.310546875 530.400390625 218.310546875 489.579101562 c 0
 218.310546875 463.024414062 181.634765625 412.91796875 181.634765625 412.91796875 c 2
 171.53515625 391.80859375 139.874023438 366.400390625 139.874023438 366.400390625 c 1
 191.07421875 461.599609375 136.586914062 478.302734375 136.586914062 478.302734375 c 1
 131.689453125 533.584960938 l 1
 179.842773438 557.456054688 l 1
EndSplineSet
Validated: 33
EndChar

StartChar: quotesingle
Encoding: 39 39 42
Width: 133
VWidth: 0
Flags: W
HStem: 325 238.82
VStem: 12.3613 108.277
LayerCount: 2
Fore
SplineSet
72.5537109375 563.8203125 m 1
 72.5537109375 563.8203125 120.638671875 530 120.638671875 478.973632812 c 0
 120.638671875 445.780273438 74.79296875 383.147460938 74.79296875 383.147460938 c 2
 62.1689453125 356.760742188 22.5927734375 325 22.5927734375 325 c 1
 86.5927734375 444 18.4833984375 464.87890625 18.4833984375 464.87890625 c 1
 12.361328125 533.981445312 l 1
 72.5537109375 563.8203125 l 1
EndSplineSet
Validated: 33
EndChar

StartChar: colon
Encoding: 58 58 43
Width: 150
VWidth: 0
Flags: W
HStem: 0.0332031 102.871<48.5703 102.431> 217.033 102.871<48.5703 102.431>
VStem: 17.6416 114.717
LayerCount: 2
Fore
SplineSet
48.5703125 319.904296875 m 5
 102.430664062 319.904296875 l 5
 132.358398438 268.467773438 l 5
 102.430664062 217.033203125 l 5
 48.5703125 217.033203125 l 5
 17.6416015625 269.467773438 l 5
 48.5703125 319.904296875 l 5
48.5703125 102.904296875 m 5
 102.430664062 102.904296875 l 5
 132.358398438 51.4677734375 l 5
 102.430664062 0.033203125 l 5
 48.5703125 0.033203125 l 5
 17.6416015625 52.4677734375 l 5
 48.5703125 102.904296875 l 5
EndSplineSet
Validated: 1
EndChar

StartChar: semicolon
Encoding: 59 59 44
Width: 150
VWidth: 0
Flags: W
HStem: 217.033 102.871<48.5703 102.431>
VStem: 17.7686 114.59
LayerCount: 2
Fore
SplineSet
77.9609375 103.8203125 m 5
 77.9609375 103.8203125 126.045898438 70 126.045898438 18.9736328125 c 4
 126.045898438 -14.2197265625 80.2001953125 -76.8525390625 80.2001953125 -76.8525390625 c 6
 67.576171875 -103.239257812 28 -135 28 -135 c 5
 92 -16 23.890625 4.87890625 23.890625 4.87890625 c 5
 17.7685546875 73.9814453125 l 5
 77.9609375 103.8203125 l 5
48.5703125 319.904296875 m 1
 102.430664062 319.904296875 l 1
 132.358398438 268.467773438 l 1
 102.430664062 217.033203125 l 1
 48.5703125 217.033203125 l 1
 17.6416015625 269.467773438 l 1
 48.5703125 319.904296875 l 1
EndSplineSet
Validated: 33
EndChar

StartChar: one
Encoding: 49 49 45
Width: 300
VWidth: 0
Flags: W
HStem: 0.523438 56.1963<36.5254 95.454 227.144 281.993> 455.336 55.5615<71.6475 105.638>
VStem: 113.697 95.5137<73.6698 449.99>
LayerCount: 2
Fore
SplineSet
38.3779296875 510.897460938 m 6
 57.208984375 510.897460938 l 6
 98.0869140625 510.897460938 136.234375 524.361328125 171.551757812 551.19140625 c 5
 209.2109375 551.19140625 l 5
 209.2109375 151.649414062 l 6
 209.2109375 107.2578125 226.186523438 56.7197265625 260.040039062 56.7197265625 c 6
 281.993164062 56.7197265625 l 5
 281.993164062 0.5234375 l 5
 36.525390625 0.5234375 l 5
 36.525390625 56.7197265625 l 5
 61.98828125 56.7197265625 l 6
 96.4287109375 56.7197265625 113.697265625 107.2578125 113.697265625 151.649414062 c 6
 113.697265625 387.822265625 l 6
 113.697265625 432.797851562 99.6484375 455.3359375 71.6474609375 455.3359375 c 5
 71.6474609375 455.3359375 26.3779296875 454.165039062 26.3779296875 436.603515625 c 6
 26.3779296875 436.603515625 -8.2568359375 510.897460938 38.3779296875 510.897460938 c 6
EndSplineSet
Validated: 33
EndChar

StartChar: two
Encoding: 50 50 46
Width: 410
VWidth: 0
Flags: W
HStem: 0.834961 89.7568<196.13 289.857> 454.038 96.1416<148.259 247.779>
VStem: 268.746 96.4209<310.546 424.608>
LayerCount: 2
Fore
SplineSet
40.4189453125 410.282226562 m 0
 54.9051045402 475.932994413 125.360351562 550.1796875 211.334960938 550.1796875 c 0
 254.041015625 550.1796875 290.73828125 535.7265625 321.334960938 506.724609375 c 0
 350.526367188 478.09765625 365.166992188 437.407570487 365.166992188 395.453125 c 0
 365.166992188 266 303.044921875 203.965820312 279.938476562 180.033203125 c 2
 237.981445312 136.573242188 l 2
 202.22265625 102.221679688 220.908203125 118.185546875 196.129882812 90.591796875 c 1
 250.83984375 90.591796875 l 2
 272.802734375 90.591796875 279.654296875 94.5322265625 290.35546875 102.41796875 c 0
 299.927734375 110.302734375 310.439453125 127.5703125 321.984375 154.321289062 c 1
 389.6640625 154.321289062 l 1
 347.522460938 0.8349609375 l 1
 20.3359375 0.8349609375 l 1
 20.3359375 59.5244140625 l 1
 36.666015625 77.826171875 79.748046875 124.674804688 130.8984375 175.920898438 c 0
 160.93359375 205.954101562 181.48828125 228.48046875 211.334960938 262.26953125 c 0
 226.258789062 278.599609375 237.303420373 292.726270977 245.030273438 304.411132812 c 0
 256 321 266 344 268.74609375 359.872070312 c 0
 273.018554688 384.565429688 269.624023438 406.987304688 254.419921875 425.477539062 c 0
 240.057617188 443.215820312 222 454 200.606445312 454.038085938 c 1
 200.606445312 454.038085938 146 452 119.182617188 396.537109375 c 1
 119.182617188 396.537109375 104 365 111.998046875 354.010742188 c 0
 118.369043699 345.257039226 28 354 40.4189453125 410.282226562 c 0
EndSplineSet
Validated: 33
EndChar

StartChar: three
Encoding: 51 51 47
Width: 420
VWidth: 0
Flags: W
LayerCount: 2
Fore
SplineSet
119.87109375 306.301757812 m 1
 193 299 258.036132812 364.85546875 255.24609375 414.674804688 c 0
 252.456054688 464.495117188 203.931640625 465.056640625 159.890625 443.036132812 c 0
 115.849609375 421.014648438 88 403 81.4462890625 362.227539062 c 0
 79.3298580249 349.060632156 22 398 43.248046875 471.776367188 c 1
 43.248046875 471.776367188 75.005859375 463.870117188 109.08203125 500.23828125 c 0
 152.42578125 546.272460938 189.021484375 550.91796875 234.556640625 550.91796875 c 0
 280.091796875 550.91796875 353.625976562 524.513671875 358.010742188 456.858398438 c 0
 362.39453125 389.202148438 286.868164062 337.490234375 286.868164062 337.490234375 c 1
 286.868164062 337.490234375 416.798828125 323.04296875 397.666992188 183.4453125 c 0
 378.536132812 43.8505859375 256.676757812 -6.552734375 161.819335938 0.8203125 c 0
 66.9619140625 8.193359375 31.98828125 32.5048828125 21.8251953125 42.669921875 c 0
 11.662109375 52.8330078125 64 85 58.09375 146.565429688 c 1
 58.09375 146.565429688 107.1171875 87.34375 205.860351562 105.37890625 c 0
 255.980651505 114.533235558 293.045898438 134.622070312 293.045898438 184.840820312 c 0
 293.045898438 235.059570312 235.053710938 263.918945312 185.931640625 246.979492188 c 0
 117.379882812 223.366210938 119.87109375 306.301757812 119.87109375 306.301757812 c 1
EndSplineSet
Validated: 33
EndChar

StartChar: four
Encoding: 52 52 48
Width: 475
VWidth: 0
Flags: W
HStem: 0.0703125 50.3545<203.323 252.925 382.105 435.439>
VStem: 268.029 101.515<243.045 393.442>
LayerCount: 2
Fore
SplineSet
438.126953125 152.947265625 m 0
 449.10546875 114.87890625 404.389648438 152.947265625 369.342773438 152.947265625 c 1
 369.342773438 152.947265625 354.4375 50.4248046875 424.935546875 50.4248046875 c 0
 441.048828125 50.4248046875 439.4375 26.2548828125 439.4375 0.0703125 c 1
 196.524414062 0.0703125 l 1
 196.524414062 0.0703125 193.301757812 48.4111328125 211.4296875 48.4111328125 c 0
 229.557617188 48.4111328125 268.029296875 50.4248046875 268.029296875 152.947265625 c 1
 268.029296875 152.947265625 61.3720703125 152.947265625 37.201171875 152.947265625 c 0
 13.03125 152.947265625 16.052734375 167.249023438 22.0947265625 178.326171875 c 2
 22.0947265625 178.326171875 148.788085938 364.438476562 182.224609375 410.966796875 c 0
 238.62109375 489.520507812 267.927734375 533.732421875 285.955078125 545.91796875 c 0
 309.72265625 561.931640625 369.543945312 558.002929688 369.543945312 558.002929688 c 1
 369.543945312 450.243164062 369.543945312 288.099609375 369.543945312 255.873046875 c 0
 369.543945312 223.646484375 382.63671875 221.631835938 416.87890625 283.065429688 c 1
 457.162109375 283.065429688 l 1
 457.162109375 283.065429688 427.151367188 191.015625 438.126953125 152.947265625 c 0
268.029296875 232.10546875 m 1
 268.029296875 393.442382812 l 1
 160.471679688 232.10546875 l 2
 160.471679688 233.515625 268.029296875 232.10546875 268.029296875 232.10546875 c 1
EndSplineSet
Validated: 37
EndChar

StartChar: five
Encoding: 53 53 49
Width: 452
VWidth: 0
Flags: W
HStem: 441.766 101.441<177.978 408.81>
VStem: 302.607 113.466<142.294 261.888>
LayerCount: 2
Fore
SplineSet
37.77734375 112.919921875 m 1
 105.741210938 90.7529296875 302.607421875 76.10546875 302.607421875 203.44140625 c 0
 302.607421875 345.5234375 101.73828125 243.890625 101.73828125 243.890625 c 5
 71.662109375 243.890625 49.203125 268.986328125 49.203125 268.986328125 c 5
 51.1552734375 368.58984375 71.759765625 543.890625 124.686523438 543.890625 c 0
 149.390625 543.890625 241.181640625 543.20703125 304.362304688 543.20703125 c 0
 367.541992188 543.20703125 359.631835938 551.01953125 370.176757812 551.01953125 c 0
 380.723632812 551.01953125 431.990234375 551.01953125 431.990234375 551.01953125 c 1
 431.990234375 551.01953125 411.190429688 435.90625 389.708007812 435.22265625 c 0
 368.224609375 434.637695312 233.9375 441.765625 202.689453125 441.765625 c 0
 171.44140625 441.765625 163.043945312 363.786132812 163.043945312 363.786132812 c 5
 195.549804688 384 263.549804688 377 270.555664062 375.89453125 c 4
 334.216796875 365.849609375 414.803710938 330.875 416.073242188 196.118164062 c 0
 417.538085938 36.4599609375 269.891601562 8.04296875 240.302734375 4.236328125 c 0
 137.770507812 -8.849609375 22.5439453125 8.1416015625 20.201171875 30.40625 c 0
 17.8564453125 52.669921875 37.77734375 112.919921875 37.77734375 112.919921875 c 1
EndSplineSet
Validated: 33
EndChar

StartChar: six
Encoding: 54 54 50
Width: 370
VWidth: 0
Flags: W
HStem: 0.898438 21G<74.75 268.771>
LayerCount: 2
Fore
SplineSet
349.904296875 237.325195312 m 0
 362.415039062 161.813476562 357.609375 0.8984375 179.93359375 0.8984375 c 0
 -30.43359375 0.8984375 12.0907813854 267.919970912 44.9013671875 397.46875 c 0
 81 540 208.816753246 544.611573793 227.739257812 544.440429688 c 0
 387 543 323.37109375 403.0625 323.37109375 403.0625 c 1
 323.37109375 403.0625 285 495 184.794921875 435.5703125 c 4
 111.466460721 392.080625023 121.65625 315.151367188 121.65625 315.151367188 c 1
 265.76953125 415.01953125 337.870117188 309.959960938 349.904296875 237.325195312 c 0
266.0703125 156.588867188 m 0
 271.47265625 244.62109375 195.73046875 316.139648438 120.37890625 216.60546875 c 1
 120.37890625 216.60546875 108.134765625 132.0703125 143.196289062 106.580078125 c 0
 178.163085938 81.08984375 261.901367188 87.603515625 266.0703125 156.588867188 c 0
EndSplineSet
Validated: 33
EndChar

StartChar: seven
Encoding: 55 55 51
Width: 385
VWidth: 0
Flags: W
HStem: 462.321 88.4893<84.9953 258.27> 539.205 20G<38.354 77.0732>
VStem: 83.7773 132.422<1.03418 148.701>
LayerCount: 2
Fore
SplineSet
16.3935546875 413.909179688 m 2xa0
 41.859375 559.205078125 l 1
 71.6162109375 559.205078125 l 1x60
 82.5302734375 553.608398438 100.345703125 550.810546875 125.251953125 550.810546875 c 2
 369.239257812 550.810546875 l 1
 369.239257812 490.771484375 l 1
 360.84375 478.458007812 350.396484375 459.895507812 337.803710938 435.083007812 c 0
 314.016601562 388.443359375 281.49609375 323.4609375 261.44140625 261.522460938 c 0
 231.87109375 170.202148438 216.759765625 70.62109375 216.19921875 1.0341796875 c 1
 83.77734375 1.0341796875 l 1
 83.77734375 16.892578125 l 2
 83.77734375 64.0908203125 98.607421875 142.124023438 128.177734375 212.831054688 c 0
 172.298828125 318.703125 223.942382812 410.737304688 262 467.73046875 c 2
 258.26953125 462.321289062 l 1
 132.807617188 462.321289062 l 2
 110.98046875 462.321289062 93.2568359375 459.616210938 84.58203125 449.354492188 c 0
 63.6865234375 424.35546875 39.4345703125 386.110351562 59.9560546875 373.051757812 c 1
 59.9560546875 373.051757812 9.583984375 371.186523438 16.3935546875 413.909179688 c 2xa0
EndSplineSet
Validated: 33
EndChar

StartChar: nine
Encoding: 57 57 52
Width: 408
VWidth: 0
Flags: W
LayerCount: 2
Fore
SplineSet
89.6025390625 0.2646484375 m 0
 -34.0986328125 -0.453125 54.685546875 71.2412109375 43.6640625 112.44140625 c 0
 35.3212890625 143.856445312 81.4658203125 137.8828125 89.705078125 130.259765625 c 0
 97.9453125 122.637695312 145.918945312 96.3779296875 219.940429688 129.2421875 c 0
 273.067382812 152.830078125 272.985351562 226.877929688 272.985351562 226.877929688 c 1
 112.51171875 164.459960938 27.64453125 278.685546875 21.5751953125 336.147460938 c 0
 10.3271484375 442.650390625 51.52734375 541.23046875 187.920898438 551.6328125 c 0
 370.006835938 565.520507812 421.233398438 365.265625 368.595703125 149.717773438 c 0
 328.126953125 -16 178.3671875 0.7802734375 89.6025390625 0.2646484375 c 0
125.193359375 392.807617188 m 0
 125.193359375 296.811523438 201.400390625 300.120117188 271.955078125 340.290039062 c 1
 271.955078125 340.290039062 283.698242188 409.91796875 245.587890625 437.625 c 0
 207.580078125 465.33203125 125.193359375 453.165039062 125.193359375 392.807617188 c 0
EndSplineSet
Validated: 33
EndChar

StartChar: eight
Encoding: 56 56 53
Width: 422
VWidth: 0
Flags: W
HStem: 0.320312 87.8984<138.468 288.3> 480.729 70.915<146.638 272.22>
VStem: 17.8223 93.2607<115.134 212.079> 39.5723 85.5156<388.958 459.429> 301.084 79.5537<365.623 451.831> 315.583 88.5947<112.797 188.709>
LayerCount: 2
Fore
SplineSet
111.87890625 290.830078125 m 1xe4
 76.7177734375 314.865234375 73.341796875 324.499023438 61.9208984375 339.6953125 c 0
 47.021484375 359.26171875 39.572265625 381.807617188 39.572265625 407.333007812 c 0
 39.572265625 450.337890625 57.84765625 485.696289062 94.3984375 513.504882812 c 0
 128.068359375 538.932617188 167.397460938 551.64453125 212.489257812 551.64453125 c 0
 254.600585938 551.64453125 291.9453125 540.421875 324.422851562 517.875976562 c 0
 361.8671875 492.748046875 380.637695312 459.674804688 380.637695312 418.655273438 c 0xd8
 380.637695312 368.59765625 371.500976562 330.756835938 313.596679688 304.93359375 c 1
 380.637695312 272.45703125 404.177734375 222.59765625 404.177734375 155.258789062 c 0
 404.177734375 106.989257812 375.375 68.353515625 337.631835938 39.3525390625 c 0
 303.666015625 13.330078125 261.454101562 0.3203125 210.80078125 0.3203125 c 0
 163.127929688 0.3203125 122.008789062 12.3369140625 87.4453125 36.2734375 c 0
 47.6181640625 63.7841796875 17.822265625 100.235351562 17.822265625 145.525390625 c 0
 17.822265625 190.616210938 29.14453125 237.6953125 71.5546875 266.89453125 c 0
 82.380859375 274.641601562 95.787109375 282.586914062 111.87890625 290.830078125 c 1xe4
180.905273438 242.759765625 m 1
 134.423828125 221.405273438 111.083007812 197.072265625 111.083007812 170.752929688 c 0
 111.083007812 138.573242188 121.21484375 125.165039062 141.375 106.790039062 c 0
 160.942382812 87.7216796875 182.09765625 83.84765625 226.791015625 88.21875 c 0
 254.205078125 90.8984375 264.434570312 93.7802734375 287.4765625 108.578125 c 0
 307.439453125 121.390625 315.583007812 133.5078125 315.583007812 150.98828125 c 0xe4
 315.583007812 181.08203125 288.370117188 195.98046875 233.943359375 221.704101562 c 2
 180.905273438 242.759765625 l 1
240.995117188 339.89453125 m 1
 281.119140625 357.772460938 301.083984375 386.7734375 301.083984375 404.252929688 c 0
 301.083984375 430.573242188 292.044921875 441.598632812 274.068359375 457.290039062 c 0
 256.08984375 472.982421875 233.943359375 480.729492188 207.622070312 480.729492188 c 0
 185.970703125 480.729492188 167.198242188 474.87109375 151.407226562 463.151367188 c 0
 133.829101562 450.537109375 125.087890625 432.163085938 125.087890625 422.131835938 c 0xd8
 125.087890625 406.736328125 137.702148438 393.825195312 162.829101562 377.436523438 c 0
 167.497070312 374.259765625 190.73828125 362.837890625 232.651367188 343.171875 c 2
 240.995117188 339.89453125 l 1
EndSplineSet
Validated: 33
EndChar

StartChar: asciitilde
Encoding: 126 126 54
Width: 648
VWidth: 0
Flags: W
LayerCount: 2
Fore
SplineSet
564.75 312.9296875 m 4
 396.84375 216.390625 396 153 275.296875 214.5859375 c 4
 161.813476562 272.48828125 82.4765625 210.5234375 83.25 210.5234375 c 4
 84.0234375 210.5234375 83.25 289.875 83.25 289.875 c 5
 83.25 289.875 150.084960938 353.900390625 245.296875 315.453125 c 4
 343 276 378.2109375 242.828125 564.75 312.9296875 c 4
EndSplineSet
Validated: 37
EndChar

StartChar: numbersign
Encoding: 35 35 56
Width: 515
VWidth: 0
Flags: W
HStem: 129.928 77.7367<34.4741 80.5271 173.462 291.268 383.452 484.261> 305.82 73.9844<39.1602 110.512> 310.819 77.1072<34.0478 111.064 211.374 321.598 421.248 484.243>
LayerCount: 2
Fore
SplineSet
382.407226562 524.090820312 m 1xa0
 463.756835938 531.732421875 l 1
 463.756835938 531.732421875 445.353515625 495.857421875 442.83203125 487.51953125 c 2
 441.145507812 481.934570312 l 1
 421.247575475 387.325239632 l 1
 459.420419902 386.996513418 484.260742188 386.6796875 484.260742188 386.6796875 c 1
 500.211914062 361 491.127929688 299.3984375 491.127929688 299.3984375 c 1
 472.628054406 304.38116349 441.87489398 307.54622788 404.86679644 309.439029435 c 1
 383.451934337 207.617104635 l 1
 442.208558445 207.216042124 484.260742188 206.6796875 484.260742188 206.6796875 c 1
 500.211914062 181 491.127929688 119.3984375 491.127929688 119.3984375 c 1
 466.662493548 125.987917843 420.767121938 129.398465325 367.315254376 130.891520053 c 1
 342.596679688 13.361328125 l 2
 338.165039062 -2.404296875 324.108398438 -12.7158203125 307.840820312 -13.48046875 c 2
 265.512695312 -15.470703125 l 1
 265.512695312 -15.470703125 268.415039062 -8.8671875 271.018554688 11.775390625 c 2
 291.268243721 131.857395056 l 1
 244.950883622 131.868668947 197.809178166 131.0052758 157.112651098 129.928195813 c 1
 132.596679688 13.361328125 l 2
 128.165039062 -2.404296875 114.108398438 -12.7158203125 97.8408203125 -13.48046875 c 2
 55.5126953125 -15.470703125 l 1
 55.5126953125 -15.470703125 58.4150390625 -8.8671875 61.0185546875 11.775390625 c 2
 80.5271201733 127.462483069 l 1
 55.9299998542 126.529875305 40.9560546875 125.8203125 40.9560546875 125.8203125 c 2
 40.9560546875 125.8203125 21.5107421875 197.9765625 21.2998046875 199.8046875 c 0
 20.9639035547 203.022266772 50.0650488163 205.056457122 93.8214822058 206.298935218 c 1
 111.064259761 308.549754347 l 1
 68.8635294316 307.142749962 40.9560546875 305.8203125 40.9560546875 305.8203125 c 2
 40.9560546875 305.8203125 21.5107421875 377.9765625 21.2998046875 379.8046875 c 0xc0
 20.8908600682 383.721946485 64.1134303374 385.885189435 124.293697394 387.001200485 c 1
 142.848632812 497.033203125 l 2
 147.087890625 530.6484375 172.407226562 524.090820312 172.407226562 524.090820312 c 1
 253.756835938 531.732421875 l 1
 253.756835938 531.732421875 235.353515625 495.857421875 232.83203125 487.51953125 c 2
 231.145507812 481.934570312 l 1
 211.374055829 387.92661979 l 1
 252.398089084 388.120659679 295.215515353 388.061483822 334.443866467 387.891713087 c 1
 352.848632812 497.033203125 l 2
 357.087890625 530.6484375 382.407226562 524.090820312 382.407226562 524.090820312 c 1xa0
195.157125428 310.819465895 m 1xa0
 173.461976243 207.664851202 l 1
 215.233855649 208.054187936 260.925572089 208.108090603 304.107816816 207.996918521 c 1
 321.598243228 311.716311866 l 1
 279.612667138 312.10987776 235.574732147 311.638999734 195.157125428 310.819465895 c 1xa0
EndSplineSet
Validated: 33
EndChar

StartChar: braceleft
Encoding: 123 123 57
Width: 248
VWidth: 0
Flags: W
VStem: 20.8193 206.258
LayerCount: 2
Fore
SplineSet
227.077148438 469.172851562 m 1
 228.459960938 472 215.459960938 480 215.459960938 480 c 0
 212.77734375 481.341796875 184.772460938 373.360351562 184.772460938 373.360351562 c 0
 170.545898438 318.399414062 l 1
 187.459960938 299 187.967773438 275.821289062 188.600585938 274.274414062 c 1
 179.459960938 299 161.256835938 290.204101562 161.256835938 290.204101562 c 1
 137.952148438 220.219726562 l 2
 136.264648438 208.758789062 167.499023438 147.508789062 177.342773438 147.368164062 c 1
 177.850585938 83.2978515625 l 1
 204.975585938 23.7275390625 l 1
 225.670898438 38.4775390625 l 1
 205.670898438 -135.327148438 l 1
 20.8193359375 235.383789062 l 1
 215.780273438 575.719726562 l 1
 227.077148438 469.172851562 l 1
EndSplineSet
Validated: 37
EndChar

StartChar: braceright
Encoding: 125 125 58
Width: 248
VWidth: 0
Flags: W
VStem: 20.9229 11.6172<476.801 480>
LayerCount: 2
Fore
SplineSet
20.9228515625 469.172851562 m 1
 19.5400390625 472 32.5400390625 480 32.5400390625 480 c 0
 35.22265625 481.341796875 63.2275390625 373.360351562 63.2275390625 373.360351562 c 0
 77.4541015625 318.399414062 l 1
 60.5400390625 299 60.0322265625 275.821289062 59.3994140625 274.274414062 c 1
 68.5400390625 299 86.7431640625 290.204101562 86.7431640625 290.204101562 c 1
 110.047851562 220.219726562 l 2
 111.735351562 208.758789062 80.5009765625 147.508789062 70.6572265625 147.368164062 c 1
 70.1494140625 83.2978515625 l 1
 43.0244140625 23.7275390625 l 1
 22.3291015625 38.4775390625 l 1
 42.3291015625 -135.327148438 l 1
 227.180664062 235.383789062 l 1
 32.2197265625 575.719726562 l 1
 20.9228515625 469.172851562 l 1
EndSplineSet
Validated: 37
EndChar

StartChar: underscore
Encoding: 95 95 59
Width: 741
VWidth: 0
Flags: W
HStem: -139.919 138.133
LayerCount: 2
Fore
SplineSet
102.59765625 -139.918945312 m 1
 102.59765625 -139.918945312 12.03515625 -36.8720703125 11.68359375 -33.3564453125 c 0
 8.58984375 -9.3798828125 729.92578125 -1.7861328125 729.92578125 -1.7861328125 c 1
 684.92578125 -75.8251953125 684.92578125 -140.825195312 684.92578125 -140.825195312 c 1
 354 -106 102.59765625 -139.918945312 102.59765625 -139.918945312 c 1
EndSplineSet
Validated: 33
EndChar

StartChar: asciicircum
Encoding: 94 94 60
Width: 223
VWidth: 0
Flags: W
HStem: 435.545 135.804
VStem: 22.79 177.393
LayerCount: 2
Fore
SplineSet
141.615234375 448.080078125 m 5
 141.615234375 448.080078125 136.487304688 457.799804688 115.05859375 484.309570312 c 5
 92.03515625 463.2421875 86.3720703125 451.428710938 86.3720703125 451.428710938 c 5
 86.3720703125 451.428710938 23.4921875 439.595703125 22.7900390625 439.978515625 c 4
 18.29296875 442.434570312 102.333007812 555.370117188 114.260742188 571.348632812 c 4
 114.67578125 572.178710938 115.090820312 573.0390625 115.537109375 573.96484375 c 6
 115.537109375 573.96484375 205.190429688 437.905273438 200.182617188 435.544921875 c 4
 199.44921875 435.194335938 141.615234375 448.080078125 141.615234375 448.080078125 c 5
EndSplineSet
Validated: 33
EndChar

StartChar: less
Encoding: 60 60 61
Width: 345
VWidth: 0
Flags: W
LayerCount: 2
Fore
SplineSet
301.337890625 191.6953125 m 5
 301.337890625 191.6953125 227 203 168.556640625 250.2421875 c 5
 215 301 293.955078125 313.484375 293.955078125 313.484375 c 5
 293.955078125 313.484375 320.041015625 452.109375 319.197265625 453.65625 c 4
 313.783203125 463.5703125 64.806640625 278.296875 29.580078125 252 c 4
 27.751953125 251.0859375 25.853515625 250.171875 23.814453125 249.1875 c 6
 23.814453125 249.1875 323.767578125 51.5390625 328.970703125 62.578125 c 4
 329.744140625 64.1953125 301.337890625 191.6953125 301.337890625 191.6953125 c 5
EndSplineSet
Validated: 41
EndChar

StartChar: greater
Encoding: 62 62 62
Width: 345
VWidth: 0
Flags: W
VStem: 19.9297 305.156
LayerCount: 2
Fore
SplineSet
47.5625 191.6953125 m 1
 47.5625 191.6953125 121.900390625 203 180.34375 250.2421875 c 1
 133.900390625 301 54.9453125 313.484375 54.9453125 313.484375 c 1
 54.9453125 313.484375 28.859375 452.109375 29.703125 453.65625 c 0
 35.1171875 463.5703125 284.09375 278.296875 319.3203125 252 c 0
 321.1484375 251.0859375 323.046875 250.171875 325.0859375 249.1875 c 2
 325.0859375 249.1875 25.1328125 51.5390625 19.9296875 62.578125 c 0
 19.15625 64.1953125 47.5625 191.6953125 47.5625 191.6953125 c 1
EndSplineSet
Validated: 33
EndChar

StartChar: equal
Encoding: 61 61 63
Width: 490
VWidth: 0
Flags: W
HStem: 117.734 187.609
LayerCount: 2
Fore
SplineSet
380.088867188 199.40625 m 5
 407 200 414.698242188 188.265625 414.748046875 188.3359375 c 5
 422 146 414.587890625 117.734375 414.587890625 117.734375 c 5
 253 159 19.3828125 119.78125 19.3828125 119.78125 c 5
 19.3828125 119.78125 18.5400390625 181.2890625 18.2939453125 184.03125 c 4
 16.5712890625 203.2265625 334 198 334 198 c 6
 334.147460938 197.859375 331.880852704 197.857184712 332.084960938 197.8515625 c 4
 363 197 380.088867188 199.40625 380.088867188 199.40625 c 5
430.088867188 286.40625 m 5
 448.694335938 269.953125 454.698242188 265.265625 454.748046875 265.3359375 c 5
 410 277 414.587890625 224.734375 414.587890625 224.734375 c 5
 253 266 19.3828125 226.78125 19.3828125 226.78125 c 5
 19.3828125 226.78125 18.5400390625 288.2890625 18.2939453125 291.03125 c 4
 16.5712890625 310.2265625 381.641601562 305.34375 381.641601562 305.34375 c 6
 381.7890625 305.203125 381.880859375 304.857421875 382.084960938 304.8515625 c 4
 413 304 430.088867188 286.40625 430.088867188 286.40625 c 5
EndSplineSet
Validated: 37
EndChar

StartChar: plus
Encoding: 43 43 64
Width: 400
VWidth: 0
Flags: W
HStem: 209.398 89.2812<249.568 358.628> 221.915 77.9998<68.4861 162.624 246.622 357.302>
VStem: 143.398 96.2812<111.239 219.726> 162.624 81.6335<105.621 221.915 299.933 404.51>
LayerCount: 2
Fore
SplineSet
68.4560546875 215.8203125 m 2x50
 68.4560546875 215.8203125 29.0107421875 289.9765625 28.7998046875 291.8046875 c 0
 28.2157286151 297.399521457 91.7867192437 299.416330233 163.526827256 299.914328112 c 1x50
 162.599147687 357.870174838 158.8203125 404.543945312 158.8203125 404.543945312 c 1
 158.8203125 404.543945312 240.9765625 443.989257812 242.8046875 444.200195312 c 0
 248.64641827 444.810046326 248.503471534 375.477642088 246.62246431 299.932708865 c 1
 309.629681094 299.603158973 361.760742188 298.6796875 361.760742188 298.6796875 c 0
 377.711914062 273 358.627929688 209.3984375 358.627929688 209.3984375 c 1
 330.569433321 218.4317008 288.106603438 222.070517887 244.257669348 222.93689725 c 1x90
 242.072729552 161.483747209 239.6796875 111.239257812 239.6796875 111.239257812 c 0
 214 95.2880859375 143.3984375 104.372070312 143.3984375 104.372070312 c 1xa0
 155.110420867 130.732542525 160.53147966 175.184880464 162.624183347 221.914529363 c 1
 109.642089234 219.824868283 68.4560546875 215.8203125 68.4560546875 215.8203125 c 2x50
EndSplineSet
Validated: 33
EndChar

StartChar: ampersand
Encoding: 38 38 65
Width: 508
VWidth: 0
Flags: W
HStem: 478.864 77.3994<205.441 318.513>
VStem: 85.6758 72.0713<-150.215 -26.6754>
LayerCount: 2
Fore
SplineSet
466.555664062 525.375976562 m 4
 515.15625 468.49609375 480.66796875 359.271484375 417.811523438 315.423828125 c 4
 355.171875 271.50390625 341.059570312 232.3359375 373.962890625 172.791992188 c 4
 406.8671875 113.248046875 391.747070312 15.0400390625 287.780273438 -1.16015625 c 4
 263.01171875 -5.0478515625 228.451171875 -3.8955078125 192.307617188 3.16015625 c 5
 171.715820312 -43.064453125 163.580078125 -59.7119140625 157.747070312 -92.400390625 c 4
 149.611328125 -137.759765625 162.5 -194.280273438 153.067382812 -188.015625 c 4
 143.635742188 -181.751953125 88.84375 -137.904296875 85.67578125 -128.471679688 c 4
 82.580078125 -119.040039062 87.259765625 -77.912109375 107.635742188 -19.9521484375 c 4
 111.595703125 -8.576171875 118.219726562 6.111328125 126.571289062 22.744140625 c 5
 73.0029296875 45.064453125 27.5 82.50390625 19.8671875 138.303710938 c 4
 4.171875 252.711914062 129.451171875 347.82421875 129.451171875 347.82421875 c 5
 118.939453125 362.440429688 106.771484375 389.224609375 103.53125 407.872070312 c 4
 100.291992188 426.51953125 111.66796875 475.984375 127.076171875 493.83984375 c 4
 142.483398438 511.624023438 180.571289062 556.263671875 256.02734375 556.263671875 c 4
 308.731445312 556.263671875 331.483398438 544.888671875 350.923828125 537.616210938 c 4
 370.36328125 530.34375 384.979492188 508.383789062 389.01171875 494.631835938 c 4
 393.116210938 480.879882812 406.076171875 454.095703125 384.979492188 445.16796875 c 4
 363.883789062 436.240234375 351.931640625 427.599609375 337.315429688 438.111328125 c 4
 322.771484375 448.624023438 311.1796875 478.864257812 262.5078125 478.864257812 c 4
 213.8359375 478.864257812 191.515625 455.17578125 191.515625 412.984375 c 4
 191.515625 370.791992188 256.603515625 309.303710938 278.491210938 307.6484375 c 5
 218.947265625 290.368164062 109.435546875 256.311523438 117.067382812 183.80859375 c 4
 121.459960938 142.120117188 128.947265625 111.16015625 164.731445312 92.728515625 c 5
 196.412109375 147.448242188 232.627929688 204.400390625 253.435546875 233.919921875 c 4
 291.091796875 287.200195312 367.916015625 362.440429688 403.916015625 395.34375 c 4
 439.916015625 428.248046875 418.02734375 495.639648438 414.860351562 501.904296875 c 4
 411.69140625 508.16796875 446.827148438 548.48828125 466.555664062 525.375976562 c 4
231.1875 75.6640625 m 5
 313.916015625 68.6083984375 307.147460938 183.303710938 281.66015625 149.248046875 c 4
 261.643554688 122.536132812 245.01171875 98.1279296875 231.1875 75.6640625 c 5
EndSplineSet
Validated: 33
EndChar

StartChar: grave
Encoding: 96 96 66
Width: 176
VWidth: 0
Flags: W
VStem: 23.875 128.25
LayerCount: 2
Fore
SplineSet
28.228515625 556.203125 m 5
 28.228515625 556.203125 66.052734375 572.413085938 96.44921875 553.655273438 c 4
 116.22265625 541.452148438 136.677734375 491.116210938 136.677734375 491.116210938 c 6
 147.755859375 473.895507812 152.125 438.64453125 152.125 438.64453125 c 5
 104.765625 520.516601562 67.291015625 487.620117188 67.291015625 487.620117188 c 5
 23.875 509.376953125 l 5
 28.228515625 556.203125 l 5
EndSplineSet
Validated: 33
EndChar

StartChar: sterling
Encoding: 163 163 67
Width: 324
VWidth: 0
Flags: W
HStem: -0.224609 21G<161.227 170.14> 313.057 20G<209.848 219.938>
VStem: 126.773 0.140625<224.494 249.385>
LayerCount: 2
Fore
SplineSet
96.6796875 255.220703125 m 2
 89.4375 223.259765625 l 1
 117.5625 191.548828125 l 1
 121.921875 195.908203125 l 1
 121.921875 90.197265625 l 1
 15.890625 308.009765625 l 1
 123.609375 549.478515625 l 1
 123.046875 525.431640625 l 1
 130.2890625 513.900390625 132.8203125 507.009765625 132.8203125 507.009765625 c 2
 126.3515625 516.361328125 119.5859375 508.837890625 119.5859375 508.837890625 c 1
 88.90625 396.259765625 l 1
 101.84375 388.947265625 107.71875 369.478515625 108.140625 368.494140625 c 1
 100.8984375 380.728515625 84.6015625 378.025390625 84.6015625 378.025390625 c 1
 74.3203125 327.501953125 l 2
 73.0546875 320.189453125 76.4296875 312.173828125 83.8828125 312.103515625 c 2
 103.0078125 311.892578125 l 1
 132.609375 315.900390625 101.390625 332.494140625 101.390625 332.494140625 c 1
 124.5234375 327.150390625 129.796875 304.298828125 129.796875 304.298828125 c 1
 131.90625 308.587890625 126.3515625 326.166015625 126.2109375 326.658203125 c 1
 135.984375 321.033203125 143.0859375 309.150390625 143.5078125 308.376953125 c 1
 123.328125 344.869140625 130.5703125 364.908203125 130.5703125 364.908203125 c 1
 132 380 161.4375 391.564453125 161.4375 391.564453125 c 1
 183 401 182.59375 415.103515625 182.59375 415.103515625 c 1
 181 432 161.4375 430.462890625 161.4375 430.462890625 c 1
 133.5234375 432.291015625 130.5703125 404.517578125 130.5703125 404.517578125 c 1
 130.5703125 404.517578125 124.984375 417.751953125 124.984375 418.525390625 c 0
 124.984375 419.298828125 129.34375 432.236328125 129.34375 432.236328125 c 1
 128.640625 444.587890625 l 1
 138.5859375 458.001953125 l 1
 133.5234375 481.837890625 144.3515625 491.189453125 144.3515625 491.189453125 c 2
 142.171875 472.416015625 154.296875 462.001953125 154.296875 462.001953125 c 1
 175.953125 454.759765625 189.84375 471.126953125 189.84375 471.126953125 c 1
 190.546875 466.064453125 187.6640625 458.001953125 183.375 455.892578125 c 0
 167.4140625 447.876953125 168.3046875 442.884765625 168.3046875 442.884765625 c 1
 200 436 198.4921875 410.400390625 198.4921875 410.400390625 c 1
 199.1953125 387.337890625 168.1875 375.736328125 161.5078125 372.853515625 c 0
 133.1015625 360.548828125 161.5078125 338.962890625 161.5078125 338.962890625 c 1
 172.8984375 325.251953125 179.71875 303.595703125 179.71875 303.595703125 c 1
 180.421875 317.306640625 196.3125 326.658203125 196.3125 326.658203125 c 2
 184.78125 307.884765625 191.953125 301.416015625 191.953125 301.416015625 c 1
 205.453125 330.244140625 219.9375 333.056640625 219.9375 333.056640625 c 1
 199.7578125 316.462890625 216.4921875 312.244140625 216.4921875 312.244140625 c 1
 235.6171875 312.244140625 l 2
 245.6015625 312.244140625 252.9140625 321.736328125 250.2421875 331.439453125 c 2
 239.1484375 372.736328125 l 2
 233.453125 385.533203125 212.6953125 370.173828125 212.203125 369.611328125 c 1
 222.6796875 390.916015625 231.1953125 399.142578125 231.1953125 399.142578125 c 1
 202.375 509.072265625 l 6
 198.015625 515.541015625 189.84375 505.603515625 189.84375 505.603515625 c 1
 189.84375 515.728515625 198.4921875 526.556640625 198.4921875 526.556640625 c 1
 199.0546875 551.025390625 l 1
 308.109375 305.900390625 l 1
 214.9453125 116.634765625 l 1
 210.5859375 128.869140625 l 1
 206.2265625 125.986328125 l 1
 200.4609375 133.931640625 l 1
 200.4609375 197.947265625 l 1
 208.40625 191.478515625 l 1
 214.171875 196.541015625 l 1
 214.875 202.306640625 l 1
 229.9921875 221.080078125 l 1
 226.40625 232.791015625 l 1
 234.3515625 236.376953125 l 1
 226.40625 247.205078125 l 1
 226.40625 255.150390625 l 1
 202.5703125 250.791015625 196.59375 223.861328125 196.59375 223.861328125 c 1
 196.8046875 247.978515625 l 1
 185.2734375 245.095703125 177.328125 226.322265625 177.328125 226.322265625 c 1
 183.796875 176.541015625 l 1
 163.3125 127.462890625 l 1
 173.2265625 98.634765625 l 1
 151.0078125 63.970703125 l 1
 161.71875 38.603515625 l 1
 183.7265625 50.259765625 l 1
 161.2265625 -0.224609375 l 1
 161.2265625 -0.224609375 132.046875 61.158203125 129.796875 63.970703125 c 0
 131.484375 65.376953125 148.4296875 98.634765625 148.4296875 98.634765625 c 1
 136.1953125 124.580078125 l 1
 151.296875 172.181640625 l 1
 151.2265625 183.009765625 l 2
 152.4921875 229.205078125 126.7734375 249.384765625 126.7734375 249.384765625 c 1
 126.9140625 224.494140625 l 1
 120.65625 254.236328125 97.453125 255.220703125 96.6796875 255.220703125 c 2
EndSplineSet
Validated: 33
EndChar

StartChar: yen
Encoding: 165 165 68
Width: 324
VWidth: 0
Flags: W
HStem: -0.224609 21G<161.227 170.14> 313.057 20G<209.848 219.938> 531.025 20G<198.595 208.331>
VStem: 126.773 0.140625<224.494 249.385>
LayerCount: 2
Fore
SplineSet
96.6796875 255.220703125 m 2
 89.4375 223.259765625 l 1
 117.5625 191.548828125 l 1
 121.921875 195.908203125 l 1
 121.921875 90.197265625 l 1
 15.890625 308.009765625 l 1
 123.609375 549.478515625 l 1
 123.046875 525.431640625 l 1
 130.2890625 513.900390625 132.8203125 507.009765625 132.8203125 507.009765625 c 2
 126.3515625 516.361328125 119.5859375 508.837890625 119.5859375 508.837890625 c 1
 88.90625 396.259765625 l 1
 101.84375 388.947265625 107.71875 369.478515625 108.140625 368.494140625 c 1
 100.8984375 380.728515625 84.6015625 378.025390625 84.6015625 378.025390625 c 1
 74.3203125 327.501953125 l 2
 73.0546875 320.189453125 76.4296875 312.173828125 83.8828125 312.103515625 c 2
 103.0078125 311.892578125 l 1
 132.609375 315.900390625 101.390625 332.494140625 101.390625 332.494140625 c 1
 124.5234375 327.150390625 129.796875 304.298828125 129.796875 304.298828125 c 1
 131.90625 308.587890625 126.3515625 326.166015625 126.2109375 326.658203125 c 1
 135.984375 321.033203125 143.0859375 309.150390625 143.5078125 308.376953125 c 1
 123.328125 344.869140625 130.5703125 364.908203125 130.5703125 364.908203125 c 1
 132 380 161.4375 391.564453125 161.4375 391.564453125 c 1
 183 401 182.59375 415.103515625 182.59375 415.103515625 c 1
 181 432 161.4375 430.462890625 161.4375 430.462890625 c 1
 133.5234375 432.291015625 130.5703125 404.517578125 130.5703125 404.517578125 c 1
 130.5703125 404.517578125 124.984375 417.751953125 124.984375 418.525390625 c 0
 124.984375 419.298828125 129.34375 432.236328125 129.34375 432.236328125 c 1
 128.640625 444.587890625 l 1
 138.5859375 458.001953125 l 1
 133.5234375 481.837890625 144.3515625 491.189453125 144.3515625 491.189453125 c 2
 142.171875 472.416015625 154.296875 462.001953125 154.296875 462.001953125 c 1
 175.953125 454.759765625 189.84375 471.126953125 189.84375 471.126953125 c 1
 190.546875 466.064453125 187.6640625 458.001953125 183.375 455.892578125 c 0
 167.4140625 447.876953125 168.3046875 442.884765625 168.3046875 442.884765625 c 1
 200 436 198.4921875 410.400390625 198.4921875 410.400390625 c 1
 199.1953125 387.337890625 168.1875 375.736328125 161.5078125 372.853515625 c 0
 133.1015625 360.548828125 161.5078125 338.962890625 161.5078125 338.962890625 c 1
 172.8984375 325.251953125 179.71875 303.595703125 179.71875 303.595703125 c 1
 180.421875 317.306640625 196.3125 326.658203125 196.3125 326.658203125 c 2
 184.78125 307.884765625 191.953125 301.416015625 191.953125 301.416015625 c 1
 205.453125 330.244140625 219.9375 333.056640625 219.9375 333.056640625 c 1
 199.7578125 316.462890625 216.4921875 312.244140625 216.4921875 312.244140625 c 1
 235.6171875 312.244140625 l 2
 245.6015625 312.244140625 252.9140625 321.736328125 250.2421875 331.439453125 c 2
 239.1484375 372.736328125 l 2
 233.453125 385.533203125 212.6953125 370.173828125 212.203125 369.611328125 c 1
 222.6796875 390.916015625 231.1953125 399.142578125 231.1953125 399.142578125 c 1
 202.375 509.072265625 l 2
 198.015625 515.541015625 189.84375 505.603515625 189.84375 505.603515625 c 1
 189.84375 515.728515625 198.4921875 526.556640625 198.4921875 526.556640625 c 1
 199.0546875 551.025390625 l 1
 308.109375 305.900390625 l 1
 214.9453125 116.634765625 l 1
 210.5859375 128.869140625 l 1
 206.2265625 125.986328125 l 1
 200.4609375 133.931640625 l 1
 200.4609375 197.947265625 l 1
 208.40625 191.478515625 l 1
 214.171875 196.541015625 l 1
 214.875 202.306640625 l 1
 229.9921875 221.080078125 l 1
 226.40625 232.791015625 l 1
 234.3515625 236.376953125 l 1
 226.40625 247.205078125 l 1
 226.40625 255.150390625 l 1
 202.5703125 250.791015625 196.59375 223.861328125 196.59375 223.861328125 c 1
 196.8046875 247.978515625 l 1
 185.2734375 245.095703125 177.328125 226.322265625 177.328125 226.322265625 c 1
 183.796875 176.541015625 l 1
 163.3125 127.462890625 l 1
 173.2265625 98.634765625 l 1
 151.0078125 63.970703125 l 1
 161.71875 38.603515625 l 1
 183.7265625 50.259765625 l 1
 161.2265625 -0.224609375 l 1
 161.2265625 -0.224609375 132.046875 61.158203125 129.796875 63.970703125 c 0
 131.484375 65.376953125 148.4296875 98.634765625 148.4296875 98.634765625 c 1
 136.1953125 124.580078125 l 1
 151.296875 172.181640625 l 1
 151.2265625 183.009765625 l 2
 152.4921875 229.205078125 126.7734375 249.384765625 126.7734375 249.384765625 c 1
 126.9140625 224.494140625 l 1
 120.65625 254.236328125 97.453125 255.220703125 96.6796875 255.220703125 c 2
EndSplineSet
Validated: 33
EndChar

StartChar: cent
Encoding: 162 162 69
Width: 324
VWidth: 0
Flags: W
HStem: -0.224609 21G<161.227 170.14> 313.057 20G<209.848 219.938> 531.025 20G<198.595 208.331>
VStem: 126.773 0.140625<224.494 249.385>
LayerCount: 2
Fore
SplineSet
96.6796875 255.220703125 m 2
 89.4375 223.259765625 l 1
 117.5625 191.548828125 l 1
 121.921875 195.908203125 l 1
 121.921875 90.197265625 l 1
 15.890625 308.009765625 l 1
 123.609375 549.478515625 l 1
 123.046875 525.431640625 l 1
 130.2890625 513.900390625 132.8203125 507.009765625 132.8203125 507.009765625 c 2
 126.3515625 516.361328125 119.5859375 508.837890625 119.5859375 508.837890625 c 1
 88.90625 396.259765625 l 1
 101.84375 388.947265625 107.71875 369.478515625 108.140625 368.494140625 c 1
 100.8984375 380.728515625 84.6015625 378.025390625 84.6015625 378.025390625 c 1
 74.3203125 327.501953125 l 2
 73.0546875 320.189453125 76.4296875 312.173828125 83.8828125 312.103515625 c 2
 103.0078125 311.892578125 l 1
 132.609375 315.900390625 101.390625 332.494140625 101.390625 332.494140625 c 1
 124.5234375 327.150390625 129.796875 304.298828125 129.796875 304.298828125 c 1
 131.90625 308.587890625 126.3515625 326.166015625 126.2109375 326.658203125 c 1
 135.984375 321.033203125 143.0859375 309.150390625 143.5078125 308.376953125 c 1
 123.328125 344.869140625 130.5703125 364.908203125 130.5703125 364.908203125 c 1
 132 380 161.4375 391.564453125 161.4375 391.564453125 c 1
 183 401 182.59375 415.103515625 182.59375 415.103515625 c 1
 181 432 161.4375 430.462890625 161.4375 430.462890625 c 1
 133.5234375 432.291015625 130.5703125 404.517578125 130.5703125 404.517578125 c 1
 130.5703125 404.517578125 124.984375 417.751953125 124.984375 418.525390625 c 0
 124.984375 419.298828125 129.34375 432.236328125 129.34375 432.236328125 c 1
 128.640625 444.587890625 l 1
 138.5859375 458.001953125 l 1
 133.5234375 481.837890625 144.3515625 491.189453125 144.3515625 491.189453125 c 2
 142.171875 472.416015625 154.296875 462.001953125 154.296875 462.001953125 c 1
 175.953125 454.759765625 189.84375 471.126953125 189.84375 471.126953125 c 1
 190.546875 466.064453125 187.6640625 458.001953125 183.375 455.892578125 c 0
 167.4140625 447.876953125 168.3046875 442.884765625 168.3046875 442.884765625 c 1
 200 436 198.4921875 410.400390625 198.4921875 410.400390625 c 1
 199.1953125 387.337890625 168.1875 375.736328125 161.5078125 372.853515625 c 0
 133.1015625 360.548828125 161.5078125 338.962890625 161.5078125 338.962890625 c 1
 172.8984375 325.251953125 179.71875 303.595703125 179.71875 303.595703125 c 1
 180.421875 317.306640625 196.3125 326.658203125 196.3125 326.658203125 c 2
 184.78125 307.884765625 191.953125 301.416015625 191.953125 301.416015625 c 1
 205.453125 330.244140625 219.9375 333.056640625 219.9375 333.056640625 c 1
 199.7578125 316.462890625 216.4921875 312.244140625 216.4921875 312.244140625 c 1
 235.6171875 312.244140625 l 2
 245.6015625 312.244140625 252.9140625 321.736328125 250.2421875 331.439453125 c 2
 239.1484375 372.736328125 l 2
 233.453125 385.533203125 212.6953125 370.173828125 212.203125 369.611328125 c 1
 222.6796875 390.916015625 231.1953125 399.142578125 231.1953125 399.142578125 c 1
 202.375 509.072265625 l 6
 198.015625 515.541015625 189.84375 505.603515625 189.84375 505.603515625 c 1
 189.84375 515.728515625 198.4921875 526.556640625 198.4921875 526.556640625 c 1
 199.0546875 551.025390625 l 1
 308.109375 305.900390625 l 1
 214.9453125 116.634765625 l 1
 210.5859375 128.869140625 l 1
 206.2265625 125.986328125 l 1
 200.4609375 133.931640625 l 1
 200.4609375 197.947265625 l 1
 208.40625 191.478515625 l 1
 214.171875 196.541015625 l 1
 214.875 202.306640625 l 1
 229.9921875 221.080078125 l 1
 226.40625 232.791015625 l 1
 234.3515625 236.376953125 l 1
 226.40625 247.205078125 l 1
 226.40625 255.150390625 l 1
 202.5703125 250.791015625 196.59375 223.861328125 196.59375 223.861328125 c 1
 196.8046875 247.978515625 l 1
 185.2734375 245.095703125 177.328125 226.322265625 177.328125 226.322265625 c 1
 183.796875 176.541015625 l 1
 163.3125 127.462890625 l 1
 173.2265625 98.634765625 l 1
 151.0078125 63.970703125 l 1
 161.71875 38.603515625 l 1
 183.7265625 50.259765625 l 1
 161.2265625 -0.224609375 l 1
 161.2265625 -0.224609375 132.046875 61.158203125 129.796875 63.970703125 c 0
 131.484375 65.376953125 148.4296875 98.634765625 148.4296875 98.634765625 c 1
 136.1953125 124.580078125 l 1
 151.296875 172.181640625 l 1
 151.2265625 183.009765625 l 2
 152.4921875 229.205078125 126.7734375 249.384765625 126.7734375 249.384765625 c 1
 126.9140625 224.494140625 l 1
 120.65625 254.236328125 97.453125 255.220703125 96.6796875 255.220703125 c 2
EndSplineSet
Validated: 33
EndChar

StartChar: zero
Encoding: 48 48 70
Width: 422
VWidth: 0
Flags: W
HStem: -0.982422 108.982<154.578 268.098> 448 99.9043<162.158 265.361>
VStem: 27.4297 96<139.679 398.471> 296.43 98<137.863 413.938>
LayerCount: 2
Fore
SplineSet
27.4296875 252 m 0
 27.4296875 386 65.4296875 547.904296875 213.203125 547.904296875 c 0
 366.4296875 547.904296875 392.4296875 383 394.4296875 273 c 0
 396.666015625 150.016601562 373.727539062 -0.982421875 214.587890625 -0.982421875 c 0
 71.55859375 -0.982421875 27.4296875 130.93359375 27.4296875 252 c 0
212.4296875 448 m 0
 147.4296875 448 125.4296875 385 123.4296875 258 c 0
 121.555664062 138.998046875 150.4296875 107 212.4296875 108 c 0
 282.377929688 109.127929688 295.4296875 149 296.4296875 271 c 0
 297.33984375 382.000976562 284.436523438 448 212.4296875 448 c 0
EndSplineSet
Validated: 33
EndChar

StartChar: a
Encoding: 97 97 71
Width: 380
VWidth: 0
Flags: W
HStem: 0.112305 21G<164.515 211.666 234.851 357.351>
VStem: 235.046 97.4453<103.034 163.956>
LayerCount: 2
Fore
SplineSet
355.733398438 29.9404296875 m 1
 357.350585938 26.9169921875 l 1
 357.350585938 0.1123046875 l 1
 240.967773438 0.1123046875 l 1
 234.850585938 9.9404296875 l 1
 235.131835938 29.5966796875 l 1
 164.514648438 -0.3564453125 l 1
 164.514648438 -0.3564453125 78.2255859375 -31.7392578125 33.6474609375 32.3857421875 c 1
 33.6474609375 32.3857421875 4.4677734375 66.9091796875 41.1708984375 153.041992188 c 0
 50.5927734375 175.260742188 146.655273438 217.229492188 146.655273438 217.229492188 c 1
 236.045898438 232.698242188 l 1
 236.045898438 232.698242188 236.336914062 306 105.514648438 238.081054688 c 1
 85.1943359375 220.291992188 l 1
 64.1083984375 217.174804688 l 1
 63.6865234375 295.159179688 l 1
 63.6865234375 295.159179688 238.834960938 389.713867188 320.256835938 280.659179688 c 1
 320.256835938 280.659179688 332.491210938 258.299804688 332.491210938 196.846679688 c 0
 332.491210938 135.393554688 332.491210938 62.2841796875 332.491210938 62.2841796875 c 1
 332.491210938 62.2841796875 334.274414062 38.18359375 350.069335938 33.3154296875 c 0
 354.336914062 32 355.733398438 29.9404296875 355.733398438 29.9404296875 c 1
235.116210938 103.034179688 m 1
 235.045898438 103.034179688 l 1
 236.045898438 163.956054688 l 1
 178.670898438 163.604492188 171.233398438 139.502929688 171.233398438 139.502929688 c 1
 129.467773438 164.956054688 120.936523438 129.588867188 120.936523438 129.588867188 c 1
 98.3369140625 33 180.381835938 80.2607421875 180.381835938 80.2607421875 c 1
 235.116210938 103.034179688 l 1
EndSplineSet
Validated: 33
EndChar

StartChar: b
Encoding: 98 98 72
Width: 410
VWidth: 0
Flags: W
HStem: -7.83008 86.0703<160.356 274.029> 237.928 93.75<160.966 268.732>
VStem: 34.8389 94.7266<108.021 207.146 299.162 366.295 387.67 482.779> 295.011 85.8594<100.284 209>
LayerCount: 2
Fore
SplineSet
227.885742188 331.677734375 m 4
 292.099609375 331.677734375 380.307617188 281.927734375 380.870117188 155.083984375 c 4
 381.221679688 47.998046875 304.393554688 -7.830078125 237.877929688 -7.830078125 c 4
 121.510742188 -7.830078125 34.8388671875 42.935546875 34.8388671875 42.935546875 c 5
 34.8388671875 83.294921875 l 5
 34.8388671875 482.779296875 l 5
 34.8388671875 482.779296875 32.099609375 511 9.1279296875 524.294921875 c 5
 127.245117188 550.029296875 l 5
 148.057617188 550.099609375 l 5
 148.057617188 550.099609375 129.565429688 541.873046875 129.565429688 508.826171875 c 6
 129.565429688 387.669921875 l 5
 124.221679688 383.169921875 l 5
 123.659179688 379.021484375 l 5
 117.752929688 379.021484375 l 5
 116.346679688 375.998046875 l 5
 116.065429688 372.623046875 l 5
 113.815429688 374.521484375 l 5
 114.096679688 368.896484375 l 5
 118.034179688 368.896484375 l 5
 121.127929688 366.294921875 l 5
 124.502929688 371.568359375 l 5
 128.721679688 374.169921875 l 5
 128.721679688 299.162109375 l 5
 154.034179688 323.701171875 192.659179688 331.677734375 227.885742188 331.677734375 c 4
214.885742188 78.240234375 m 4
 266.099609375 78.240234375 295.010742188 107 295.010742188 155.083984375 c 4
 295.010742188 205 254.099609375 237.927734375 216.291992188 237.927734375 c 4
 179.099609375 237.927734375 131.549804688 205 131.549804688 158.458984375 c 4
 131.549804688 112 173.099609375 78.240234375 214.885742188 78.240234375 c 4
EndSplineSet
Validated: 33
EndChar

StartChar: c
Encoding: 99 99 73
Width: 325
VWidth: 0
Flags: W
HStem: 0.300781 330.117
VStem: 19.7314 92.1562<105.946 170.105>
LayerCount: 2
Fore
SplineSet
169.145507812 84.52734375 m 1
 169.145507812 84.52734375 233.700195312 77 288.434570312 149.30078125 c 1
 303.129882812 153.51953125 l 1
 305.129882812 71.79296875 l 1
 305.129882812 71.79296875 262.028320312 2.90234375 169.004882812 0.30078125 c 1
 169.004882812 0.30078125 22.3330078125 -6.51953125 19.7314453125 170.10546875 c 1
 19.7314453125 170.10546875 17.6220703125 336.18359375 173.786132812 330.41796875 c 0
 233.762695312 330.41796875 273.700195312 300.95703125 273.700195312 300.95703125 c 1
 295.286132812 271.49609375 305.270507812 282.53515625 305.270507812 282.53515625 c 1
 293.176757812 251.52734375 253.239257812 198.39453125 253.239257812 198.39453125 c 1
 240.418945312 205.10546875 l 1
 240.418945312 255 173.856445312 250.88671875 173.856445312 250.88671875 c 1
 173.856445312 250.88671875 111.887695312 248 111.887695312 164.76171875 c 0
 111.887695312 87 169.145507812 84.52734375 169.145507812 84.52734375 c 1
EndSplineSet
Validated: 33
EndChar

StartChar: d
Encoding: 100 100 74
Width: 410
VWidth: 0
Flags: W
HStem: -7.83008 86.0703<135.971 249.644> 237.928 93.75<141.268 249.034>
VStem: 29.1299 85.8594<100.284 209> 280.435 94.7266<108.021 207.146>
LayerCount: 2
Fore
SplineSet
182.114257812 331.677734375 m 0
 117.900390625 331.677734375 29.6923828125 281.927734375 29.1298828125 155.083984375 c 0
 28.7783203125 47.998046875 105.606445312 -7.830078125 172.122070312 -7.830078125 c 0
 288.489257812 -7.830078125 375.161132812 42.935546875 375.161132812 42.935546875 c 1
 375.161132812 83.294921875 l 1
 375.161132812 482.779296875 l 1
 375.161132812 482.779296875 377.900390625 511 400.872070312 524.294921875 c 1
 282.754882812 550.029296875 l 1
 261.942382812 550.099609375 l 1
 261.942382812 550.099609375 280.434570312 541.873046875 280.434570312 508.826171875 c 2
 280.434570312 387.669921875 l 1
 285.778320312 383.169921875 l 1
 286.340820312 379.021484375 l 1
 292.247070312 379.021484375 l 1
 293.653320312 375.998046875 l 1
 293.934570312 372.623046875 l 1
 296.184570312 374.521484375 l 1
 295.903320312 368.896484375 l 1
 291.965820312 368.896484375 l 1
 288.872070312 366.294921875 l 1
 285.497070312 371.568359375 l 1
 281.278320312 374.169921875 l 1
 281.278320312 299.162109375 l 1
 255.965820312 323.701171875 217.340820312 331.677734375 182.114257812 331.677734375 c 0
195.114257812 78.240234375 m 0
 143.900390625 78.240234375 114.989257812 107 114.989257812 155.083984375 c 0
 114.989257812 205 155.900390625 237.927734375 193.708007812 237.927734375 c 0
 230.900390625 237.927734375 278.450195312 205 278.450195312 158.458984375 c 0
 278.450195312 112 236.900390625 78.240234375 195.114257812 78.240234375 c 0
EndSplineSet
Validated: 41
EndChar

StartChar: j
Encoding: 106 106 75
Width: 178
VWidth: 0
Flags: W
HStem: -183.646 87.375<-7.58008 23.9126> 326.464 2.03906<157.356 168.967>
VStem: 37.2598 102.871<398.07 445.931> 46.7012 85.2109<1.87793 256.292>
LayerCount: 2
Fore
SplineSet
37.259765625 398.0703125 m 1xe0
 37.259765625 445.930664062 l 1
 88.6962890625 479.858398438 l 1
 140.130859375 445.930664062 l 1
 140.130859375 398.0703125 l 1
 88.6962890625 364.141601562 l 1
 37.259765625 398.0703125 l 1xe0
168.966796875 328.502929688 m 1
 158.419921875 326.463867188 l 1
 151.388671875 320.276367188 132.544921875 299.674804688 131.912109375 255.588867188 c 2
 131.912109375 225.424804688 l 1
 131.912109375 -10.1923828125 l 2
 131.912109375 -116 76.966796875 -183.645507812 -5.751953125 -183.645507812 c 0
 -165.033203125 -183.645507812 -106.439453125 -33.0986328125 -106.439453125 -33.0986328125 c 1
 -102.072265625 -22.2158203125 l 1
 -81.408203125 -6.0908203125 l 1
 -79.087890625 -110.926757812 -7.580078125 -96.2705078125 -7.580078125 -96.2705078125 c 1
 42.966796875 -94 46.701171875 1.8779296875 46.701171875 1.8779296875 c 1
 46.701171875 256.291992188 l 1xd0
 46.701171875 256.291992188 45 297 22.419921875 317.041992188 c 1
 55.279296875 322.666992188 l 1
 152.373046875 328.502929688 l 1
 160.810546875 328.502929688 l 1
 161.021484375 328.502929688 l 1
 168.966796875 328.502929688 l 1
EndSplineSet
Validated: 33
EndChar

StartChar: g
Encoding: 103 103 76
Width: 382
VWidth: 0
Flags: W
HStem: -197.965 67.4824<121.651 263.042> 25.9473 69.2422<131.03 229.407> 254.004 80.3027<134.695 227.85> 314.126 20G<276.497 373.571>
VStem: 31.4287 79.9482<110.776 219.539> 250.099 77.2012<116.171 232.129> 278.173 87.79<-121.544 -73.5489>
LayerCount: 2
Fore
SplineSet
373.571289062 325.365234375 m 5xda
 373.571289062 325.365234375 358.271484375 251.883789062 335.916992188 249.18359375 c 5
 301.396484375 259.18359375 l 5
 326.123046875 233.7421875 327.299804688 202.659179688 327.299804688 165.09765625 c 4xdc
 327.299804688 72 271.106445312 25.947265625 189.36328125 25.947265625 c 4
 164.947265625 25.947265625 141.904296875 28.6484375 121.609375 38.7294921875 c 5
 120.360351562 35.7890625 119.736328125 36.1484375 119.736328125 33.80859375 c 4
 119.736328125 30.328125 121.672851562 27.02734375 125.544921875 23.787109375 c 4
 129.477539062 20.5478515625 137.034179688 12.267578125 148.3359375 10.826171875 c 4
 154.893554688 10.046875 171.379882812 9.3271484375 197.73046875 8.7265625 c 4
 246.189453125 7.7060546875 279.600585938 2.2666015625 293.962890625 0.46484375 c 4
 315.819335938 -2.173828125 333.31640625 -12 346.35546875 -27.474609375 c 4
 357.49609375 -40.6962890625 365.962890625 -58.7958984375 365.962890625 -75.357421875 c 4
 365.962890625 -98.2197265625 352.474609375 -148.640625 327.55859375 -168.682617188 c 4
 290.83984375 -198.203125 231.005859375 -197.96484375 171.931640625 -197.96484375 c 4
 126.533203125 -197.96484375 88.19140625 -192.14453125 56.9052734375 -174.563476562 c 4
 39.232421875 -164.422851562 22.4287109375 -136.922851562 22.4287109375 -126.000976562 c 4
 22.4287109375 -121.141601562 23.30078125 -116.9140625 23.30078125 -111.420898438 c 4
 23.30078125 -111.420898438 24.31640625 -94 42.029296875 -68.1572265625 c 4
 43.3994140625 -66.158203125 53.6416015625 -55.4375 75.998046875 -35.39453125 c 5
 37.28125 -20.0947265625 31.4287109375 31.7080078125 31.4287109375 31.7080078125 c 5
 53.9716796875 31.16796875 66.0146484375 47.7880859375 81.001953125 57.1494140625 c 5
 58.31640625 65 31.4287109375 102 31.4287109375 165.157226562 c 4
 31.4287109375 291 97.6220703125 334.306640625 179.36328125 334.306640625 c 4xea
 209.774414062 334.306640625 238.063476562 325.486328125 261.54296875 310.365234375 c 5
 356.024414062 334.125976562 l 5
 373.571289062 325.365234375 l 5xda
139.418945312 -59.85546875 m 5
 128.365234375 -70.1767578125 129.061523438 -69.658203125 123.377929688 -78.5986328125 c 4
 117.6953125 -87.5380859375 113.884765625 -83.69921875 113.884765625 -91.19921875 c 4
 113.884765625 -100.919921875 111.682617188 -107.049804688 124.31640625 -116 c 4
 140.265625 -127.298828125 149.879882812 -130.482421875 194.342773438 -130.482421875 c 4
 236.680664062 -130.482421875 246.084960938 -128.657226562 256.01171875 -122.220703125 c 4
 273.31640625 -111 278.172851562 -101.69921875 278.172851562 -87.1181640625 c 4xca
 278.172851562 -84 272.177734375 -79.1171875 260.188476562 -74.6767578125 c 4
 247.948242188 -70.236328125 239.31640625 -68 217.501953125 -66.81640625 c 4
 164.673828125 -63.9501953125 167.89453125 -63.275390625 139.418945312 -59.85546875 c 5
57.21875 221.26171875 m 5
 57.21875 221.26171875 60.966796875 233.681640625 74.9541015625 236.202148438 c 5
 65.8994140625 236.202148438 l 5
 60.4033203125 231.28125 l 5
 56.4697265625 231.641601562 l 5
 54.0966796875 227.500976562 l 5
 47.7900390625 227.141601562 l 5
 57.21875 221.26171875 l 5
179.42578125 95.189453125 m 4
 231.319335938 95.189453125 250.098632812 141 250.098632812 166.116210938 c 4
 250.098632812 204 231.31640625 254.00390625 180.737304688 254.00390625 c 4xec
 130.31640625 254.00390625 111.376953125 204 111.376953125 165.09765625 c 4
 111.376953125 130 118.31640625 122 135.088867188 108.090820312 c 5
 136.275390625 107.669921875 l 6
 136.213867188 107.610351562 136.151367188 107.55078125 136.026367188 107.490234375 c 5
 148.515625 99.509765625 163.190429688 95.189453125 179.42578125 95.189453125 c 4
EndSplineSet
Validated: 33
EndChar

StartChar: h
Encoding: 104 104 77
Width: 361
VWidth: 0
Flags: W
HStem: 0.320312 26.2578<130.268 141.504 339.369 353.988> 226.031 103.156<131.238 231.539>
VStem: 32.3711 84.7422<101.531 179.062 298.805 387.25 407.148 488.75> 245.668 90.5312<54.4219 165.789>
LayerCount: 2
Fore
SplineSet
336.19921875 54.421875 m 1
 336.19921875 54.421875 337.46484375 26.5078125 353.98828125 26.578125 c 1
 353.98828125 0.3203125 l 1
 228.30078125 0.3203125 l 1
 228.30078125 26.71875 l 1
 228.30078125 26.71875 244.82421875 26.859375 245.66796875 54.7734375 c 2
 245.66796875 70.2421875 l 1
 245.66796875 165.7890625 l 1
 245.66796875 165.7890625 247.400390625 226.03125 182.40234375 226.03125 c 0
 123.400390625 226.03125 121.04296875 179.0625 121.04296875 179.0625 c 1
 121.04296875 101.53125 l 1
 121.04296875 101.53125 122.44921875 27.0703125 141.50390625 27.0703125 c 1
 141.50390625 0.25 l 1
 12.54296875 0.25 l 1
 12.54296875 26.5078125 l 1
 12.54296875 26.5078125 31.38671875 35.9296875 32.37109375 102.375 c 2
 32.37109375 129.2890625 l 1
 32.37109375 488.75 l 1
 32.37109375 488.75 30.77734375 519.015625 7.01171875 528.71875 c 1
 115.49609375 552.5546875 l 1
 136.23828125 552.625 l 1
 136.23828125 552.625 117.81640625 524.9609375 117.81640625 494.3046875 c 2
 117.81640625 407.1484375 l 1
 112.54296875 403 l 1
 111.98046875 399.1328125 l 1
 106.14453125 399.1328125 l 1
 104.73828125 396.3203125 l 1
 104.45703125 393.15625 l 1
 102.20703125 394.9140625 l 1
 102.48828125 389.7109375 l 1
 106.42578125 389.7109375 l 1
 109.51953125 387.25 l 1
 112.89453125 392.1015625 l 1
 117.11328125 394.5625 l 1
 117.11328125 298.8046875 l 1
 129.400390625 313 159.400390625 329.1875 189.72265625 329.1875 c 0
 281.400390625 329.1875 335.91015625 267.987304688 336.05859375 213.6484375 c 2
 336.19921875 162.0390625 l 1
 336.19921875 54.421875 l 1
EndSplineSet
Validated: 33
EndChar

StartChar: e
Encoding: 101 101 78
Width: 336
VWidth: 0
Flags: W
HStem: -0.121094 21G<192.461 239.676> 148.941 60.4609<107.273 237.516>
VStem: 20.9375 85<98.6172 148.941>
LayerCount: 2
Fore
SplineSet
182.53125 78.73828125 m 5
 182.53125 78.73828125 266 75 289.71875 110.35546875 c 5
 319.6953125 114.64453125 l 5
 320.6953125 52.56640625 l 5
 320.6953125 52.56640625 286.890625 2.55078125 192.4609375 -0.12109375 c 5
 192.4609375 -0.12109375 24 -7 20.9375 150.21484375 c 5
 20.9375 150.21484375 20.8671875 151.90234375 21.0078125 154.78515625 c 5
 22.0625 154.78515625 l 5
 24.875 154.01171875 l 5
 26.984375 155.91015625 l 5
 30.21875 157.03515625 l 5
 30.8515625 162.87109375 l 5
 26.7734375 160.90234375 l 5
 26.3515625 159.14453125 l 5
 21.8515625 159.14453125 l 5
 20.796875 157.87890625 l 5
 20.5859375 156.40234375 l 5
 18.8984375 157.17578125 l 5
 19.0390625 155.69921875 l 5
 3.640625 157.52734375 11.62890625 176 1.1171875 193.29296875 c 5
 22.1328125 201.70703125 l 5
 26.9140625 245.30078125 71.453125 337.55859375 197.3125 332.91796875 c 5
 197.3125 332.91796875 275.6953125 331.58203125 299.3203125 281.16796875 c 4
 314.71875 248.33203125 326.8828125 269.49609375 326.8828125 269.49609375 c 5
 324.9140625 247.41796875 318.4453125 234.41015625 318.4453125 234.41015625 c 5
 301.78125 166.09765625 l 5
 289.40625 150.13671875 237.515625 152.24609375 237.515625 152.24609375 c 5
 133.921875 148.94140625 l 5
 106.078125 148.94140625 l 5
 106.0078125 145.91796875 105.9375 142.96484375 105.9375 139.80078125 c 4
 105.9375 84 182.53125 78.73828125 182.53125 78.73828125 c 5
187.3125 262.96484375 m 5
 187.3125 262.96484375 107.2734375 263 107.2734375 209.40234375 c 5
 148.953125 209.40234375 l 6
 188.46875 211.65234375 251.6484375 226.48828125 251.6484375 226.48828125 c 5
 251.6484375 263 187.3125 262.96484375 187.3125 262.96484375 c 5
EndSplineSet
Validated: 33
EndChar

StartChar: f
Encoding: 102 102 79
Width: 365
VWidth: 0
Flags: W
HStem: 0.25 21G<63.8008 207.804> 249.414 55.2734<53.1211 93.2773> 313.602 20G<332.348 356.355> 470 85.5547<211.958 263.3>
VStem: 93.2773 98.6875<102.094 247.938 306.164 368.164> 330.582 32.7266<406.383 447.112>
LayerCount: 2
Fore
SplineSet
263.299804688 470 m 5
 178 470 191.89453125 368.1640625 191.89453125 368.1640625 c 2
 191.89453125 306.1640625 l 1
 218.47265625 311.5078125 230.70703125 321.984375 230.70703125 321.984375 c 1
 316.299804688 316 332.34765625 333.6015625 332.34765625 333.6015625 c 1
 356.35546875 321.28125 l 1
 336.87890625 296.25 l 2
 299.698242188 248.465820312 264.10546875 249.4140625 264.10546875 249.4140625 c 1
 191.96484375 248.5703125 l 1
 191.96484375 102.09375 l 1
 191.96484375 102.09375 193.30078125 35.15625 212.07421875 35.15625 c 1
 202.07421875 0.25 l 1
 63.80078125 0.25 l 1
 73.80078125 35.6484375 l 1
 73.80078125 35.6484375 92.29296875 36 93.27734375 102.9375 c 2
 93.27734375 140.0625 l 1
 93.27734375 247.9375 l 1
 27.98046875 249.4140625 l 1
 29.17578125 278.203125 l 1
 53.12109375 304.6875 l 1
 93.34765625 303.703125 l 1
 93.34765625 388.09375 l 2
 93.34765625 510.296875 165.299804688 555.5546875 244.91015625 555.5546875 c 0
 317.299804688 555.5546875 353.62890625 518.3984375 353.62890625 518.3984375 c 1
 375.01953125 522.484375 l 1
 363.30859375 406.3671875 l 1
 330.58203125 406.3828125 l 1
 330.58203125 465 263.299804688 470 263.299804688 470 c 5
EndSplineSet
Validated: 33
EndChar

StartChar: i
Encoding: 105 105 80
Width: 162
VWidth: 0
Flags: W
HStem: 0.209961 18.5244<129.472 139.394>
VStem: 33.5381 90.4492<56.832 216.936 228.325 299.65 398.07 445.931>
LayerCount: 2
Fore
SplineSet
26.8427734375 398.0703125 m 1
 26.8427734375 445.930664062 l 1
 78.279296875 479.858398438 l 1
 129.713867188 445.930664062 l 1
 129.713867188 398.0703125 l 1
 78.279296875 364.141601562 l 1
 26.8427734375 398.0703125 l 1
123.987304688 56.83203125 m 5
 123.987304688 56.83203125 125.067382812 18.734375 139.393554688 18.734375 c 5
 139.393554688 0.2099609375 l 5
 18.6064453125 0.2099609375 l 5
 18.6064453125 19.0009765625 l 5
 18.6064453125 19.0009765625 32.794921875 19.201171875 33.5380859375 57.296875 c 6
 33.5380859375 78.4775390625 l 5
 33.5380859375 299.650390625 l 5
 33.5380859375 299.650390625 33.5498046875 310 20.70703125 312.274414062 c 5
 122.905273438 324.759765625 l 5
 138.514648438 324.827148438 l 5
 138.514648438 324.827148438 124.663085938 320.430664062 124.663085938 302.84765625 c 6
 124.663085938 228.325195312 l 5
 120.67578125 225.927734375 l 5
 117.390625 223.729492188 l 5
 115.87890625 223.729492188 l 5
 114.797851562 222.130859375 l 5
 112.594726562 220.333007812 l 1
 110.905273438 221.33203125 l 5
 111.108398438 218.334960938 l 5
 116.012695312 218.334960938 l 5
 118.311523438 216.935546875 l 5
 120.811523438 219.732421875 l 5
 123.987304688 221.131835938 l 5
 123.987304688 56.83203125 l 5
EndSplineSet
Validated: 1
EndChar

StartChar: k
Encoding: 107 107 81
Width: 405
VWidth: 0
Flags: W
HStem: 0.25 34.8359<131.458 144.844 356.548 394.5> 321.773 26.1875<352.797 378.906>
VStem: 32.5391 92.1953<101.531 378.25 398.148 478.75>
LayerCount: 2
Fore
SplineSet
124.734375 101.53125 m 1
 124.734375 101.53125 126.140625 35.0859375 144.84375 35.0859375 c 1
 144.84375 0.25 l 1
 13.203125 0.25 l 1
 13.203125 35.578125 l 1
 13.203125 35.578125 31.5546875 35.9296875 32.5390625 102.375 c 2
 32.5390625 129.2890625 l 1
 32.5390625 478.75 l 1
 32.5390625 478.75 32.30078125 514 10.5 528.71875 c 1
 123.328125 552.5546875 l 1
 136.578125 552.625 l 1
 136.578125 552.625 125.578125 544.9609375 125.578125 514.3046875 c 2
 125.578125 398.1484375 l 1
 120.375 394 l 1
 119.8125 390.1328125 l 1
 114.1171875 390.1328125 l 1
 112.78125 387.3203125 l 1
 112.5 384.15625 l 1
 110.3203125 385.9140625 l 1
 110.6015625 380.7109375 l 1
 114.3984375 380.7109375 l 1
 117.421875 378.25 l 1
 120.65625 383.1015625 l 1
 124.734375 385.5625 l 1
 124.734375 101.53125 l 1
337.3359375 73.181640625 m 2
 374.8828125 26.212890625 394.4296875 29.306640625 394.5 29.306640625 c 2
 394.5 -0.255859375 l 1
 272.3046875 -0.255859375 l 1
 242.3046875 31.486328125 l 1
 247.9296875 37.673828125 240.0546875 47.869140625 240.0546875 47.869140625 c 1
 195.7578125 97.734375 l 1
 195.7578125 103.5703125 l 1
 219.3828125 103.5703125 l 1
 223.8828125 106.03125 l 1
 215.234375 109.125 l 1
 213.3359375 110.390625 l 1
 210.3125 107.9296875 l 1
 210.3125 107.9296875 200.5390625 109.4765625 199.4140625 109.4765625 c 0
 198.2890625 109.4765625 199.4140625 112.8515625 199.4140625 112.8515625 c 1
 186.265625 114.1171875 l 1
 140.6953125 178.703125 l 1
 229.0625 292.453125 l 2
 249.453125 312.2109375 229.0625 321.7734375 229.0625 321.7734375 c 1
 229.0625 347.9609375 l 1
 378.90625 347.9609375 l 1
 379.2578125 321.7734375 l 1
 363.296875 317.9765625 345.984375 303.84375 345.984375 303.84375 c 1
 249.890625 178.703125 l 1
 281.0390625 139.5390625 300.0625 141.3671875 300.0625 141.3671875 c 1
 337.3359375 73.181640625 l 2
230.7734375 103.4296875 m 1
 244.0078125 104.625 l 1
 232.109375 105.890625 l 1
 230.7734375 108.984375 l 1
 226.0625 105.890625 l 1
 230.7734375 103.4296875 l 1
EndSplineSet
Validated: 33
EndChar

StartChar: l
Encoding: 108 108 82
Width: 183
VWidth: 0
Flags: W
HStem: 0.25 34.8359<144.011 157.396>
VStem: 42.0918 95.1953<101.531 378.25 398.148 478.75>
LayerCount: 2
Fore
SplineSet
137.287109375 101.53125 m 1
 137.287109375 101.53125 138.693359375 35.0859375 157.396484375 35.0859375 c 1
 157.396484375 0.25 l 1
 22.755859375 0.25 l 1
 22.755859375 35.578125 l 1
 22.755859375 35.578125 41.107421875 35.9296875 42.091796875 102.375 c 2
 42.091796875 139.2890625 l 1
 42.091796875 478.75 l 1
 42.091796875 478.75 38 511 25.603515625 528.71875 c 1
 135.880859375 552.5546875 l 1
 156.130859375 552.625 l 1
 156.130859375 552.625 138.130859375 534.9609375 138.130859375 504.3046875 c 2
 138.130859375 398.1484375 l 1
 132.927734375 394 l 1
 132.365234375 390.1328125 l 1
 126.669921875 390.1328125 l 1
 125.333984375 387.3203125 l 1
 125.052734375 384.15625 l 1
 122.873046875 385.9140625 l 1
 123.154296875 380.7109375 l 1
 126.951171875 380.7109375 l 1
 129.974609375 378.25 l 1
 133.208984375 383.1015625 l 1
 137.287109375 385.5625 l 1
 137.287109375 101.53125 l 1
EndSplineSet
Validated: 1
EndChar

StartChar: m
Encoding: 109 109 83
Width: 592
VWidth: 0
Flags: W
HStem: -0.0478516 26.4688<148.702 164.156 351.554 366.891 548.689 564.086> 244.194 83.6328<156.053 237.101 357.438 444.432>
VStem: 43.8594 98.9922<70.4365 156.827> 251.547 96.7109<55.46 155.14> 458.742 86.6406<55.46 155.069>
LayerCount: 2
Fore
SplineSet
545.3828125 55.4599609375 m 5
 545.3828125 55.4599609375 546.6484375 26.4208984375 564.0859375 26.4208984375 c 5
 564.0859375 -0.0478515625 l 5
 440.671875 -0.0478515625 l 5
 440.671875 26.6318359375 l 5
 440.671875 26.6318359375 457.828125 26.7724609375 458.7421875 55.8115234375 c 6
 458.7421875 71.9130859375 l 5
 458.7421875 155.069335938 l 5
 458.7421875 155.069335938 468.200195312 244.124023438 402.5234375 244.124023438 c 4
 336.200195312 244.124023438 348.328125 174.897460938 348.046875 160.272460938 c 4
 348.046875 158.514648438 348.1171875 156.756835938 348.1171875 154.999023438 c 6
 348.2578125 117.280273438 l 5
 348.2578125 55.4599609375 l 5
 348.2578125 55.4599609375 349.5234375 26.4208984375 366.890625 26.4208984375 c 5
 366.890625 -0.0478515625 l 5
 233.4765625 -0.0478515625 l 5
 233.4765625 26.6318359375 l 5
 233.4765625 26.6318359375 250.6328125 26.7724609375 251.546875 55.8115234375 c 6
 251.546875 71.9130859375 l 5
 251.546875 155.139648438 l 5
 251.546875 155.139648438 261.200195312 244.194335938 195.328125 244.194335938 c 4
 135.200195312 244.194335938 142.921875 156.616210938 142.921875 156.616210938 c 5
 142.8515625 156.827148438 l 5
 142.8515625 70.4365234375 l 5
 142.8515625 70.4365234375 144.328125 24.1708984375 164.15625 24.1708984375 c 5
 164.15625 -0.0478515625 l 5
 23.2578125 -0.0478515625 l 5
 23.2578125 23.8193359375 l 5
 23.2578125 23.8193359375 42.8046875 29.6552734375 43.859375 70.9287109375 c 6
 43.859375 93.8505859375 l 5
 43.859375 281.725585938 l 5
 43.859375 281.725585938 41 316 27.9140625 324.100585938 c 5
 91.3046875 338.866210938 l 5
 154.890625 338.936523438 l 5
 154.890625 338.936523438 143.6953125 334.155273438 143.6953125 315.100585938 c 6
 143.6953125 300.647460938 l 5
 147.200195312 312 160.015625 327.827148438 197 327.827148438 c 4
 224.2109375 327.827148438 286.765625 326.811523438 311.7265625 277.592773438 c 5
 325.578125 310.920898438 367.71875 327.827148438 414.125 327.827148438 c 4
 449.0703125 327.827148438 545.2421875 314.608398438 545.2421875 217.999023438 c 6
 545.3828125 164.280273438 l 5
 545.3828125 55.4599609375 l 5
134.9765625 167.655273438 m 5
 136.3828125 168.991210938 l 5
 133.21875 175.038085938 l 5
 131.4609375 175.038085938 l 5
 129.984375 193.280273438 l 5
 129.703125 191.311523438 l 5
 127.3828125 192.366210938 l 5
 127.6640625 189.131835938 l 5
 131.7421875 169.131835938 l 5
 134.9765625 167.655273438 l 5
EndSplineSet
Validated: 33
EndChar

StartChar: n
Encoding: 110 110 84
Width: 408
VWidth: 0
Flags: W
HStem: -0.0478516 26.5283<143.067 158.117 370.504 385.781> 247.194 80.6328<156.363 254.542>
VStem: 42.8203 93.9922<70.4365 152.827> 270.508 96.7109<55.46 161.14>
LayerCount: 2
Fore
SplineSet
367.21875 55.4599609375 m 1
 367.21875 55.4599609375 368.484375 26.4208984375 385.78125 26.4912109375 c 1
 385.78125 0.0224609375 l 1
 252.4375 0.0224609375 l 1
 252.4375 6.7021484375 l 1
 252.4375 6.7021484375 269.59375 26.8427734375 270.5078125 55.8818359375 c 2
 270.5078125 71.9833984375 l 1
 270.5078125 161.139648438 l 1
 270.5078125 161.139648438 280.2265625 247.194335938 204.2890625 247.194335938 c 0
 131.092773438 247.194335938 136.8828125 152.616210938 136.8828125 152.616210938 c 1
 136.8125 152.827148438 l 1
 136.8125 70.4365234375 l 1
 136.8125 70.4365234375 138.2890625 26.48046875 158.1171875 26.48046875 c 1
 158.1171875 -0.0478515625 l 1
 22.21875 -0.0478515625 l 1
 22.21875 25.759765625 l 1
 22.21875 25.759765625 42.8203125 29.6552734375 42.8203125 70.9287109375 c 2
 42.8203125 83.8505859375 l 1
 42.8203125 281.655273438 l 1
 42.8203125 281.655273438 42.0927734375 314 26.8046875 324.100585938 c 1
 130.1953125 338.866210938 l 1
 151.78125 338.936523438 l 1
 151.78125 338.936523438 133.65625 334.155273438 133.65625 315.100585938 c 2
 133.65625 303.647460938 l 1
 153.8359375 326.639648438 178.9765625 327.827148438 215.9609375 327.827148438 c 0
 313.092773438 327.827148438 366.928710938 275 367.078125 217.999023438 c 2
 367.21875 164.280273438 l 1
 367.21875 55.4599609375 l 1
129.0078125 163.655273438 m 1
 130.4140625 165.061523438 l 1
 127.25 171.108398438 l 1
 125.4921875 171.108398438 l 1
 124.015625 169.350585938 l 1
 123.734375 167.381835938 l 1
 121.4140625 168.436523438 l 1
 121.6953125 165.202148438 l 1
 125.84375 165.202148438 l 1
 129.0078125 163.655273438 l 1
EndSplineSet
Validated: 33
EndChar

StartChar: o
Encoding: 111 111 85
Width: 390
VWidth: 0
Flags: W
HStem: 0.179688 73.6328<140.769 249.956> 260.531 71.3828<147.553 246.106>
VStem: 19.1328 96.1484<99.4404 228.558> 276.602 94.2656<101.21 230.035>
LayerCount: 2
Fore
SplineSet
195 331.9140625 m 4
 286.6171875 331.9140625 370.8671875 273 370.8671875 166.046875 c 4
 370.8671875 48 286.6171875 0.1796875 195 0.1796875 c 4
 103.3828125 0.1796875 19.1328125 60 19.1328125 166.046875 c 4
 19.1328125 271 103.3828125 331.9140625 195 331.9140625 c 4
195.9140625 73.8125 m 4
 245.200195312 73.8125 276.6015625 112 276.6015625 167.171875 c 4
 276.6015625 221 240.200195312 260.53125 195 260.53125 c 4
 152.200195312 260.53125 115.28125 216 115.28125 166.046875 c 4
 115.28125 116 142.200195312 73.8125 195.9140625 73.8125 c 4
EndSplineSet
Validated: 1
EndChar

StartChar: p
Encoding: 112 112 86
Width: 392
VWidth: 0
Flags: W
HStem: 0.294922 81.5234<145.152 258.846> 248.334 79.2656<140.315 250.719>
VStem: 34.6758 82.875<-118.59 -60.5049 -39.2705 28.4746 109.883 225.412> 278.371 84.0469<99.3335 220.388>
LayerCount: 2
Fore
SplineSet
211.16015625 327.599609375 m 0
 300.299804688 327.599609375 362.34765625 267.833984375 362.41796875 158.990234375 c 0
 362.41796875 59.708984375 290.299804688 0 197.87109375 0.294921875 c 0
 170.66015625 0.3818359375 142.86328125 4.216796875 117.55078125 28.474609375 c 1
 117.55078125 -47.0751953125 l 1
 113.61328125 -44.4736328125 l 1
 110.51953125 -39.2705078125 l 1
 107.63671875 -41.8720703125 l 1
 103.98046875 -41.8720703125 l 1
 103.69921875 -47.4970703125 l 1
 105.80859375 -45.5986328125 l 1
 106.08984375 -48.9736328125 l 1
 107.42578125 -51.9267578125 l 1
 112.91015625 -51.9267578125 l 1
 113.40234375 -56.0048828125 l 1
 118.32421875 -60.5048828125 l 1
 118.32421875 -124.49609375 l 2
 118.32421875 -157.2421875 135.48046875 -195.55859375 135.48046875 -195.55859375 c 1
 116.14453125 -195.48828125 l 1
 16.18359375 -169.96484375 l 1
 34.39453125 -155.76171875 34.67578125 -118.58984375 34.67578125 -118.58984375 c 1
 34.67578125 230.060546875 l 1
 34.67578125 270.138671875 l 1
 34.67578125 270.138671875 34.81640625 270.208984375 34.95703125 270.419921875 c 2
 34.32421875 270.138671875 l 1
 34.32421875 270.138671875 31.58203125 296.240234375 19.13671875 294.060546875 c 1
 13.58203125 298.349609375 l 1
 70.46484375 330.552734375 l 1
 114.73828125 330.552734375 l 1
 114.73828125 311.849609375 l 1
 137.30859375 320.568359375 165.45703125 327.599609375 207.15234375 327.599609375 c 1
 207.15234375 327.529296875 l 2
 208.48828125 327.599609375 209.82421875 327.599609375 211.16015625 327.599609375 c 0
205.74609375 81.818359375 m 0
 253.299804688 81.818359375 278.37109375 108 278.37109375 158.990234375 c 0
 278.37109375 226 227.299804688 248.333984375 198.14453125 248.333984375 c 0
 159.299804688 248.333984375 119.12109375 231 119.12109375 159.990234375 c 0
 119.12109375 123 148.299804688 81.818359375 205.74609375 81.818359375 c 0
EndSplineSet
Validated: 33
EndChar

StartChar: q
Encoding: 113 113 87
Width: 381
VWidth: 0
Flags: W
HStem: 0.222656 86.4531<122.198 245.941> 247.277 79.125<128.694 238.463>
VStem: 21.2891 79.6953<106.172 219.607> 264.469 83.4375<-103.922 -63.1367 -41.9727 25.332 105.156 222.313>
LayerCount: 2
Fore
SplineSet
425.4609375 -92.078125 m 1
 427.7109375 -92.5 l 1
 423.140625 -106.703125 l 2
 416.032226562 -128.79296875 392.4140625 -150.7734375 392.4140625 -150.7734375 c 1
 344.3359375 -188.5859375 l 1
 307.2109375 -196.609375 l 1
 307.140625 -196.46875 l 1
 306.578125 -196.6796875 l 1
 257.3125 -196.75 l 1
 257.3125 -196.75 264.46875 -171.5234375 264.46875 -138.828125 c 2
 264.46875 -63.13671875 l 1
 269.390625 -58.70703125 l 1
 269.8828125 -54.62890625 l 1
 275.3671875 -54.62890625 l 1
 276.6328125 -51.67578125 l 1
 276.9140625 -48.30078125 l 1
 279.0234375 -50.12890625 l 1
 278.7421875 -44.57421875 l 1
 275.0859375 -44.57421875 l 1
 272.203125 -41.97265625 l 1
 269.109375 -47.17578125 l 1
 265.2421875 -49.77734375 l 1
 265.2421875 25.33203125 l 1
 244 7 212.34375 0.279296875 185.2734375 0.22265625 c 0
 78 0 21.2890625 59.42578125 21.2890625 158.42578125 c 0
 21.2890625 266.84765625 83 326.40234375 171.984375 326.40234375 c 0
 173.25 326.40234375 174.5859375 326.33203125 175.921875 326.33203125 c 2
 175.921875 326.40234375 l 1
 254 326.40234375 267.984375 300.72265625 267.984375 300.72265625 c 1
 267.984375 329.42578125 l 1
 292.1875 329.42578125 l 1
 358.9296875 297.29296875 l 1
 353.375 293.00390625 l 1
 348 288 348.2578125 269.15234375 348.2578125 269.15234375 c 1
 347.625 269.43359375 l 2
 347.8359375 269.29296875 347.90625 269.15234375 347.90625 269.15234375 c 1
 347.90625 229.21484375 l 1
 347.90625 -103.921875 l 1
 347.90625 -103.921875 348.046875 -108.3515625 356.90625 -117.0703125 c 1
 366.75 -110.8828125 370.125 -105.046875 370.125 -105.046875 c 1
 426.375 -90.140625 425.4609375 -92.078125 425.4609375 -92.078125 c 1
177.328125 86.67578125 m 0
 233 86.67578125 262.671875 105 262.671875 161.42578125 c 0
 262.671875 231 212 247.27734375 185.9296875 247.27734375 c 0
 132 247.27734375 100.984375 209 100.984375 162.42578125 c 0
 100.984375 108 136 86.67578125 177.328125 86.67578125 c 0
EndSplineSet
Validated: 33
EndChar

StartChar: r
Encoding: 114 114 88
Width: 329
VWidth: 0
Flags: W
HStem: -0.0136719 29<130.552 145.771> 249.854 74.5938<134.802 189.771>
VStem: 38.6387 87.375<69.2051 186.502 198.525 239.701> 252.943 51.3281<218.416 235.496>
LayerCount: 2
Fore
SplineSet
268.990234375 300.689453125 m 1
 268.990234375 300.689453125 306.786132812 271.439453125 305.326171875 240.759765625 c 2
 305.326171875 240.759765625 305.326171875 226.056640625 304.271484375 223.595703125 c 0
 303.216796875 221.134765625 252.943359375 189.392578125 252.943359375 189.392578125 c 1
 244 256 189.771484375 249.853515625 189.771484375 249.853515625 c 1
 142.310546875 249.853515625 132.763671875 225.736328125 126.013671875 213.783203125 c 1
 126.013671875 198.525390625 l 1
 120.740234375 195.994140625 l 1
 120.177734375 193.673828125 l 1
 114.341796875 193.673828125 l 1
 112.935546875 191.986328125 l 1
 112.654296875 190.087890625 l 1
 110.404296875 191.142578125 l 1
 110.685546875 187.978515625 l 1
 114.623046875 187.978515625 l 1
 117.716796875 186.501953125 l 1
 121.091796875 189.455078125 l 1
 125.310546875 190.931640625 l 1
 125.310546875 69.205078125 l 1
 125.310546875 69.205078125 126.716796875 28.986328125 145.771484375 28.986328125 c 1
 145.771484375 -0.013671875 l 1
 18.810546875 -0.013671875 l 1
 18.810546875 29.267578125 l 1
 18.810546875 29.267578125 37.654296875 29.408203125 38.638671875 69.626953125 c 2
 38.638671875 91.916015625 l 1
 38.638671875 297.392578125 l 1
 38.638671875 297.392578125 36.6953125 313.650390625 13 319.486328125 c 1
 100.763671875 333.830078125 l 1
 144.505859375 333.900390625 l 1
 144.505859375 333.900390625 126.083984375 327.259765625 126.083984375 308.697265625 c 2
 126.083984375 304.189453125 l 1
 144.013671875 324.369140625 179.123046875 324.447265625 208.935546875 324.447265625 c 0
 241.138671875 324.447265625 268.990234375 300.689453125 268.990234375 300.689453125 c 1
EndSplineSet
Validated: 33
EndChar

StartChar: s
Encoding: 115 115 89
Width: 259
VWidth: 0
Flags: W
HStem: 237.555 75.6875<191.39 221.976>
VStem: 17.5146 224.922
LayerCount: 2
Fore
SplineSet
242.436523438 102.4921875 m 5
 242.436523438 102.4921875 248.641601562 83 219.131835938 40.9765625 c 5
 219.131835938 40.9765625 187.428710938 -2.4921875 120.280273438 0.4609375 c 5
 120.280273438 0.4609375 40.0849609375 0.5 17.5146484375 45.4296875 c 5
 17.5146484375 117.140625 l 5
 49.1787109375 117.140625 l 5
 49.1787109375 117.140625 55.6416015625 83 111.913085938 79.828125 c 5
 111.913085938 79.828125 165.756835938 72 165.756835938 109.4296875 c 5
 165.756835938 109.4296875 168 133 94.6005859375 143.78125 c 5
 94.6005859375 143.78125 98.6083984375 153.34375 114.639648438 161.359375 c 5
 104.444335938 161.359375 l 5
 98.1865234375 155.59375 l 5
 93.7568359375 156.015625 l 5
 91.0849609375 151.09375 l 5
 83.9833984375 150.671875 l 5
 83.9833984375 150.671875 25.1708984375 180 25.1708984375 247.2890625 c 5
 25.1708984375 247.2890625 26.8349609375 308.078125 85.1240234375 326.78125 c 5
 85.1240234375 326.78125 148.569335938 351.0703125 221.975585938 313.2421875 c 5
 221.975585938 237.5546875 l 5
 191.389648438 237.5546875 l 5
 191.389648438 237.5546875 134 292 100.641601562 248 c 5
 100.641601562 248 85.341796875 227.099609375 129.327148438 207.375 c 6
 129.327148438 207.375 144.641601562 200 199.475585938 179.125 c 5
 199.475585938 179.125 242.436523438 163 242.436523438 102.4921875 c 5
EndSplineSet
Validated: 33
EndChar

StartChar: t
Encoding: 116 116 90
Width: 293
VWidth: 0
Flags: W
HStem: -0.188477 35.75<188.956 203.094> 262.327 59.0234<31.7344 92.5703> 264.437 68.4922<191.438 223.578>
VStem: 93.2188 88.6406<106.015 262.749 327.444 329.999> 134.398 48.8125<363.311 399.272>
LayerCount: 2
Fore
SplineSet
280.3203125 334.686523438 m 6x80
 280.0390625 334.897460938 279.7578125 334.967773438 279.7578125 334.967773438 c 5
 280.3203125 334.686523438 l 6x80
280.3203125 334.686523438 m 6
 283.6953125 332.999023438 l 5
 268.578125 284.639648438 l 5
 257.700195312 266 223.578125 264.702148438 223.578125 264.702148438 c 5
 182.0703125 264.436523438 l 5xa8
 181.859375 106.014648438 l 5
 181.859375 106.014648438 183.3359375 35.5615234375 203.09375 35.5615234375 c 5
 203.09375 -0.1884765625 l 5
 72.6875 -0.1884765625 l 5
 72.6875 36.0537109375 l 5
 72.6875 36.0537109375 92.1640625 36.4052734375 93.21875 106.928710938 c 6
 93.21875 146.022460938 l 5
 93.5 262.749023438 l 5
 77.75 262.327148438 l 5
 9.3046875 262.327148438 l 5
 9.3046875 281.061523438 l 5
 31.734375 321.350585938 l 5
 92.5703125 321.350585938 l 5xd0
 92.5703125 329.999023438 l 5
 92.5703125 329.999023438 134.2578125 391.045898438 134.3984375 428.170898438 c 5
 183.2109375 399.272460938 l 5
 183.140625 327.444335938 l 5
 188.8359375 330.467773438 191.4375 332.928710938 191.4375 332.928710938 c 5xa8
 291.140625 327.584960938 282.7109375 333.280273438 280.3203125 334.686523438 c 6
EndSplineSet
Validated: 37
EndChar

StartChar: u
Encoding: 117 117 91
Width: 360
VWidth: 0
Flags: W
HStem: 0.25 79.3047<178.082 224.07> 307.844 19.7734G<23.8164 129.473 231.754 336.184>
VStem: 36.0508 81.1875<110.817 283.359> 243.988 79.9609<113.453 117.531 117.632 283.586>
LayerCount: 2
Fore
SplineSet
231.75390625 327.84375 m 1
 336.18359375 327.6875 l 1
 336.18359375 302.2734375 l 1
 336.18359375 302.2734375 323.52734375 296.859375 323.94921875 276.6796875 c 0
 324.37109375 256.5 323.66796875 117.53125 323.66796875 117.53125 c 1
 323.66796875 113.453125 l 1
 320.57421875 107.7578125 l 1
 323.66796875 106.7734375 l 1
 323.66796875 106.7734375 325 0 174.42578125 0.25 c 0
 35 0.4814453125 35.98046875 110.7109375 35.98046875 110.7109375 c 1
 35.98046875 110.7109375 35.62890625 256.4296875 36.05078125 276.609375 c 0
 36.47265625 296.7890625 23.81640625 302.203125 23.81640625 302.203125 c 1
 23.81640625 327.6171875 l 1
 129.47265625 327.6171875 l 1
 129.47265625 303.2578125 l 1
 116.81640625 298.3359375 117.23828125 283.359375 117.23828125 283.359375 c 1
 117.23828125 159.921875 l 2
 117.23828125 78.921875 178.08203125 79.5546875 178.08203125 79.5546875 c 1
 231.37890625 79.5546875 240.33203125 120.125 243.28515625 144.03125 c 0
 243.49609375 148.8828125 243.70703125 153.9453125 243.98828125 159.21875 c 2
 243.77734375 166.6015625 l 1
 243.98828125 283.5859375 l 1
 243.98828125 283.5859375 244.41015625 298.5625 231.75390625 303.484375 c 1
 231.75390625 327.84375 l 1
EndSplineSet
Validated: 33
EndChar

StartChar: v
Encoding: 118 118 92
Width: 403
VWidth: 0
Flags: W
HStem: 0.25 332.156
LayerCount: 2
Fore
SplineSet
254.27734375 332.40625 m 1
 254.27734375 332.3359375 l 1
 377.68359375 332.3359375 l 1
 377.68359375 303.8984375 l 1
 377.68359375 303.8984375 358.76953125 298.484375 338.73046875 249.6875 c 2
 317.63671875 201.2421875 l 1
 319.95703125 209.1875 l 1
 317.42578125 208.765625 l 1
 319.39453125 210.8046875 l 1
 321.22265625 217.203125 l 1
 320.51953125 215.4453125 l 1
 319.88671875 213.7578125 l 1
 319.88671875 213.7578125 318.05859375 213.3359375 316.72265625 213.3359375 c 0
 315.38671875 213.3359375 319.88671875 215.234375 319.88671875 215.234375 c 1
 317.56640625 215.234375 l 1
 317.56640625 227.890625 l 1
 315.52734375 229.2265625 l 1
 319.60546875 215.09375 313.48828125 207.8515625 313.48828125 207.8515625 c 1
 315.31640625 205.6015625 l 1
 315.31640625 203.3515625 l 1
 317.49609375 201.3125 l 1
 249.37890625 0.25 l 1
 165.37890625 0.25 l 1
 61.52734375 247.859375 l 1
 61.52734375 247.859375 37.69140625 296.65625 25.31640625 305.234375 c 1
 25.31640625 332.4765625 l 1
 154.72265625 332.4765625 l 1
 154.65234375 305.3046875 l 1
 154.65234375 305.3046875 122.87109375 296.9375 153.73828125 223.53125 c 2
 205.24609375 106.71875 l 1
 208.52734375 106.71875 l 1
 264.89453125 252.1484375 l 1
 264.89453125 252.1484375 282.96484375 295.0390625 254.13671875 304.53125 c 1
 254.27734375 332.40625 l 1
EndSplineSet
Validated: 37
EndChar

StartChar: w
Encoding: 119 119 93
Width: 517
VWidth: 0
Flags: W
HStem: 0.179688 21G<116.911 197.814 321.544 398.243> 255.375 17.875<196.109 206.859 310.935 320.68> 313.25 20G<28.5156 140.672 376.117 488.484>
VStem: 195.969 124.852<202.881 273.25>
LayerCount: 2
Fore
SplineSet
376.1171875 333.25 m 1
 488.484375 333.25 l 1
 488.484375 316.0078125 l 1
 478.359375 307.359375 458.953125 258.4921875 458.953125 258.4921875 c 1
 393.1484375 0.1796875 l 1
 330.765625 0.1796875 l 1
 279.296875 111.8046875 l 1
 281.0546875 113.84375 l 1
 281.0546875 116.09375 l 1
 282.53125 118.34375 l 1
 282.53125 118.34375 277.5390625 125.65625 280.9140625 139.7890625 c 1
 279.296875 138.453125 l 1
 279.296875 125.796875 l 1
 277.3984375 125.796875 l 1
 277.3984375 125.796875 281.0546875 123.8984375 280 123.8984375 c 0
 278.875 123.8984375 277.3984375 124.3203125 277.3984375 124.3203125 c 1
 276.90625 126.0078125 l 1
 276.34375 127.765625 l 1
 277.8203125 121.3671875 l 1
 279.4375 119.328125 l 1
 277.3984375 119.75 l 1
 279.296875 111.734375 l 1
 260.5 147.9453125 l 1
 241.703125 111.734375 l 1
 243.6015625 119.75 l 1
 241.5625 119.328125 l 1
 243.1796875 121.3671875 l 1
 244.65625 127.765625 l 1
 244.09375 126.0078125 l 1
 243.6015625 124.3203125 l 1
 243.6015625 124.3203125 242.0546875 123.8984375 241 123.8984375 c 0
 239.9453125 123.8984375 243.6015625 125.796875 243.6015625 125.796875 c 1
 241.703125 125.796875 l 1
 241.703125 138.453125 l 1
 240.0859375 139.7890625 l 1
 243.4609375 125.65625 238.46875 118.34375 238.46875 118.34375 c 1
 239.9453125 116.09375 l 1
 239.9453125 113.84375 l 1
 241.703125 111.8046875 l 1
 188.234375 0.1796875 l 1
 121.8515625 0.1796875 l 1
 58.046875 258.4921875 l 1
 58.046875 258.4921875 46.5 303 28.515625 316.0078125 c 1
 28.515625 333.25 l 1
 140.671875 333.25 l 1
 140.6015625 316.078125 l 1
 140.6015625 316.078125 114.7265625 307.7109375 139.8984375 234.09375 c 2
 167.9453125 126.9296875 l 1
 175.5390625 126.9296875 l 1
 204.7578125 202.8515625 l 1
 204.7578125 202.8515625 224.814453125 244 195.96875 255.375 c 1
 196.109375 273.25 l 1
 198.21875 273.25 l 1
 318.5703125 273.25 l 1
 320.6796875 273.25 l 1
 320.8203125 255.375 l 1
 294.814453125 243 312.03125 202.8515625 312.03125 202.8515625 c 1
 341.3203125 126.9296875 l 1
 348.9140625 126.9296875 l 1
 376.890625 234.09375 l 2
 402.1328125 307.7109375 376.1875 316.078125 376.1875 316.078125 c 1
 376.1171875 333.25 l 1
EndSplineSet
Validated: 33
EndChar

StartChar: x
Encoding: 120 120 94
Width: 375
VWidth: 0
Flags: W
HStem: 0.179688 18.0078<134.61 147.809 334.493 351.613> 313.867 16.1484<19.5898 31.6508 226.535 239.518>
LayerCount: 2
Fore
SplineSet
318.21484375 46.5625 m 1
 318.21484375 46.5625 336.701171875 17 351.61328125 18.1875 c 1
 351.61328125 0.1796875 l 1
 215.91796875 0.1796875 l 1
 215.98828125 16.9765625 l 1
 215.98828125 16.9765625 239.82421875 29.4765625 216.90234375 59.4296875 c 2
 187.01171875 108.40625 l 1
 180.01171875 108.40625 l 1
 137.47265625 44.171875 l 1
 137.47265625 44.171875 122.701171875 27 147.94921875 16.328125 c 1
 147.80859375 0.1796875 l 1
 20.86328125 0.1796875 l 1
 20.86328125 17.6796875 l 1
 20.86328125 17.6796875 29.28515625 19.5625 48.83203125 45.5078125 c 2
 126.09765625 164.234375 l 1
 46.05859375 283.703125 l 1
 46.05859375 283.703125 31.701171875 314 19.58984375 314.0078125 c 1
 19.58984375 330.015625 l 1
 148.28515625 330.015625 l 1
 148.21484375 314.21875 l 1
 148.21484375 314.21875 124.37890625 300.71875 147.30078125 270.765625 c 2
 185.20703125 209.0546875 l 1
 179.12109375 208.9140625 l 1
 175.88671875 206.5234375 l 1
 164.42578125 206.5234375 l 1
 164.00390625 203.8515625 l 1
 157.04296875 200.828125 l 1
 169.06640625 199.6328125 l 1
 171.38671875 202.0234375 l 1
 180.31640625 201.390625 l 1
 184.18359375 204.0625 l 1
 182.63671875 198.3671875 l 1
 194.94140625 213.7890625 l 1
 197.33203125 213.7890625 l 1
 236.87109375 286.0234375 l 1
 236.87109375 286.0234375 254.701171875 305 226.39453125 313.8671875 c 1
 226.53515625 330.015625 l 1
 355.41015625 330.015625 l 5
 355.41015625 313.515625 l 5
 355.41015625 313.515625 341.98828125 310.6328125 322.44140625 284.6875 c 2
 248.17578125 163.03125 l 1
 318.21484375 46.5625 l 1
EndSplineSet
Validated: 33
EndChar

StartChar: y
Encoding: 121 121 95
Width: 415
VWidth: 0
Flags: W
HStem: 310.551 20.0703G<22.4824 161.889 257.443 257.584>
VStem: 12.9395 6.60156<-116.56 -100.193>
LayerCount: 2
Fore
SplineSet
257.583984375 330.55078125 m 5
 257.583984375 330.48046875 l 5
 392.060546875 330.48046875 l 5
 392.060546875 312.04296875 l 5
 392.060546875 312.04296875 373.146484375 306.62890625 353.037109375 257.83203125 c 6
 331.943359375 209.31640625 l 5
 334.263671875 217.26171875 l 5
 331.732421875 216.83984375 l 5
 333.701171875 218.87890625 l 5
 335.529296875 225.27734375 l 5
 334.826171875 223.51953125 l 5
 334.193359375 221.83203125 l 5
 334.193359375 221.83203125 332.365234375 221.41015625 331.029296875 221.41015625 c 4
 329.693359375 221.41015625 334.193359375 223.30859375 334.193359375 223.30859375 c 5
 331.873046875 223.30859375 l 5
 331.873046875 235.96484375 l 5
 329.833984375 237.30078125 l 5
 333.912109375 223.23828125 327.794921875 215.92578125 327.794921875 215.92578125 c 5
 329.623046875 213.67578125 l 5
 329.623046875 211.42578125 l 5
 331.802734375 209.38671875 l 5
 226.271484375 -96 l 6
 151.565429688 -312.184570312 16.373046875 -100.193359375 12.939453125 -116.559570312 c 5
 19.541015625 -58.240234375 l 5
 65.419921875 -37.6796875 l 5
 140.271484375 -180 190.271484375 10 158.287109375 59.54296875 c 5
 58.693359375 256.00390625 l 5
 58.693359375 256.00390625 34.927734375 304.80078125 22.482421875 313.37890625 c 5
 22.482421875 330.62109375 l 5
 161.888671875 330.62109375 l 5
 161.818359375 313.44921875 l 5
 161.818359375 313.44921875 130.037109375 305.08203125 160.904296875 231.60546875 c 6
 211.482421875 128.72265625 l 5
 216.763671875 128.72265625 l 5
 268.201171875 260.22265625 l 5
 268.201171875 260.22265625 286.271484375 303.18359375 257.443359375 312.67578125 c 5
 257.583984375 330.55078125 l 5
EndSplineSet
Validated: 37
EndChar

StartChar: z
Encoding: 122 122 96
Width: 344
VWidth: 0
Flags: W
HStem: 0.245117 75.082<134.18 172.164 183.673 246.492> 258.979 72.3799<86.2812 227.446>
VStem: 294.194 28.543<79.3524 91.6553>
LayerCount: 2
Fore
SplineSet
322.737304688 331.358398438 m 1
 322.666992188 331.358398438 l 1
 322.666992188 249.55078125 l 1
 134.1796875 76.2333984375 l 1
 172.1640625 76.2333984375 l 1
 174.564453125 70.3779296875 l 1
 176.752929688 69.75 l 1
 176.752929688 63.2685546875 l 1
 178.375976562 61.734375 l 1
 180.211914062 61.4560546875 l 1
 179.223632812 59.015625 l 1
 182.259765625 59.294921875 l 1
 182.259765625 63.6162109375 l 1
 183.672851562 67.0322265625 l 1
 180.84765625 70.7265625 l 1
 179.436523438 75.3271484375 l 1
 246.4921875 75.3271484375 l 1
 246.4921875 75.3271484375 293.465820312 74 294.194335938 91.6552734375 c 1
 322.737304688 96.6552734375 l 1
 322.737304688 0.2451171875 l 1
 28.111328125 0.2451171875 l 1
 28.111328125 0.2451171875 28.111328125 0.2451171875 21.2626953125 0.2451171875 c 1
 21.2626953125 63.0263671875 l 1
 21.2626953125 83.44921875 l 1
 24.228515625 85.888671875 l 1
 227.446289062 259.67578125 l 1
 86.28125 258.978515625 l 1
 86.28125 258.978515625 52.771484375 258.212890625 48.111328125 245.666015625 c 1
 21.2626953125 241.622070312 l 1
 21.2626953125 323.760742188 l 1
 21.2626953125 331.358398438 l 1
 314.194335938 331.358398438 l 1
 322.737304688 331.358398438 l 1
EndSplineSet
Validated: 37
EndChar

StartChar: at
Encoding: 64 64 97
Width: 666
VWidth: 0
Flags: W
HStem: 0.112305 72.3604<467.877 531.981>
VStem: 383.669 97.4453<103.034 163.956>
LayerCount: 2
Fore
SplineSet
505.973632812 0.1123046875 m 2
 467.876953125 72.47265625 l 1
 528.623046875 72.47265625 595.541015625 113.439453125 538.94921875 263.9921875 c 0
 495.317382812 380.056640625 383.213867188 404.896484375 295.94921875 381.063476562 c 0
 208.685546875 357.232421875 133.661132812 299.056640625 114.436523438 188.608398438 c 0
 95.6455078125 80.4638671875 152.165039062 -77.2880859375 346.565429688 -66.34375 c 0
 373.205078125 -64.83203125 368.380859375 -56.408203125 371.333007812 -61.3759765625 c 0
 374.28515625 -66.34375 358.4453125 -69.3681640625 349.516601562 -76.2802734375 c 0
 340.588867188 -83.263671875 238.420898438 -139.783203125 165.053710938 -113 c 0
 91.685546875 -86.2158203125 31.5654296875 11.84765625 25.2294921875 96.3037109375 c 0
 14.3564453125 242.103515625 58.4931640625 347.368164062 207.749023438 431.536132812 c 0
 285.077148438 475.16796875 403.157226562 471.208007812 463.63671875 452.34375 c 0
 517.853515625 435.49609375 586.814453125 388.9921875 622.325195312 276.807617188 c 0
 684.623046875 80 588.623046875 0 510.149414062 0.0400390625 c 0
 508.63671875 0.041015625 507.413085938 0.1123046875 505.973632812 0.1123046875 c 2
504.356445312 29.9404296875 m 1
 505.973632812 26.9169921875 l 1
 505.973632812 0.1123046875 l 1
 389.590820312 0.1123046875 l 1
 383.473632812 9.9404296875 l 1
 383.754882812 29.5966796875 l 1
 313.137695312 -0.3564453125 l 1
 313.137695312 -0.3564453125 226.848632812 -31.7392578125 182.270507812 32.3857421875 c 1
 182.270507812 32.3857421875 153.090820312 66.9091796875 189.793945312 153.041992188 c 0
 199.215820312 175.260742188 295.278320312 217.229492188 295.278320312 217.229492188 c 1
 384.668945312 232.698242188 l 1
 384.668945312 232.698242188 384.959960938 306 254.137695312 238.081054688 c 1
 233.817382812 220.291992188 l 1
 212.731445312 217.174804688 l 1
 212.309570312 295.159179688 l 1
 212.309570312 295.159179688 387.458007812 389.713867188 468.879882812 280.659179688 c 1
 468.879882812 280.659179688 481.114257812 258.299804688 481.114257812 196.846679688 c 0
 481.114257812 135.393554688 481.114257812 62.2841796875 481.114257812 62.2841796875 c 1
 481.114257812 62.2841796875 482.897460938 38.18359375 498.692382812 33.3154296875 c 0
 502.959960938 32 504.356445312 29.9404296875 504.356445312 29.9404296875 c 1
383.739257812 103.034179688 m 1
 383.668945312 103.034179688 l 1
 384.668945312 163.956054688 l 1
 327.293945312 163.604492188 319.856445312 139.502929688 319.856445312 139.502929688 c 1
 278.090820312 164.956054688 269.559570312 129.588867188 269.559570312 129.588867188 c 1
 246.959960938 33 329.004882812 80.2607421875 329.004882812 80.2607421875 c 1
 383.739257812 103.034179688 l 1
EndSplineSet
Validated: 37
EndChar

StartChar: Edieresis
Encoding: 203 203 98
Width: 399
VWidth: 0
Flags: W
HStem: 0.300781 85.9453<177.047 281.73 281.775 334.13> 246.285 59.3281<155.285 204.286> 471.652 80.6719<216.246 254.191>
VStem: 51.1055 104.391<109.427 246.285 305.613 374.699 395.793 465.604> 99.2266 82.2969<615.455 658.544> 215.227 82.2969<615.455 658.544> 348.566 25.0625<421.73 443.061>
LayerCount: 2
Fore
SplineSet
297.5234375 658.543945312 m 5xe6
 297.5234375 615.455078125 l 5
 256.374023438 591.513671875 l 5
 215.2265625 615.455078125 l 5
 215.2265625 658.543945312 l 5
 257.173828125 683.287109375 l 5
 297.5234375 658.543945312 l 5xe6
181.5234375 658.543945312 m 1xee
 181.5234375 615.455078125 l 1
 140.374023438 591.513671875 l 1
 99.2265625 615.455078125 l 1
 99.2265625 658.543945312 l 1
 141.173828125 683.287109375 l 1
 181.5234375 658.543945312 l 1xee
373.62890625 421.73046875 m 1
 348.56640625 421.30859375 l 1
 334.08203125 471.65234375 254.19140625 471.65234375 254.19140625 471.65234375 c 1
 216.24609375 471.65234375 l 1
 216.24609375 471.65234375 162.87890625 475.23828125 156.12890625 442.61328125 c 1
 156.12890625 395.79296875 l 1
 149.23828125 391.29296875 l 1
 148.53515625 387.14453125 l 1
 140.87109375 387.14453125 l 1
 139.04296875 384.12109375 l 1
 138.69140625 380.74609375 l 1
 135.80859375 382.64453125 l 1
 136.16015625 377.01953125 l 1
 141.22265625 377.01953125 l 1
 144.80859375 374.69921875 l 1
 146.56640625 375.96484375 l 1
 149.66015625 379.62109375 l 1
 155.14453125 382.22265625 l 1
 155.21484375 305.61328125 l 1
 195.5 305.61328125 204.29296875 321.35546875 204.29296875 321.35546875 c 1
 316.5 315 329.10546875 326.34765625 329.10546875 326.34765625 c 1
 321.5 302 l 1
 313.00390625 271.91015625 l 2
 301.119140625 246.606445312 226.88671875 246.16796875 226.88671875 246.16796875 c 1
 155.28515625 246.28515625 l 1
 155.49609375 162.39453125 l 2
 157.25390625 142.35546875 167.764648438 86.24609375 230.80078125 86.24609375 c 0
 332.5 86.24609375 342.73046875 117.88671875 342.73046875 117.88671875 c 1
 373.62890625 117.88671875 l 1
 373.62890625 0.37109375 l 1
 342.41015625 0.44140625 281.73046875 0.30078125 281.73046875 0.30078125 c 1
 150.38671875 0.51171875 l 1
 150.24609375 0.37109375 l 1
 25.37109375 0.37109375 l 1
 25.37109375 59.82421875 l 1
 25.37109375 59.82421875 48.99609375 59.33203125 51.10546875 126.62109375 c 2xf6
 51.24609375 416.17578125 l 1
 51.24609375 441.69921875 l 2
 50.33203125 453.86328125 48.01171875 468.27734375 42.38671875 479.73828125 c 0
 38.58984375 486.48828125 33.17578125 492.81640625 25.37109375 497.17578125 c 1
 25.37109375 497.59765625 l 1
 25.37109375 551.90234375 l 1
 25.37109375 552.32421875 l 1
 63.48046875 552.32421875 l 1
 181.39453125 552.32421875 l 1
 373.62890625 552.32421875 l 1
 373.62890625 421.73046875 l 1
EndSplineSet
Validated: 33
EndChar

StartChar: AE
Encoding: 198 198 99
Width: 797
VWidth: 0
Flags: W
HStem: 0.300781 85.9453<567.999 672.683 672.727 725.083> 246.285 59.3281<546.237 595.239> 472.652 79.6719<607.198 645.144>
VStem: 442.109 104.128<233.27 246.285 305.613 375.699 396.793 466.479> 739.519 25.0625<422.73 444.061>
LayerCount: 2
Fore
SplineSet
376.168945312 211.41015625 m 1
 382.376953125 215.4296875 l 2
 378.996639021 216.966543117 377.715914455 218.432346845 377.465443241 219.681397835 c 2
 372.170426451 211.41015625 l 1
 376.168945312 211.41015625 l 1
764.581054688 422.73046875 m 1
 739.518554688 422.30859375 l 1
 725.034179688 472.65234375 645.143554688 472.65234375 645.143554688 472.65234375 c 1
 607.198242188 472.65234375 l 1
 607.198242188 472.65234375 553.831054688 476.23828125 547.081054688 443.61328125 c 1
 547.081054688 396.79296875 l 1
 540.190429688 392.29296875 l 1
 539.487304688 388.14453125 l 1
 531.823242188 388.14453125 l 1
 529.995117188 385.12109375 l 1
 529.643554688 381.74609375 l 1
 526.760742188 383.64453125 l 1
 527.112304688 378.01953125 l 1
 532.174804688 378.01953125 l 1
 535.760742188 375.69921875 l 1
 537.518554688 376.96484375 l 1
 540.612304688 380.62109375 l 1
 546.096679688 383.22265625 l 1
 546.166992188 305.61328125 l 1
 586.452148438 305.61328125 595.245117188 321.35546875 595.245117188 321.35546875 c 1
 707.452148438 315 720.057617188 326.34765625 720.057617188 326.34765625 c 1
 712.452148438 302 l 1
 703.956054688 271.91015625 l 1
 692.071289062 246.606445312 617.838867188 246.16796875 617.838867188 246.16796875 c 1
 546.237304688 246.28515625 l 1
 546.448242188 162.39453125 l 2
 548.206054688 142.35546875 558.716796875 86.24609375 621.752929688 86.24609375 c 0
 723.452148438 86.24609375 733.682617188 117.88671875 733.682617188 117.88671875 c 1
 764.581054688 117.88671875 l 1
 764.581054688 0.37109375 l 1
 733.362304688 0.44140625 672.682617188 0.30078125 672.682617188 0.30078125 c 1
 541.338867188 0.51171875 l 1
 541.198242188 0.37109375 l 1
 416.323242188 0.37109375 l 1
 416.323242188 0.6435546875 l 1
 412.162109375 0.6435546875 l 1
 412.162109375 32.8427734375 l 1
 412.162109375 32.8427734375 425.69140625 50.4443359375 395.073242188 87.322265625 c 2
 364.751953125 123.842773438 l 1
 334.909179688 115.456054688 303.001953125 117.119140625 303.001953125 117.119140625 c 1
 199.3671875 113.376953125 l 1
 165.4140625 56.2001953125 l 1
 159.69921875 34.783203125 167.743164062 32.8427734375 167.743164062 32.8427734375 c 1
 167.743164062 0.6435546875 l 1
 149.399414062 0.6435546875 l 1
 32.4189453125 0.6435546875 l 1
 32.4189453125 33.60546875 l 1
 37.076171875 37.5556640625 43.7783203125 48.5771484375 50.33984375 60.9130859375 c 2
 284.690429688 554.051757812 l 1
 442.109412237 233.26997816 l 1
 442.198242188 416.17578125 l 1
 442.198242188 441.69921875 l 2
 441.284179688 453.86328125 438.963867188 468.27734375 433.338867188 479.73828125 c 0
 429.541992188 486.48828125 424.127929688 492.81640625 416.323242188 497.17578125 c 1
 416.323242188 497.59765625 l 1
 416.323242188 551.90234375 l 1
 416.323242188 552.32421875 l 1
 454.432617188 552.32421875 l 1
 572.346679688 552.32421875 l 1
 764.581054688 552.32421875 l 1
 764.581054688 422.73046875 l 1
355.335942037 211.41015625 m 1
 349.006835938 220.974609375 l 1
 349.006835938 226.51953125 l 1
 337.578125 227.767578125 l 1
 287.325195312 354.354492188 l 1
 271.592773438 319.55859375 l 2
 270.60546875 320.807617188 268.982421875 322.748046875 267.147460938 324.133789062 c 0
 264.255859375 326.3515625 261.010742188 339.243164062 257.412109375 325.174804688 c 1
 259.880859375 322.470703125 l 1
 259.104492188 319.55859375 l 1
 263.125976562 316.716796875 l 1
 265.948242188 307.22265625 l 1
 219.749023438 184.03125 l 1
 269.629882812 190.893554688 280.018554688 217.85546875 280.018554688 217.85546875 c 1
 323.0546875 215.637695312 303.874023438 214.875 327.506835938 215.013671875 c 1
 343.857421875 201.844726562 l 1
 343.857421875 211.41015625 l 1
 355.335942037 211.41015625 l 1
EndSplineSet
Validated: 33
EndChar

StartChar: Ecircumflex
Encoding: 202 202 100
Width: 399
VWidth: 0
Flags: W
HStem: 0.300781 85.9453<177.047 281.73 281.775 334.13> 246.285 59.3281<155.285 204.286> 471.652 80.6719<216.246 254.191>
VStem: 51.1055 104.391<109.427 246.285 305.613 374.699 395.793 465.604> 348.566 25.0625<421.73 443.061>
LayerCount: 2
Fore
SplineSet
230.615234375 616.080078125 m 5
 230.615234375 616.080078125 225.487304688 625.799804688 204.05859375 652.309570312 c 5
 181.03515625 631.2421875 175.372070312 619.428710938 175.372070312 619.428710938 c 5
 175.372070312 619.428710938 112.4921875 607.595703125 111.790039062 607.978515625 c 4
 107.29296875 610.434570312 191.333007812 723.370117188 203.260742188 739.348632812 c 4
 203.67578125 740.178710938 204.090820312 741.0390625 204.537109375 741.96484375 c 6
 204.537109375 741.96484375 294.190429688 605.905273438 289.182617188 603.544921875 c 4
 288.44921875 603.194335938 230.615234375 616.080078125 230.615234375 616.080078125 c 5
373.62890625 421.73046875 m 1
 348.56640625 421.30859375 l 1
 334.08203125 471.65234375 254.19140625 471.65234375 254.19140625 471.65234375 c 1
 216.24609375 471.65234375 l 1
 216.24609375 471.65234375 162.87890625 475.23828125 156.12890625 442.61328125 c 1
 156.12890625 395.79296875 l 1
 149.23828125 391.29296875 l 1
 148.53515625 387.14453125 l 1
 140.87109375 387.14453125 l 1
 139.04296875 384.12109375 l 1
 138.69140625 380.74609375 l 1
 135.80859375 382.64453125 l 1
 136.16015625 377.01953125 l 1
 141.22265625 377.01953125 l 1
 144.80859375 374.69921875 l 1
 146.56640625 375.96484375 l 1
 149.66015625 379.62109375 l 1
 155.14453125 382.22265625 l 1
 155.21484375 305.61328125 l 1
 195.5 305.61328125 204.29296875 321.35546875 204.29296875 321.35546875 c 1
 316.5 315 329.10546875 326.34765625 329.10546875 326.34765625 c 1
 321.5 302 l 1
 313.00390625 271.91015625 l 2
 301.119140625 246.606445312 226.88671875 246.16796875 226.88671875 246.16796875 c 1
 155.28515625 246.28515625 l 1
 155.49609375 162.39453125 l 2
 157.25390625 142.35546875 167.764648438 86.24609375 230.80078125 86.24609375 c 0
 332.5 86.24609375 342.73046875 117.88671875 342.73046875 117.88671875 c 1
 373.62890625 117.88671875 l 1
 373.62890625 0.37109375 l 1
 342.41015625 0.44140625 281.73046875 0.30078125 281.73046875 0.30078125 c 1
 150.38671875 0.51171875 l 1
 150.24609375 0.37109375 l 1
 25.37109375 0.37109375 l 1
 25.37109375 59.82421875 l 1
 25.37109375 59.82421875 48.99609375 59.33203125 51.10546875 126.62109375 c 2
 51.24609375 416.17578125 l 1
 51.24609375 441.69921875 l 2
 50.33203125 453.86328125 48.01171875 468.27734375 42.38671875 479.73828125 c 0
 38.58984375 486.48828125 33.17578125 492.81640625 25.37109375 497.17578125 c 1
 25.37109375 497.59765625 l 1
 25.37109375 551.90234375 l 1
 25.37109375 552.32421875 l 1
 63.48046875 552.32421875 l 1
 181.39453125 552.32421875 l 1
 373.62890625 552.32421875 l 1
 373.62890625 421.73046875 l 1
EndSplineSet
Validated: 33
EndChar

StartChar: Eacute
Encoding: 201 201 101
Width: 399
VWidth: 0
Flags: W
HStem: 0.300781 85.9453<177.047 281.73 281.775 334.13> 246.285 59.3281<155.285 204.286> 471.652 80.6719<216.246 254.191>
VStem: 51.1055 104.391<109.427 246.285 305.613 374.699 395.793 465.604> 348.566 25.0625<421.73 443.061>
LayerCount: 2
Fore
SplineSet
258.203125 716.771484375 m 5
 258.203125 716.771484375 274.413085938 678.947265625 255.655273438 648.55078125 c 4
 243.452148438 628.77734375 193.116210938 608.322265625 193.116210938 608.322265625 c 6
 175.895507812 597.244140625 140.64453125 592.875 140.64453125 592.875 c 5
 222.516601562 640.234375 189.620117188 677.708984375 189.620117188 677.708984375 c 5
 211.376953125 721.125 l 5
 258.203125 716.771484375 l 5
373.62890625 421.73046875 m 1
 348.56640625 421.30859375 l 1
 334.08203125 471.65234375 254.19140625 471.65234375 254.19140625 471.65234375 c 1
 216.24609375 471.65234375 l 1
 216.24609375 471.65234375 162.87890625 475.23828125 156.12890625 442.61328125 c 1
 156.12890625 395.79296875 l 1
 149.23828125 391.29296875 l 1
 148.53515625 387.14453125 l 1
 140.87109375 387.14453125 l 1
 139.04296875 384.12109375 l 1
 138.69140625 380.74609375 l 1
 135.80859375 382.64453125 l 1
 136.16015625 377.01953125 l 1
 141.22265625 377.01953125 l 1
 144.80859375 374.69921875 l 1
 146.56640625 375.96484375 l 1
 149.66015625 379.62109375 l 1
 155.14453125 382.22265625 l 1
 155.21484375 305.61328125 l 1
 195.5 305.61328125 204.29296875 321.35546875 204.29296875 321.35546875 c 1
 316.5 315 329.10546875 326.34765625 329.10546875 326.34765625 c 1
 321.5 302 l 1
 313.00390625 271.91015625 l 2
 301.119140625 246.606445312 226.88671875 246.16796875 226.88671875 246.16796875 c 1
 155.28515625 246.28515625 l 1
 155.49609375 162.39453125 l 2
 157.25390625 142.35546875 167.764648438 86.24609375 230.80078125 86.24609375 c 0
 332.5 86.24609375 342.73046875 117.88671875 342.73046875 117.88671875 c 1
 373.62890625 117.88671875 l 1
 373.62890625 0.37109375 l 1
 342.41015625 0.44140625 281.73046875 0.30078125 281.73046875 0.30078125 c 1
 150.38671875 0.51171875 l 1
 150.24609375 0.37109375 l 1
 25.37109375 0.37109375 l 1
 25.37109375 59.82421875 l 1
 25.37109375 59.82421875 48.99609375 59.33203125 51.10546875 126.62109375 c 2
 51.24609375 416.17578125 l 1
 51.24609375 441.69921875 l 2
 50.33203125 453.86328125 48.01171875 468.27734375 42.38671875 479.73828125 c 0
 38.58984375 486.48828125 33.17578125 492.81640625 25.37109375 497.17578125 c 1
 25.37109375 497.59765625 l 1
 25.37109375 551.90234375 l 1
 25.37109375 552.32421875 l 1
 63.48046875 552.32421875 l 1
 181.39453125 552.32421875 l 1
 373.62890625 552.32421875 l 1
 373.62890625 421.73046875 l 1
EndSplineSet
Validated: 33
EndChar

StartChar: Egrave
Encoding: 200 200 102
Width: 399
VWidth: 0
Flags: W
HStem: 0.300781 85.9453<177.047 281.73 281.775 334.13> 246.285 59.3281<155.285 204.286> 471.652 80.6719<216.246 254.191>
VStem: 51.1055 104.391<109.427 246.285 305.613 374.699 395.793 465.604> 348.566 25.0625<421.73 443.061>
LayerCount: 2
Fore
SplineSet
150.796875 729.771484375 m 5
 150.796875 729.771484375 134.586914062 691.947265625 153.344726562 661.55078125 c 4
 165.547851562 641.77734375 215.883789062 621.322265625 215.883789062 621.322265625 c 6
 233.104492188 610.244140625 268.35546875 605.875 268.35546875 605.875 c 5
 186.483398438 653.234375 219.379882812 690.708984375 219.379882812 690.708984375 c 5
 197.623046875 734.125 l 5
 150.796875 729.771484375 l 5
373.62890625 421.73046875 m 1
 348.56640625 421.30859375 l 1
 334.08203125 471.65234375 254.19140625 471.65234375 254.19140625 471.65234375 c 1
 216.24609375 471.65234375 l 1
 216.24609375 471.65234375 162.87890625 475.23828125 156.12890625 442.61328125 c 1
 156.12890625 395.79296875 l 1
 149.23828125 391.29296875 l 1
 148.53515625 387.14453125 l 1
 140.87109375 387.14453125 l 1
 139.04296875 384.12109375 l 1
 138.69140625 380.74609375 l 1
 135.80859375 382.64453125 l 1
 136.16015625 377.01953125 l 1
 141.22265625 377.01953125 l 1
 144.80859375 374.69921875 l 1
 146.56640625 375.96484375 l 1
 149.66015625 379.62109375 l 1
 155.14453125 382.22265625 l 1
 155.21484375 305.61328125 l 1
 195.5 305.61328125 204.29296875 321.35546875 204.29296875 321.35546875 c 1
 316.5 315 329.10546875 326.34765625 329.10546875 326.34765625 c 1
 321.5 302 l 1
 313.00390625 271.91015625 l 2
 301.119140625 246.606445312 226.88671875 246.16796875 226.88671875 246.16796875 c 1
 155.28515625 246.28515625 l 1
 155.49609375 162.39453125 l 2
 157.25390625 142.35546875 167.764648438 86.24609375 230.80078125 86.24609375 c 0
 332.5 86.24609375 342.73046875 117.88671875 342.73046875 117.88671875 c 1
 373.62890625 117.88671875 l 1
 373.62890625 0.37109375 l 1
 342.41015625 0.44140625 281.73046875 0.30078125 281.73046875 0.30078125 c 1
 150.38671875 0.51171875 l 1
 150.24609375 0.37109375 l 1
 25.37109375 0.37109375 l 1
 25.37109375 59.82421875 l 1
 25.37109375 59.82421875 48.99609375 59.33203125 51.10546875 126.62109375 c 2
 51.24609375 416.17578125 l 1
 51.24609375 441.69921875 l 2
 50.33203125 453.86328125 48.01171875 468.27734375 42.38671875 479.73828125 c 0
 38.58984375 486.48828125 33.17578125 492.81640625 25.37109375 497.17578125 c 1
 25.37109375 497.59765625 l 1
 25.37109375 551.90234375 l 1
 25.37109375 552.32421875 l 1
 63.48046875 552.32421875 l 1
 181.39453125 552.32421875 l 1
 373.62890625 552.32421875 l 1
 373.62890625 421.73046875 l 1
EndSplineSet
Validated: 41
EndChar

StartChar: Adieresis
Encoding: 196 196 103
Width: 577
VWidth: 0
Flags: W
HStem: 0.643555 21G<31.4668 166.791 411.21 545.533> 534.052 20G<274.234 293.553>
VStem: 188.227 82.2969<615.455 658.544> 304.227 82.2969<615.455 658.544>
LayerCount: 2
Fore
SplineSet
518.640625 79.716796875 m 2
 527.319335938 62.0419921875 538.900390625 39.21875 545.533203125 33.60546875 c 1
 545.533203125 0.6435546875 l 1
 433.645507812 0.6435546875 l 1
 411.209960938 0.6435546875 l 1
 411.209960938 32.8427734375 l 1
 411.209960938 32.8427734375 424.739336973 50.4440910677 394.12109375 87.322265625 c 2
 363.799804688 123.842773438 l 1
 333.95703125 115.456054688 302.049804688 117.119140625 302.049804688 117.119140625 c 1
 198.415039062 113.376953125 l 1
 164.461914062 56.2001953125 l 1
 158.747070312 34.783203125 166.791015625 32.8427734375 166.791015625 32.8427734375 c 1
 166.791015625 0.6435546875 l 1
 148.447265625 0.6435546875 l 1
 31.466796875 0.6435546875 l 1
 31.466796875 33.60546875 l 1
 36.1240234375 37.5556640625 42.826171875 48.5771484375 49.3876953125 60.9130859375 c 2
 283.73828125 554.051757812 l 1
 502.390625 108.491210938 l 1
 518.640625 79.716796875 l 2
375.216796875 211.41015625 m 1
 381.424804688 215.4296875 l 1
 371.971679688 219.727539062 378.938476562 223.469726562 378.938476562 223.469726562 c 1
 362.940429688 198.479492188 l 1
 348.0546875 220.974609375 l 1
 348.0546875 226.51953125 l 1
 336.625976562 227.767578125 l 1
 286.373046875 354.354492188 l 1
 270.640625 319.55859375 l 2
 269.653320312 320.807617188 268.030273438 322.748046875 266.1953125 324.133789062 c 0
 263.303710938 326.3515625 260.05859375 339.243164062 256.459960938 325.174804688 c 1
 258.928710938 322.470703125 l 1
 258.15234375 319.55859375 l 1
 262.173828125 316.716796875 l 1
 264.99609375 307.22265625 l 1
 218.796875 184.03125 l 1
 268.677734375 190.893554688 279.06640625 217.85546875 279.06640625 217.85546875 c 1
 322.102539062 215.637695312 302.921875 214.875 326.5546875 215.013671875 c 1
 342.905273438 201.844726562 l 1
 342.905273438 211.41015625 l 1
 375.216796875 211.41015625 l 1
386.5234375 658.543945312 m 5
 386.5234375 615.455078125 l 5
 345.374023438 591.513671875 l 5
 304.2265625 615.455078125 l 5
 304.2265625 658.543945312 l 5
 346.173828125 683.287109375 l 5
 386.5234375 658.543945312 l 5
270.5234375 658.543945312 m 5
 270.5234375 615.455078125 l 5
 229.374023438 591.513671875 l 5
 188.2265625 615.455078125 l 5
 188.2265625 658.543945312 l 5
 230.173828125 683.287109375 l 5
 270.5234375 658.543945312 l 5
EndSplineSet
Validated: 37
EndChar

StartChar: Acircumflex
Encoding: 194 194 104
Width: 577
VWidth: 0
Flags: W
HStem: 0.643555 21G<31.4668 166.791 411.21 545.533> 534.052 20G<274.234 293.553>
LayerCount: 2
Fore
SplineSet
518.640625 79.716796875 m 6
 527.319335938 62.0419921875 538.900390625 39.21875 545.533203125 33.60546875 c 5
 545.533203125 0.6435546875 l 5
 433.645507812 0.6435546875 l 5
 411.209960938 0.6435546875 l 5
 411.209960938 32.8427734375 l 5
 411.209960938 32.8427734375 424.739336973 50.4440910677 394.12109375 87.322265625 c 6
 363.799804688 123.842773438 l 5
 333.95703125 115.456054688 302.049804688 117.119140625 302.049804688 117.119140625 c 5
 198.415039062 113.376953125 l 5
 164.461914062 56.2001953125 l 5
 158.747070312 34.783203125 166.791015625 32.8427734375 166.791015625 32.8427734375 c 5
 166.791015625 0.6435546875 l 5
 148.447265625 0.6435546875 l 5
 31.466796875 0.6435546875 l 5
 31.466796875 33.60546875 l 5
 36.1240234375 37.5556640625 42.826171875 48.5771484375 49.3876953125 60.9130859375 c 6
 283.73828125 554.051757812 l 5
 502.390625 108.491210938 l 5
 518.640625 79.716796875 l 6
375.216796875 211.41015625 m 5
 381.424804688 215.4296875 l 5
 371.971679688 219.727539062 378.938476562 223.469726562 378.938476562 223.469726562 c 5
 362.940429688 198.479492188 l 5
 348.0546875 220.974609375 l 5
 348.0546875 226.51953125 l 5
 336.625976562 227.767578125 l 5
 286.373046875 354.354492188 l 5
 270.640625 319.55859375 l 6
 269.653320312 320.807617188 268.030273438 322.748046875 266.1953125 324.133789062 c 4
 263.303710938 326.3515625 260.05859375 339.243164062 256.459960938 325.174804688 c 5
 258.928710938 322.470703125 l 5
 258.15234375 319.55859375 l 5
 262.173828125 316.716796875 l 5
 264.99609375 307.22265625 l 5
 218.796875 184.03125 l 5
 268.677734375 190.893554688 279.06640625 217.85546875 279.06640625 217.85546875 c 5
 322.102539062 215.637695312 302.921875 214.875 326.5546875 215.013671875 c 5
 342.905273438 201.844726562 l 5
 342.905273438 211.41015625 l 5
 375.216796875 211.41015625 l 5
316.615234375 616.080078125 m 1
 316.615234375 616.080078125 311.487304688 625.799804688 290.05859375 652.309570312 c 1
 267.03515625 631.2421875 261.372070312 619.428710938 261.372070312 619.428710938 c 1
 261.372070312 619.428710938 198.4921875 607.595703125 197.790039062 607.978515625 c 0
 193.29296875 610.434570312 277.333007812 723.370117188 289.260742188 739.348632812 c 0
 289.67578125 740.178710938 290.090820312 741.0390625 290.537109375 741.96484375 c 2
 290.537109375 741.96484375 380.190429688 605.905273438 375.182617188 603.544921875 c 0
 374.44921875 603.194335938 316.615234375 616.080078125 316.615234375 616.080078125 c 1
EndSplineSet
Validated: 37
EndChar

StartChar: Agrave
Encoding: 192 192 105
Width: 577
VWidth: 0
Flags: W
HStem: 0.643555 21G<31.4668 166.791 411.21 545.533> 534.052 20G<274.234 293.553>
LayerCount: 2
Fore
SplineSet
518.640625 79.716796875 m 6
 527.319335938 62.0419921875 538.900390625 39.21875 545.533203125 33.60546875 c 5
 545.533203125 0.6435546875 l 5
 433.645507812 0.6435546875 l 5
 411.209960938 0.6435546875 l 5
 411.209960938 32.8427734375 l 5
 411.209960938 32.8427734375 424.739336973 50.4440910677 394.12109375 87.322265625 c 6
 363.799804688 123.842773438 l 5
 333.95703125 115.456054688 302.049804688 117.119140625 302.049804688 117.119140625 c 5
 198.415039062 113.376953125 l 5
 164.461914062 56.2001953125 l 5
 158.747070312 34.783203125 166.791015625 32.8427734375 166.791015625 32.8427734375 c 5
 166.791015625 0.6435546875 l 5
 148.447265625 0.6435546875 l 5
 31.466796875 0.6435546875 l 5
 31.466796875 33.60546875 l 5
 36.1240234375 37.5556640625 42.826171875 48.5771484375 49.3876953125 60.9130859375 c 6
 283.73828125 554.051757812 l 5
 502.390625 108.491210938 l 5
 518.640625 79.716796875 l 6
375.216796875 211.41015625 m 5
 381.424804688 215.4296875 l 5
 371.971679688 219.727539062 378.938476562 223.469726562 378.938476562 223.469726562 c 5
 362.940429688 198.479492188 l 5
 348.0546875 220.974609375 l 5
 348.0546875 226.51953125 l 5
 336.625976562 227.767578125 l 5
 286.373046875 354.354492188 l 5
 270.640625 319.55859375 l 6
 269.653320312 320.807617188 268.030273438 322.748046875 266.1953125 324.133789062 c 4
 263.303710938 326.3515625 260.05859375 339.243164062 256.459960938 325.174804688 c 5
 258.928710938 322.470703125 l 5
 258.15234375 319.55859375 l 5
 262.173828125 316.716796875 l 5
 264.99609375 307.22265625 l 5
 218.796875 184.03125 l 5
 268.677734375 190.893554688 279.06640625 217.85546875 279.06640625 217.85546875 c 5
 322.102539062 215.637695312 302.921875 214.875 326.5546875 215.013671875 c 5
 342.905273438 201.844726562 l 5
 342.905273438 211.41015625 l 5
 375.216796875 211.41015625 l 5
245.796875 729.771484375 m 1
 245.796875 729.771484375 229.586914062 691.947265625 248.344726562 661.55078125 c 0
 260.547851562 641.77734375 310.883789062 621.322265625 310.883789062 621.322265625 c 2
 328.104492188 610.244140625 363.35546875 605.875 363.35546875 605.875 c 1
 281.483398438 653.234375 314.379882812 690.708984375 314.379882812 690.708984375 c 1
 292.623046875 734.125 l 1
 245.796875 729.771484375 l 1
EndSplineSet
Validated: 37
EndChar

StartChar: Aacute
Encoding: 193 193 106
Width: 577
VWidth: 0
Flags: W
HStem: 0.643555 21G<31.4668 166.791 411.21 545.533> 534.052 20G<274.234 293.553>
LayerCount: 2
Fore
SplineSet
518.640625 79.716796875 m 6
 527.319335938 62.0419921875 538.900390625 39.21875 545.533203125 33.60546875 c 5
 545.533203125 0.6435546875 l 5
 433.645507812 0.6435546875 l 5
 411.209960938 0.6435546875 l 5
 411.209960938 32.8427734375 l 5
 411.209960938 32.8427734375 424.739336973 50.4440910677 394.12109375 87.322265625 c 6
 363.799804688 123.842773438 l 5
 333.95703125 115.456054688 302.049804688 117.119140625 302.049804688 117.119140625 c 5
 198.415039062 113.376953125 l 5
 164.461914062 56.2001953125 l 5
 158.747070312 34.783203125 166.791015625 32.8427734375 166.791015625 32.8427734375 c 5
 166.791015625 0.6435546875 l 5
 148.447265625 0.6435546875 l 5
 31.466796875 0.6435546875 l 5
 31.466796875 33.60546875 l 5
 36.1240234375 37.5556640625 42.826171875 48.5771484375 49.3876953125 60.9130859375 c 6
 283.73828125 554.051757812 l 5
 502.390625 108.491210938 l 5
 518.640625 79.716796875 l 6
375.216796875 211.41015625 m 5
 381.424804688 215.4296875 l 5
 371.971679688 219.727539062 378.938476562 223.469726562 378.938476562 223.469726562 c 5
 362.940429688 198.479492188 l 5
 348.0546875 220.974609375 l 5
 348.0546875 226.51953125 l 5
 336.625976562 227.767578125 l 5
 286.373046875 354.354492188 l 5
 270.640625 319.55859375 l 6
 269.653320312 320.807617188 268.030273438 322.748046875 266.1953125 324.133789062 c 4
 263.303710938 326.3515625 260.05859375 339.243164062 256.459960938 325.174804688 c 5
 258.928710938 322.470703125 l 5
 258.15234375 319.55859375 l 5
 262.173828125 316.716796875 l 5
 264.99609375 307.22265625 l 5
 218.796875 184.03125 l 5
 268.677734375 190.893554688 279.06640625 217.85546875 279.06640625 217.85546875 c 5
 322.102539062 215.637695312 302.921875 214.875 326.5546875 215.013671875 c 5
 342.905273438 201.844726562 l 5
 342.905273438 211.41015625 l 5
 375.216796875 211.41015625 l 5
341.203125 729.771484375 m 1
 341.203125 729.771484375 357.413085938 691.947265625 338.655273438 661.55078125 c 0
 326.452148438 641.77734375 276.116210938 621.322265625 276.116210938 621.322265625 c 2
 258.895507812 610.244140625 223.64453125 605.875 223.64453125 605.875 c 1
 305.516601562 653.234375 272.620117188 690.708984375 272.620117188 690.708984375 c 1
 294.376953125 734.125 l 1
 341.203125 729.771484375 l 1
EndSplineSet
Validated: 37
EndChar

StartChar: Atilde
Encoding: 195 195 107
Width: 577
VWidth: 0
Flags: W
HStem: 0.643555 21G<31.4668 166.791 411.21 545.533> 534.052 20G<274.234 293.553>
LayerCount: 2
Fore
SplineSet
518.640625 79.716796875 m 6
 527.319335938 62.0419921875 538.900390625 39.21875 545.533203125 33.60546875 c 5
 545.533203125 0.6435546875 l 5
 433.645507812 0.6435546875 l 5
 411.209960938 0.6435546875 l 5
 411.209960938 32.8427734375 l 5
 411.209960938 32.8427734375 424.739336973 50.4440910677 394.12109375 87.322265625 c 6
 363.799804688 123.842773438 l 5
 333.95703125 115.456054688 302.049804688 117.119140625 302.049804688 117.119140625 c 5
 198.415039062 113.376953125 l 5
 164.461914062 56.2001953125 l 5
 158.747070312 34.783203125 166.791015625 32.8427734375 166.791015625 32.8427734375 c 5
 166.791015625 0.6435546875 l 5
 148.447265625 0.6435546875 l 5
 31.466796875 0.6435546875 l 5
 31.466796875 33.60546875 l 5
 36.1240234375 37.5556640625 42.826171875 48.5771484375 49.3876953125 60.9130859375 c 6
 283.73828125 554.051757812 l 5
 502.390625 108.491210938 l 5
 518.640625 79.716796875 l 6
375.216796875 211.41015625 m 5
 381.424804688 215.4296875 l 5
 371.971679688 219.727539062 378.938476562 223.469726562 378.938476562 223.469726562 c 5
 362.940429688 198.479492188 l 5
 348.0546875 220.974609375 l 5
 348.0546875 226.51953125 l 5
 336.625976562 227.767578125 l 5
 286.373046875 354.354492188 l 5
 270.640625 319.55859375 l 6
 269.653320312 320.807617188 268.030273438 322.748046875 266.1953125 324.133789062 c 4
 263.303710938 326.3515625 260.05859375 339.243164062 256.459960938 325.174804688 c 5
 258.928710938 322.470703125 l 5
 258.15234375 319.55859375 l 5
 262.173828125 316.716796875 l 5
 264.99609375 307.22265625 l 5
 218.796875 184.03125 l 5
 268.677734375 190.893554688 279.06640625 217.85546875 279.06640625 217.85546875 c 5
 322.102539062 215.637695312 302.921875 214.875 326.5546875 215.013671875 c 5
 342.905273438 201.844726562 l 5
 342.905273438 211.41015625 l 5
 375.216796875 211.41015625 l 5
444.96484375 669.662109375 m 0
 354.295898438 617.53125 353.83984375 583.299804688 288.66015625 616.556640625 c 0
 227.37890625 647.823242188 184.537109375 614.362304688 184.955078125 614.362304688 c 0
 185.373046875 614.362304688 184.955078125 657.212890625 184.955078125 657.212890625 c 1
 184.955078125 657.212890625 221.045898438 691.786132812 272.459960938 671.024414062 c 0
 325.219726562 649.719726562 344.234375 631.807617188 444.96484375 669.662109375 c 0
EndSplineSet
Validated: 37
EndChar

StartChar: questiondown
Encoding: 191 191 108
Width: 302
VWidth: 0
Flags: W
HStem: -0.324219 67.8203<162.722 199.401> 452.096 102.871<181.661 235.521>
VStem: 19.2451 264.008
LayerCount: 2
Fore
SplineSet
235.521484375 452.095703125 m 1
 181.661132812 452.095703125 l 1
 151.733398438 503.532226562 l 1
 181.661132812 554.966796875 l 1
 235.521484375 554.966796875 l 1
 266.450195312 502.532226562 l 1
 235.521484375 452.095703125 l 1
150.627929688 -0.32421875 m 1
 31.591796875 1 19.2451171875 123.95703125 19.2451171875 123.95703125 c 1
 12.591796875 207 73.591796875 250 142.791992188 271.51953125 c 0
 187.6953125 285.483398438 182.591796875 407 182.591796875 407 c 1
 230.591796875 420 233.862304688 393.84765625 233.862304688 393.84765625 c 1
 289.591796875 214 182.721679688 205.94921875 182.721679688 205.94921875 c 1
 85.591796875 192 98.9091796875 131.28515625 98.9091796875 131.28515625 c 1
 103.591796875 66 162.721679688 67.49609375 162.721679688 67.49609375 c 1
 232.591796875 67.49609375 261.651367188 150.36328125 261.651367188 150.36328125 c 1
 261.651367188 150.36328125 283.252929688 43.06640625 283.252929688 40.46484375 c 0
 283.252929688 37.86328125 199.401367188 -0.03515625 199.401367188 -0.03515625 c 1
 150.627929688 -0.32421875 l 1
EndSplineSet
Validated: 33
EndChar

StartChar: exclamdown
Encoding: 161 161 109
Width: 160
VWidth: 0
Flags: W
LayerCount: 2
Fore
SplineSet
50.5 445.095703125 m 1
 104.359375 445.095703125 l 1
 134.287109375 496.532226562 l 1
 104.359375 547.966796875 l 1
 50.5 547.966796875 l 1
 19.5703125 495.532226562 l 1
 50.5 445.095703125 l 1
45.4296875 1 m 2
 140.4296875 -12 l 2
 140.4296875 -12 132.4296875 16.40234375 131.830078125 22.75 c 2
 131.4296875 27 l 1
 105.546875 373.143554688 l 2
 104.653320312 385.094726562 96.064453125 394.530273438 84.505859375 397.436523438 c 2
 54.4296875 405 l 2
 54.4296875 405 55.5546875 399.841796875 54.4296875 384.657226562 c 2
 28.1484375 24.6953125 l 2
 26.31640625 -0.033203125 45.4296875 1 45.4296875 1 c 2
EndSplineSet
Validated: 9
EndChar

StartChar: currency
Encoding: 164 164 110
Width: 324
VWidth: 0
Flags: W
HStem: -0.224609 21G<161.227 170.14> 313.057 20G<209.848 219.938> 531.025 20G<198.595 208.331>
VStem: 126.773 0.140625<224.494 249.385>
LayerCount: 2
Fore
SplineSet
96.6796875 255.220703125 m 2
 89.4375 203.259765625 l 1
 117.5625 171.548828125 l 1
 121.921875 175.908203125 l 1
 121.921875 90.197265625 l 1
 15.890625 318.009765625 l 1
 123.609375 549.478515625 l 1
 123.046875 525.431640625 l 1
 130.2890625 513.900390625 132.8203125 507.009765625 132.8203125 507.009765625 c 2
 126.3515625 516.361328125 120.5859375 517.837890625 120.5859375 517.837890625 c 1
 86.90625 392.259765625 l 1
 99.84375 384.947265625 107.71875 369.478515625 108.140625 368.494140625 c 1
 100.8984375 380.728515625 83.6015625 380.025390625 83.6015625 380.025390625 c 1
 74.3203125 327.501953125 l 2
 73.0546875 320.189453125 76.4296875 312.173828125 83.8828125 312.103515625 c 2
 103.0078125 311.892578125 l 1
 132.609375 315.900390625 101.390625 332.494140625 101.390625 332.494140625 c 1
 124.5234375 327.150390625 129.796875 304.298828125 129.796875 304.298828125 c 1
 131.90625 308.587890625 126.3515625 326.166015625 126.2109375 326.658203125 c 1
 135.984375 321.033203125 143.0859375 309.150390625 143.5078125 308.376953125 c 1
 123.328125 344.869140625 130.5703125 364.908203125 130.5703125 364.908203125 c 1
 133.453125 376.439453125 161.4375 386.564453125 161.4375 386.564453125 c 1
 189.421875 391.626953125 187.59375 411.103515625 187.59375 411.103515625 c 1
 186.1171875 432.759765625 161.4375 433.462890625 161.4375 433.462890625 c 1
 133.5234375 435.291015625 130.5703125 407.517578125 130.5703125 407.517578125 c 1
 130.5703125 407.517578125 126.984375 419.751953125 126.984375 420.525390625 c 0
 126.984375 421.298828125 131.34375 434.236328125 131.34375 434.236328125 c 1
 130.640625 443.587890625 l 1
 138.5859375 458.001953125 l 1
 133.5234375 481.837890625 144.3515625 491.189453125 144.3515625 491.189453125 c 2
 142.171875 472.416015625 152.296875 458.001953125 152.296875 458.001953125 c 1
 173.953125 450.759765625 189.84375 468.126953125 189.84375 468.126953125 c 1
 190.546875 463.064453125 187.6640625 458.001953125 183.375 455.892578125 c 0
 167.4140625 447.876953125 165.3046875 442.884765625 165.3046875 442.884765625 c 1
 202.078125 434.939453125 198.4921875 410.400390625 198.4921875 410.400390625 c 1
 199.1953125 387.337890625 168.1875 375.736328125 161.5078125 372.853515625 c 0
 133.1015625 360.548828125 161.5078125 338.962890625 161.5078125 338.962890625 c 1
 172.8984375 325.251953125 179.71875 303.595703125 179.71875 303.595703125 c 1
 180.421875 317.306640625 196.3125 326.658203125 196.3125 326.658203125 c 2
 184.78125 307.884765625 191.953125 301.416015625 191.953125 301.416015625 c 1
 205.453125 330.244140625 219.9375 333.056640625 219.9375 333.056640625 c 1
 199.7578125 316.462890625 216.4921875 312.244140625 216.4921875 312.244140625 c 1
 235.6171875 312.244140625 l 2
 245.6015625 312.244140625 252.9140625 321.736328125 250.2421875 331.439453125 c 2
 238.1484375 375.736328125 l 2
 232.453125 388.533203125 212.6953125 366.173828125 212.203125 365.611328125 c 1
 222.6796875 386.916015625 235.1953125 395.142578125 235.1953125 395.142578125 c 1
 201.375 512.072265625 l 2
 197.015625 518.541015625 189.84375 505.603515625 189.84375 505.603515625 c 1
 189.84375 515.728515625 198.4921875 526.556640625 198.4921875 526.556640625 c 1
 199.0546875 551.025390625 l 1
 308.109375 315.900390625 l 1
 214.9453125 116.634765625 l 1
 210.5859375 128.869140625 l 1
 206.2265625 125.986328125 l 1
 200.4609375 133.931640625 l 1
 200.4609375 177.947265625 l 1
 208.40625 171.478515625 l 1
 214.171875 176.541015625 l 1
 214.875 182.306640625 l 1
 229.9921875 201.080078125 l 1
 226.40625 232.791015625 l 1
 234.3515625 236.376953125 l 1
 226.40625 247.205078125 l 1
 226.40625 255.150390625 l 1
 202.5703125 250.791015625 196.59375 223.861328125 196.59375 223.861328125 c 1
 196.8046875 247.978515625 l 1
 185.2734375 245.095703125 177.328125 226.322265625 177.328125 226.322265625 c 1
 183.796875 176.541015625 l 1
 151.3125 127.462890625 l 1
 161.2265625 98.634765625 l 1
 139.0078125 63.970703125 l 1
 161.71875 28.603515625 l 1
 183.7265625 50.259765625 l 1
 161.2265625 -0.224609375 l 1
 161.2265625 -0.224609375 132.046875 61.158203125 129.796875 63.970703125 c 0
 131.484375 65.376953125 148.4296875 98.634765625 148.4296875 98.634765625 c 1
 136.1953125 124.580078125 l 1
 161.296875 172.181640625 l 1
 161.2265625 183.009765625 l 2
 162.4921875 229.205078125 126.7734375 249.384765625 126.7734375 249.384765625 c 1
 126.9140625 224.494140625 l 1
 120.65625 254.236328125 97.453125 255.220703125 96.6796875 255.220703125 c 2
EndSplineSet
Validated: 33
EndChar

StartChar: Ograve
Encoding: 210 210 111
Width: 595
VWidth: 0
Flags: W
HStem: 0.419922 108.925<222.934 367.522> 445.892 106.231<228.299 367.004>
VStem: 25.1484 128.558<184.389 346.628> 437.342 132.51<181.988 368.564>
LayerCount: 2
Fore
SplineSet
297.5 552.123046875 m 4
 447.889648438 552.123046875 569.8515625 425.161132812 569.8515625 274.771484375 c 4
 569.8515625 124.381835938 447.958984375 0.419921875 297.5 0.419921875 c 4
 147.041015625 0.419921875 25.1484375 124.381835938 25.1484375 274.771484375 c 4
 25.1484375 425.161132812 147.110351562 552.123046875 297.5 552.123046875 c 4
299.025390625 109.344726562 m 4
 372.525390625 109.344726562 437.341796875 169 437.341796875 276.504882812 c 4
 437.341796875 363 384.525390625 445.891601562 297.361328125 445.891601562 c 4
 228.525390625 445.891601562 162.442382812 382 162.442382812 340.155273438 c 5
 160.778320312 341.75 158.490234375 343.69140625 156.1328125 345.008789062 c 6
 156.1328125 345.008789062 143.444335938 368.65234375 141.918945312 343.899414062 c 5
 146.287109375 339.947265625 l 5
 145.524414062 335.09375 l 5
 152.388671875 331.141601562 l 5
 157.588867188 318.591796875 l 5
 155.0234375 304.5859375 153.706054688 289.956054688 153.706054688 274.702148438 c 4
 153.706054688 159 230.525390625 109.344726562 299.025390625 109.344726562 c 4
250.796875 729.771484375 m 1
 250.796875 729.771484375 234.586914062 691.947265625 253.344726562 661.55078125 c 0
 265.547851562 641.77734375 315.883789062 621.322265625 315.883789062 621.322265625 c 2
 333.104492188 610.244140625 368.35546875 605.875 368.35546875 605.875 c 1
 286.483398438 653.234375 319.379882812 690.708984375 319.379882812 690.708984375 c 1
 297.623046875 734.125 l 1
 250.796875 729.771484375 l 1
EndSplineSet
Validated: 41
EndChar

StartChar: Oacute
Encoding: 211 211 112
Width: 595
VWidth: 0
Flags: W
HStem: 0.419922 108.925<222.934 367.522> 445.892 106.231<228.299 367.004>
VStem: 25.1484 128.558<184.389 346.628> 437.342 132.51<181.988 368.564>
LayerCount: 2
Fore
SplineSet
297.5 552.123046875 m 4
 447.889648438 552.123046875 569.8515625 425.161132812 569.8515625 274.771484375 c 4
 569.8515625 124.381835938 447.958984375 0.419921875 297.5 0.419921875 c 4
 147.041015625 0.419921875 25.1484375 124.381835938 25.1484375 274.771484375 c 4
 25.1484375 425.161132812 147.110351562 552.123046875 297.5 552.123046875 c 4
299.025390625 109.344726562 m 4
 372.525390625 109.344726562 437.341796875 169 437.341796875 276.504882812 c 4
 437.341796875 363 384.525390625 445.891601562 297.361328125 445.891601562 c 4
 228.525390625 445.891601562 162.442382812 382 162.442382812 340.155273438 c 5
 160.778320312 341.75 158.490234375 343.69140625 156.1328125 345.008789062 c 6
 156.1328125 345.008789062 143.444335938 368.65234375 141.918945312 343.899414062 c 5
 146.287109375 339.947265625 l 5
 145.524414062 335.09375 l 5
 152.388671875 331.141601562 l 5
 157.588867188 318.591796875 l 5
 155.0234375 304.5859375 153.706054688 289.956054688 153.706054688 274.702148438 c 4
 153.706054688 159 230.525390625 109.344726562 299.025390625 109.344726562 c 4
351.203125 729.771484375 m 1
 351.203125 729.771484375 367.413085938 691.947265625 348.655273438 661.55078125 c 0
 336.452148438 641.77734375 286.116210938 621.322265625 286.116210938 621.322265625 c 2
 268.895507812 610.244140625 233.64453125 605.875 233.64453125 605.875 c 1
 315.516601562 653.234375 282.620117188 690.708984375 282.620117188 690.708984375 c 1
 304.376953125 734.125 l 1
 351.203125 729.771484375 l 1
EndSplineSet
Validated: 33
EndChar

